<?xml version="1.0" encoding="UTF-8" standalone="no"?>
<!-- Created with Inkscape (http://www.inkscape.org/) -->

<svg
   width="210mm"
   height="297mm"
   viewBox="0 0 210 297"
   version="1.1"
   id="svg920"
   sodipodi:docname="Base Tirachinas.svg"
   inkscape:export-filename="D:\Github repository\Catapult_Unity\Catapult\Assets\SVG Dibujos\Base Tirachinas.png"
   inkscape:export-xdpi="96"
   inkscape:export-ydpi="96"
   inkscape:version="1.1.1 (3bf5ae0d25, 2021-09-20)"
   xmlns:inkscape="http://www.inkscape.org/namespaces/inkscape"
   xmlns:sodipodi="http://sodipodi.sourceforge.net/DTD/sodipodi-0.dtd"
   xmlns="http://www.w3.org/2000/svg"
   xmlns:svg="http://www.w3.org/2000/svg">
  <sodipodi:namedview
     id="namedview922"
     pagecolor="#505050"
     bordercolor="#eeeeee"
     borderopacity="1"
     inkscape:pageshadow="0"
     inkscape:pageopacity="0"
     inkscape:pagecheckerboard="0"
     inkscape:document-units="mm"
     showgrid="false"
     inkscape:zoom="0.7349537"
     inkscape:cx="223.14331"
     inkscape:cy="375.53386"
     inkscape:window-width="1920"
     inkscape:window-height="1017"
     inkscape:window-x="1352"
     inkscape:window-y="-8"
     inkscape:window-maximized="1"
     inkscape:current-layer="layer1" />
  <defs
     id="defs917" />
  <g
     inkscape:label="Capa 1"
     inkscape:groupmode="layer"
     id="layer1">
    <g
       id="g6875"
       transform="matrix(0.52798546,0,0,0.52798546,-90.48036,2.297632)"
       style="display:inline">
      <path
         style="fill:#784421;stroke:#000000;stroke-width:1px;stroke-linecap:butt;stroke-linejoin:miter;stroke-opacity:1"
         d="m 386.43206,275.94849 c 21.70041,76.23785 0.1857,216.84177 1.33144,261.41642 0.6356,4.52131 5.04157,9.86716 7.44643,10.10201 1.44078,0.21097 17.31853,3.72871 30.38905,2.65236 13.79275,-1.13584 22.99134,-5.87842 24.13096,-6.28192 1.64618,-0.58287 3.48362,-3.86763 3.62207,-6.76028 1.88978,-39.48413 -6.11765,-192.73409 5.48927,-264.26912 19.79923,-31.9577 33.48315,-62.39254 44.65288,-95.95982 11.22904,-33.7455 14.7497,-64.44239 18.18768,-91.841733 3.38879,-30.273439 3.52418,-64.614496 3.78587,-78.0360404 L 488.41843,6.6061078 c 0,0 -1.84583,52.8499462 -6.17576,78.8587082 -4.97752,29.898694 -15.12068,68.239284 -22.65326,88.063614 -7.29935,19.21051 -16.46732,42.40982 -35.04541,43.44946"
         id="path6873"
         sodipodi:nodetypes="cccssscccccasc" />
    </g>
    <path
       d="M 77.87275,126.21878 C 65.38831,129.51137 47.07825,97.063587 42.0277,82.02164 37.48976,69.549619 33.22861,23.146303 33.22861,23.146303 L 6.292379,23.421036 c -0.5233,26.568771 8.852219,63.349237 18.485741,87.672994 16.23938,30.94127 24.56856,26.04976 32.97206,46.26028"
       style="display:inline;fill:#784421;stroke:#000000;stroke-width:0.528093;stroke-linecap:butt;stroke-linejoin:miter;stroke-miterlimit:4;stroke-dasharray:none;stroke-opacity:1"
       id="path6877"
       sodipodi:nodetypes="cccccc" />
    <path
       style="display:inline;opacity:1;fill:#552200;fill-opacity:1;stroke:#000000;stroke-width:0.163;stroke-miterlimit:4;stroke-dasharray:none;stroke-opacity:1"
       id="path6879"
       sodipodi:type="arc"
       sodipodi:cx="19.894211"
       sodipodi:cy="23.20768"
       sodipodi:rx="13.336135"
       sodipodi:ry="3.7328997"
       sodipodi:start="0"
       sodipodi:end="6.2667443"
       sodipodi:open="true"
       sodipodi:arc-type="arc"
       d="M 33.230346,23.20768 A 13.336135,3.7328997 0 0 1 19.949026,26.940548 13.336135,3.7328997 0 0 1 6.5585265,23.238366 13.336135,3.7328997 0 0 1 19.72977,19.475064 13.336135,3.7328997 0 0 1 33.228543,23.14631" />
    <path
       style="display:inline;opacity:1;fill:#552200;fill-opacity:1;stroke:#000000;stroke-width:0.163;stroke-miterlimit:4;stroke-dasharray:none;stroke-opacity:1"
       id="path6881"
       sodipodi:type="arc"
       sodipodi:cx="177.12958"
       sodipodi:cy="6.019978"
       sodipodi:rx="9.830822"
       sodipodi:ry="2.5592556"
       sodipodi:start="0"
       sodipodi:end="6.2667443"
       sodipodi:open="true"
       sodipodi:arc-type="arc"
       d="m 186.9604,6.019978 a 9.830822,2.5592556 0 0 1 -9.79042,2.559234 9.830822,2.5592556 0 0 1 -9.87089,-2.5381958 9.830822,2.5592556 0 0 1 9.70927,-2.5800992 9.830822,2.5592556 0 0 1 9.95071,2.5169862" />
    <path
       style="display:inline;fill:#4d4d4d;stroke:#000000;stroke-width:0.852079;stroke-linecap:butt;stroke-linejoin:miter;stroke-miterlimit:4;stroke-dasharray:none;stroke-opacity:0.510152"
       d="m 6.132007,41.318864 c 10.39364,-2.980912 20.009543,-3.954125 28.480143,-3.729961 1.94876,8.222783 2.15701,11.076982 3.0985,20.466465 -9.2786,0.816721 -17.73292,2.286295 -28.155925,4.221097 C 7.187239,54.706926 7.266268,51.096835 6.132007,41.318864 Z"
       id="path6883"
       sodipodi:nodetypes="ccccc" />
    <path
       style="display:inline;fill:#4d4d4d;stroke:#000000;stroke-width:0.685529;stroke-linecap:butt;stroke-linejoin:miter;stroke-miterlimit:4;stroke-dasharray:none;stroke-opacity:0.510152"
       d="m 166.37204,20.220593 c 8.07982,-0.652522 13.96765,-0.66605 20.67799,0.537984 0.007,7.958027 -0.11481,9.79213 -0.78851,17.114855 -7.47891,-0.472571 -12.49699,-0.454327 -21.02143,-0.175946 -0.41027,-8.264451 0.59984,-15.009214 1.13159,-17.476937 z"
       id="path6885"
       sodipodi:nodetypes="ccccc" />
  </g>
</svg>
