<?xml version="1.0" encoding="UTF-8" standalone="no"?>
<!-- Created with Inkscape (http://www.inkscape.org/) -->

<svg
   width="210mm"
   height="297mm"
   viewBox="0 0 210 297"
   version="1.1"
   id="svg5"
   inkscape:version="1.1.1 (3bf5ae0d25, 2021-09-20)"
   sodipodi:docname="Espartanos sprite.svg"
   xmlns:inkscape="http://www.inkscape.org/namespaces/inkscape"
   xmlns:sodipodi="http://sodipodi.sourceforge.net/DTD/sodipodi-0.dtd"
   xmlns="http://www.w3.org/2000/svg"
   xmlns:svg="http://www.w3.org/2000/svg">
  <sodipodi:namedview
     id="namedview7"
     pagecolor="#505050"
     bordercolor="#eeeeee"
     borderopacity="1"
     inkscape:pageshadow="0"
     inkscape:pageopacity="0"
     inkscape:pagecheckerboard="0"
     inkscape:document-units="mm"
     showgrid="false"
     inkscape:zoom="0.7349537"
     inkscape:cx="283.69134"
     inkscape:cy="712.97008"
     inkscape:window-width="1920"
     inkscape:window-height="1017"
     inkscape:window-x="1352"
     inkscape:window-y="-8"
     inkscape:window-maximized="1"
     inkscape:current-layer="layer2" />
  <defs
     id="defs2" />
  <g
     inkscape:label="Modelo Guia"
     inkscape:groupmode="layer"
     id="layer1"
     sodipodi:insensitive="true">
    <g
       id="g72983"
       transform="matrix(0.50426738,0,0,0.50426738,-15.629946,-66.75682)"
       style="display:inline">
      <g
         id="g72981"
         transform="translate(-34.683964,-17.748435)">
        <path
           style="fill:#ff0000;stroke:#000000;stroke-width:0.165;stroke-linecap:butt;stroke-linejoin:miter;stroke-miterlimit:4;stroke-dasharray:none;stroke-opacity:1"
           d="m 58.899351,62.354055 c 0.770467,-0.743682 1.607578,-3.312703 2.20162,-7.045178 0.386716,-2.429808 0.678834,-1.952685 -0.2371,-9.416155 0,0 -1.142256,-5.582426 -1.016129,-8.400024 0.0347,-0.77529 0.02089,-2.087862 0.209267,-3.087151 0.367392,0.05854 0.743595,0.125885 1.177851,0.251285 -0.32924,-0.216507 -0.705029,-0.419716 -1.191713,-0.59124 0.194979,-3.05459 1.744579,-5.681391 1.744579,-5.681391 0.353898,0.387755 0.845495,0.61814 1.304407,0.885878 -0.379275,-0.448577 -0.776052,-0.893654 -1.079479,-1.357401 0.175969,-0.250175 1.355561,-2.199293 1.448478,-2.339115 0.226927,0.239424 0.525676,0.58664 0.83955,0.78259 -0.0894,-0.519778 -0.168235,-1.106092 -0.133402,-1.610494 0.553318,-0.478146 2.297947,-2.057969 2.894996,-2.52034 -0.109503,1.739041 0.35873,2.623082 0.864065,3.527657 -0.206002,-1.266768 -0.550753,-2.470469 -0.289038,-3.949836 0.279219,-0.158309 1.626701,-1.071118 1.626701,-1.071118 -0.162348,0.154823 0.300581,1.363854 0.490552,1.222593 l 0.123956,-1.326913 2.850663,-1.197342 c -0.09026,0.0075 -0.01826,1.680447 0.258079,2.329819 0.134017,-0.824327 0.05242,-1.636676 0.441453,-2.47517 1.897991,-0.470978 2.189058,-0.6234 4.679399,-0.875733 0.348567,-0.02866 2.088282,-0.0509 2.088282,-0.0509 -1.140955,1.492712 -1.145289,3.888584 -1.145289,3.888584 0.507461,-1.400977 0.972556,-2.817361 2.504297,-3.845873 0.420026,-0.06608 1.423594,0.0643 1.9033,0.100292 -0.07349,0.414002 -0.229098,0.92814 -0.177921,1.373309 0.227391,-0.454539 0.604773,-0.898805 0.927741,-1.257767 0,0 0.805859,0.02633 1.322669,0.15068 0.458548,0.110331 3.243507,0.850453 3.243507,0.850453 -1.768045,1.38691 -2.852343,4.558014 -2.852343,4.558014 0,0 1.575184,-3.454735 4.048782,-4.217208 0.483007,0.179062 0.787011,0.221114 1.289749,0.439188 0.502739,0.218075 1.01531,0.461002 1.540353,0.73201 -0.263332,0.219945 -0.322333,0.521622 -0.437002,0.801032 0.295794,-0.18967 0.582972,-0.387955 0.94015,-0.516241 l 1.952151,1.147009 c -6.3028,2.370832 -6.158386,3.456939 -8.650652,5.853383 -0.61038,0.586912 -1.467575,1.878827 -2.077079,2.74823 -0.609504,0.869404 -1.14067,1.451785 -1.14067,1.451785 -1.024072,-0.243129 -1.823503,-0.721259 -2.843615,-0.971516 -1.020111,-0.250256 -2.091548,-0.408128 -3.320919,-0.281717 -2.820026,0.221444 -4.17215,0.784371 -5.690339,2.066136 -1.343102,1.133944 -2.35783,2.632184 -3.082265,4.149203 -0.350001,0.818994 -0.581463,1.323318 -0.897593,2.938315 -1.000437,-0.896545 -2.067619,-1.032692 -2.387899,-0.04234 -0.506971,1.567629 -0.711358,3.562518 -0.711294,6.096791 0,0 0.0349,4.939759 -0.541936,7.31615 -0.544135,2.241676 -1.375158,4.486209 -2.709685,6.367759 -0.601064,0.84744 -2.303232,2.100005 -2.303232,2.100005 z"
           id="path72973"
           sodipodi:nodetypes="cscsccccccccccccsccccccscccccsccccccccsscscsccscsscc" />
        <path
           style="display:inline;fill:#000000;stroke:#ffffff;stroke-width:0.165;stroke-linecap:butt;stroke-linejoin:miter;stroke-miterlimit:4;stroke-dasharray:none;stroke-opacity:1"
           d="m 90.847069,49.214369 c -0.845967,-0.186495 -1.196601,-1.396243 -1.556779,-2.227393 -0.476899,-1.100495 -0.06759,-2.529221 -0.742463,-3.520717 -0.26912,-0.395378 -0.501161,-0.609395 -1.197523,-0.790366 -0.696362,-0.180971 -2.033849,0.07329 -2.874055,0.215556 -0.840206,0.142265 -1.612321,0.496184 -2.155542,0.57481 -0.543221,0.07863 -1.062038,0.02856 -1.062038,0.02856 0,0 0.413077,1.139289 0.846485,1.528221 0.766953,0.68825 2.226353,1.146667 2.850102,1.197523 0.623749,0.05086 2.658502,-1.173573 2.658502,-1.173573 0.282417,-0.06038 0.490235,-0.0089 0.502959,0.335306 l 3.065658,17.723337 c -3.480164,-4.256923 -7.40604,-8.63765 -12.933245,-10.131041 0,0 -0.871333,-0.931808 -1.177182,-2.040749 -0.30585,-1.108941 0.18703,-3.04937 0.0036,-4.449825 -0.06365,-0.485987 -0.876685,-0.891339 -1.496903,-0.862218 -0.694934,0.03263 -1.580758,0.633412 -1.449003,1.293325 0.259851,1.301504 0.770249,3.247592 0.773427,3.918454 0.0032,0.670861 -0.0017,1.63683 -0.749477,2.356566 -1.959496,1.836877 -4.743371,2.746553 -6.179217,2.442947 1.764138,-0.435185 2.778187,-2.969855 2.730352,-4.814042 -0.02637,-1.016796 -1.017763,-1.766576 -1.640959,-2.57262 -1.93427,-2.501795 -1.854914,-4.981787 -1.405425,-7.617356 0.449489,-2.635569 1.983606,-5.4474 4.124154,-7.198054 1.647432,-1.347357 3.947089,-1.752477 6.059466,-2.011838 2.321986,-0.285097 6.311586,1.792132 6.311586,1.792132 v 0 l 0.44244,-1.744232 3.808125,4.430836 z"
           id="path72975"
           sodipodi:nodetypes="caazzzcazcccczssszccassasscccc" />
        <path
           style="fill:#2b0000;stroke:#000000;stroke-width:0.165;stroke-linecap:butt;stroke-linejoin:miter;stroke-miterlimit:4;stroke-dasharray:none;stroke-opacity:1"
           d="m 72.873227,32.470474 c 2.215847,-0.777754 5.519343,-2.344592 10.514904,0.144782 l 3.199912,-4.353171 C 74.58079,25.093017 67.940977,30.309882 65.319134,40.136002 c 0.876371,-0.978935 2.234266,0.379675 2.234266,0.379675 0.619293,-4.398239 4.051666,-7.35333 5.319827,-8.045203 z"
           id="path72977"
           sodipodi:nodetypes="cccccc" />
        <path
           style="display:inline;fill:#000000;stroke:#ffffff;stroke-width:0.264583px;stroke-linecap:butt;stroke-linejoin:miter;stroke-opacity:1"
           d="m 84.595989,31.467082 3.808125,4.430836 c -7.970315,7.429335 -9.113765,6.474802 -12.334486,8.071302 z"
           id="path72979"
           sodipodi:nodetypes="cccc" />
      </g>
    </g>
    <path
       style="display:inline;fill:#000000;stroke:#ffffff;stroke-width:0.218829px;stroke-linecap:butt;stroke-linejoin:miter;stroke-opacity:1"
       d="m 2.044994,-45.44195 -1.79810996,6.3644 1.54079996,6.17501 c 0.18978,0.76062 0.80171,1.34675 1.45228,1.30881 0.65383,-0.0382 1.46358,-0.90222 1.29677,-1.47608 l -1.80436,-6.20822 0.48551,-1.24886 z"
       id="path36996-5"
       sodipodi:nodetypes="ccsasccc"
       inkscape:transform-center-x="-0.002572072"
       inkscape:transform-center-y="-0.42152989" />
    <path
       style="display:inline;fill:#000000;stroke:#ffffff;stroke-width:0.222623;stroke-linecap:butt;stroke-linejoin:miter;stroke-miterlimit:4;stroke-dasharray:none;stroke-opacity:1"
       d="m 3.481914,-26.83896 0.34865,3.45467 2.47216,-2.44045 z"
       id="path18464"
       sodipodi:nodetypes="cccc" />
    <path
       style="display:inline;fill:#000000;stroke:#ffffff;stroke-width:0.218575;stroke-linecap:butt;stroke-linejoin:miter;stroke-miterlimit:4;stroke-dasharray:none;stroke-opacity:1"
       d="m 4.803764,-16.44522 -0.0621,5.83698 c -0.0108,0.9526101 1.31879,2.1500101 2.37763,2.1098801 0.93415,-0.0354 1.93216,-1.05472 1.95074,-2.0148601 -0.0108,-5.07071 0.44878,-10.07283 0.13844,-15.09841 l -0.13775,-3.58075 0.85707,-16.14697 c 0.0312,-0.5856 -0.3676,-1.13148 -0.85964,-1.28014 -1.6567,-0.5005 -4.12316,-0.47219 -5.37732,-0.31162 -0.6409,0.082 -1.51757,0.70911 -1.54044,1.17657 l -0.32456,15.82261 c 0,0 0.95493,4.62607 1.3112,5.4802 l -3.78435996,9.03373 c -0.50840004,1.21362 -0.43324004,3.24614 0.71917,3.88088 1.05987996,0.58377 2.45178996,0.67825 3.37022996,-1.34869 l 4.44406,-12.05349 -0.90208,-4.85938"
       id="path37000"
       sodipodi:nodetypes="csacccssssccsascc" />
    <path
       style="display:inline;fill:#000000;stroke:#ffffff;stroke-width:0.218829px;stroke-linecap:butt;stroke-linejoin:miter;stroke-opacity:1"
       d="m 4.048934,-43.35732 0.6161,4.51304 c 0.0304,0.16532 2.80542,4.41394 2.80542,4.41394 0.49877,1.3029 2.114,1.82172 3.00469,1.21115 0.71439,-0.48971 0.68702,-1.56137 -0.037,-2.59811 l -2.26937,-3.24966 -0.67093,-4.82256"
       id="path37004"
       sodipodi:nodetypes="ccsascc" />
  </g>
  <g
     inkscape:groupmode="layer"
     id="layer2"
     inkscape:label="Movimientos">
    <g
       id="g40092"
       transform="matrix(0.18814356,-0.46785425,0.46785425,0.18814356,13.535788,226.74772)"
       style="display:inline">
      <g
         id="g40090"
         transform="translate(-34.683964,-17.748435)">
        <path
           style="fill:#ff0000;stroke:#000000;stroke-width:0.165;stroke-linecap:butt;stroke-linejoin:miter;stroke-miterlimit:4;stroke-dasharray:none;stroke-opacity:1"
           d="m 58.899351,62.354055 c 0.770467,-0.743682 1.607578,-3.312703 2.20162,-7.045178 0.386716,-2.429808 0.678834,-1.952685 -0.2371,-9.416155 0,0 -1.142256,-5.582426 -1.016129,-8.400024 0.0347,-0.77529 0.02089,-2.087862 0.209267,-3.087151 0.367392,0.05854 0.743595,0.125885 1.177851,0.251285 -0.32924,-0.216507 -0.705029,-0.419716 -1.191713,-0.59124 0.194979,-3.05459 1.744579,-5.681391 1.744579,-5.681391 0.353898,0.387755 0.845495,0.61814 1.304407,0.885878 -0.379275,-0.448577 -0.776052,-0.893654 -1.079479,-1.357401 0.175969,-0.250175 1.355561,-2.199293 1.448478,-2.339115 0.226927,0.239424 0.525676,0.58664 0.83955,0.78259 -0.0894,-0.519778 -0.168235,-1.106092 -0.133402,-1.610494 0.553318,-0.478146 2.297947,-2.057969 2.894996,-2.52034 -0.109503,1.739041 0.35873,2.623082 0.864065,3.527657 -0.206002,-1.266768 -0.550753,-2.470469 -0.289038,-3.949836 0.279219,-0.158309 1.626701,-1.071118 1.626701,-1.071118 -0.162348,0.154823 0.300581,1.363854 0.490552,1.222593 l 0.123956,-1.326913 2.850663,-1.197342 c -0.09026,0.0075 -0.01826,1.680447 0.258079,2.329819 0.134017,-0.824327 0.05242,-1.636676 0.441453,-2.47517 1.897991,-0.470978 2.189058,-0.6234 4.679399,-0.875733 0.348567,-0.02866 2.088282,-0.0509 2.088282,-0.0509 -1.140955,1.492712 -1.145289,3.888584 -1.145289,3.888584 0.507461,-1.400977 0.972556,-2.817361 2.504297,-3.845873 0.420026,-0.06608 1.423594,0.0643 1.9033,0.100292 -0.07349,0.414002 -0.229098,0.92814 -0.177921,1.373309 0.227391,-0.454539 0.604773,-0.898805 0.927741,-1.257767 0,0 0.805859,0.02633 1.322669,0.15068 0.458548,0.110331 3.243507,0.850453 3.243507,0.850453 -1.768045,1.38691 -2.852343,4.558014 -2.852343,4.558014 0,0 1.575184,-3.454735 4.048782,-4.217208 0.483007,0.179062 0.787011,0.221114 1.289749,0.439188 0.502739,0.218075 1.01531,0.461002 1.540353,0.73201 -0.263332,0.219945 -0.322333,0.521622 -0.437002,0.801032 0.295794,-0.18967 0.582972,-0.387955 0.94015,-0.516241 l 1.952151,1.147009 c -6.3028,2.370832 -6.158386,3.456939 -8.650652,5.853383 -0.61038,0.586912 -1.467575,1.878827 -2.077079,2.74823 -0.609504,0.869404 -1.14067,1.451785 -1.14067,1.451785 -1.024072,-0.243129 -1.823503,-0.721259 -2.843615,-0.971516 -1.020111,-0.250256 -2.091548,-0.408128 -3.320919,-0.281717 -2.820026,0.221444 -4.17215,0.784371 -5.690339,2.066136 -1.343102,1.133944 -2.35783,2.632184 -3.082265,4.149203 -0.350001,0.818994 -0.581463,1.323318 -0.897593,2.938315 -1.000437,-0.896545 -2.067619,-1.032692 -2.387899,-0.04234 -0.506971,1.567629 -0.711358,3.562518 -0.711294,6.096791 0,0 0.0349,4.939759 -0.541936,7.31615 -0.544135,2.241676 -1.375158,4.486209 -2.709685,6.367759 -0.601064,0.84744 -2.303232,2.100005 -2.303232,2.100005 z"
           id="path40082"
           sodipodi:nodetypes="cscsccccccccccccsccccccscccccsccccccccsscscsccscsscc" />
        <path
           style="display:inline;fill:#000000;stroke:#ffffff;stroke-width:0.165;stroke-linecap:butt;stroke-linejoin:miter;stroke-miterlimit:4;stroke-dasharray:none;stroke-opacity:1"
           d="m 90.847069,49.214369 c -0.845967,-0.186495 -1.196601,-1.396243 -1.556779,-2.227393 -0.476899,-1.100495 -0.06759,-2.529221 -0.742463,-3.520717 -0.26912,-0.395378 -0.501161,-0.609395 -1.197523,-0.790366 -0.696362,-0.180971 -2.033849,0.07329 -2.874055,0.215556 -0.840206,0.142265 -1.612321,0.496184 -2.155542,0.57481 -0.543221,0.07863 -1.062038,0.02856 -1.062038,0.02856 0,0 0.413077,1.139289 0.846485,1.528221 0.766953,0.68825 2.226353,1.146667 2.850102,1.197523 0.623749,0.05086 2.658502,-1.173573 2.658502,-1.173573 0.282417,-0.06038 0.490235,-0.0089 0.502959,0.335306 l 3.065658,17.723337 c -3.480164,-4.256923 -7.40604,-8.63765 -12.933245,-10.131041 0,0 -0.871333,-0.931808 -1.177182,-2.040749 -0.30585,-1.108941 0.18703,-3.04937 0.0036,-4.449825 -0.06365,-0.485987 -0.876685,-0.891339 -1.496903,-0.862218 -0.694934,0.03263 -1.580758,0.633412 -1.449003,1.293325 0.259851,1.301504 0.770249,3.247592 0.773427,3.918454 0.0032,0.670861 -0.0017,1.63683 -0.749477,2.356566 -1.959496,1.836877 -4.743371,2.746553 -6.179217,2.442947 1.764138,-0.435185 2.778187,-2.969855 2.730352,-4.814042 -0.02637,-1.016796 -1.017763,-1.766576 -1.640959,-2.57262 -1.93427,-2.501795 -1.854914,-4.981787 -1.405425,-7.617356 0.449489,-2.635569 1.983606,-5.4474 4.124154,-7.198054 1.647432,-1.347357 3.947089,-1.752477 6.059466,-2.011838 2.321986,-0.285097 6.311586,1.792132 6.311586,1.792132 v 0 l 0.44244,-1.744232 3.808125,4.430836 z"
           id="path40084"
           sodipodi:nodetypes="caazzzcazcccczssszccassasscccc" />
        <path
           style="fill:#2b0000;stroke:#000000;stroke-width:0.165;stroke-linecap:butt;stroke-linejoin:miter;stroke-miterlimit:4;stroke-dasharray:none;stroke-opacity:1"
           d="m 72.873227,32.470474 c 2.215847,-0.777754 5.519343,-2.344592 10.514904,0.144782 l 3.199912,-4.353171 C 74.58079,25.093017 67.940977,30.309882 65.319134,40.136002 c 0.876371,-0.978935 2.234266,0.379675 2.234266,0.379675 0.619293,-4.398239 4.051666,-7.35333 5.319827,-8.045203 z"
           id="path40086"
           sodipodi:nodetypes="cccccc" />
        <path
           style="display:inline;fill:#000000;stroke:#ffffff;stroke-width:0.264583px;stroke-linecap:butt;stroke-linejoin:miter;stroke-opacity:1"
           d="m 84.595989,31.467082 3.808125,4.430836 c -7.970315,7.429335 -9.113765,6.474802 -12.334486,8.071302 z"
           id="path40088"
           sodipodi:nodetypes="cccc" />
      </g>
    </g>
    <g
       id="g871"
       transform="matrix(0.42382703,-0.27323294,0.27323294,0.42382703,1.6335239,47.490413)"
       style="display:inline">
      <g
         id="g869"
         transform="translate(-34.683964,-17.748435)">
        <path
           style="fill:#ff0000;stroke:#000000;stroke-width:0.165;stroke-linecap:butt;stroke-linejoin:miter;stroke-miterlimit:4;stroke-dasharray:none;stroke-opacity:1"
           d="m 58.899351,62.354055 c 0.770467,-0.743682 1.607578,-3.312703 2.20162,-7.045178 0.386716,-2.429808 0.678834,-1.952685 -0.2371,-9.416155 0,0 -1.142256,-5.582426 -1.016129,-8.400024 0.0347,-0.77529 0.02089,-2.087862 0.209267,-3.087151 0.367392,0.05854 0.743595,0.125885 1.177851,0.251285 -0.32924,-0.216507 -0.705029,-0.419716 -1.191713,-0.59124 0.194979,-3.05459 1.744579,-5.681391 1.744579,-5.681391 0.353898,0.387755 0.845495,0.61814 1.304407,0.885878 -0.379275,-0.448577 -0.776052,-0.893654 -1.079479,-1.357401 0.175969,-0.250175 1.355561,-2.199293 1.448478,-2.339115 0.226927,0.239424 0.525676,0.58664 0.83955,0.78259 -0.0894,-0.519778 -0.168235,-1.106092 -0.133402,-1.610494 0.553318,-0.478146 2.297947,-2.057969 2.894996,-2.52034 -0.109503,1.739041 0.35873,2.623082 0.864065,3.527657 -0.206002,-1.266768 -0.550753,-2.470469 -0.289038,-3.949836 0.279219,-0.158309 1.626701,-1.071118 1.626701,-1.071118 -0.162348,0.154823 0.300581,1.363854 0.490552,1.222593 l 0.123956,-1.326913 2.850663,-1.197342 c -0.09026,0.0075 -0.01826,1.680447 0.258079,2.329819 0.134017,-0.824327 0.05242,-1.636676 0.441453,-2.47517 1.897991,-0.470978 2.189058,-0.6234 4.679399,-0.875733 0.348567,-0.02866 2.088282,-0.0509 2.088282,-0.0509 -1.140955,1.492712 -1.145289,3.888584 -1.145289,3.888584 0.507461,-1.400977 0.972556,-2.817361 2.504297,-3.845873 0.420026,-0.06608 1.423594,0.0643 1.9033,0.100292 -0.07349,0.414002 -0.229098,0.92814 -0.177921,1.373309 0.227391,-0.454539 0.604773,-0.898805 0.927741,-1.257767 0,0 0.805859,0.02633 1.322669,0.15068 0.458548,0.110331 3.243507,0.850453 3.243507,0.850453 -1.768045,1.38691 -2.852343,4.558014 -2.852343,4.558014 0,0 1.575184,-3.454735 4.048782,-4.217208 0.483007,0.179062 0.787011,0.221114 1.289749,0.439188 0.502739,0.218075 1.01531,0.461002 1.540353,0.73201 -0.263332,0.219945 -0.322333,0.521622 -0.437002,0.801032 0.295794,-0.18967 0.582972,-0.387955 0.94015,-0.516241 l 1.952151,1.147009 c -6.3028,2.370832 -6.158386,3.456939 -8.650652,5.853383 -0.61038,0.586912 -1.467575,1.878827 -2.077079,2.74823 -0.609504,0.869404 -1.14067,1.451785 -1.14067,1.451785 -1.024072,-0.243129 -1.823503,-0.721259 -2.843615,-0.971516 -1.020111,-0.250256 -2.091548,-0.408128 -3.320919,-0.281717 -2.820026,0.221444 -4.17215,0.784371 -5.690339,2.066136 -1.343102,1.133944 -2.35783,2.632184 -3.082265,4.149203 -0.350001,0.818994 -0.581463,1.323318 -0.897593,2.938315 -1.000437,-0.896545 -2.067619,-1.032692 -2.387899,-0.04234 -0.506971,1.567629 -0.711358,3.562518 -0.711294,6.096791 0,0 0.0349,4.939759 -0.541936,7.31615 -0.544135,2.241676 -1.375158,4.486209 -2.709685,6.367759 -0.601064,0.84744 -2.303232,2.100005 -2.303232,2.100005 z"
           id="path861"
           sodipodi:nodetypes="cscsccccccccccccsccccccscccccsccccccccsscscsccscsscc" />
        <path
           style="display:inline;fill:#000000;stroke:#ffffff;stroke-width:0.165;stroke-linecap:butt;stroke-linejoin:miter;stroke-miterlimit:4;stroke-dasharray:none;stroke-opacity:1"
           d="m 90.847069,49.214369 c -0.845967,-0.186495 -1.196601,-1.396243 -1.556779,-2.227393 -0.476899,-1.100495 -0.06759,-2.529221 -0.742463,-3.520717 -0.26912,-0.395378 -0.501161,-0.609395 -1.197523,-0.790366 -0.696362,-0.180971 -2.033849,0.07329 -2.874055,0.215556 -0.840206,0.142265 -1.612321,0.496184 -2.155542,0.57481 -0.543221,0.07863 -1.062038,0.02856 -1.062038,0.02856 0,0 0.413077,1.139289 0.846485,1.528221 0.766953,0.68825 2.226353,1.146667 2.850102,1.197523 0.623749,0.05086 2.658502,-1.173573 2.658502,-1.173573 0.282417,-0.06038 0.490235,-0.0089 0.502959,0.335306 l 3.065658,17.723337 c -3.480164,-4.256923 -7.40604,-8.63765 -12.933245,-10.131041 0,0 -0.871333,-0.931808 -1.177182,-2.040749 -0.30585,-1.108941 0.18703,-3.04937 0.0036,-4.449825 -0.06365,-0.485987 -0.876685,-0.891339 -1.496903,-0.862218 -0.694934,0.03263 -1.580758,0.633412 -1.449003,1.293325 0.259851,1.301504 0.770249,3.247592 0.773427,3.918454 0.0032,0.670861 -0.0017,1.63683 -0.749477,2.356566 -1.959496,1.836877 -4.743371,2.746553 -6.179217,2.442947 1.764138,-0.435185 2.778187,-2.969855 2.730352,-4.814042 -0.02637,-1.016796 -1.017763,-1.766576 -1.640959,-2.57262 -1.93427,-2.501795 -1.854914,-4.981787 -1.405425,-7.617356 0.449489,-2.635569 1.983606,-5.4474 4.124154,-7.198054 1.647432,-1.347357 3.947089,-1.752477 6.059466,-2.011838 2.321986,-0.285097 6.311586,1.792132 6.311586,1.792132 v 0 l 0.44244,-1.744232 3.808125,4.430836 z"
           id="path863"
           sodipodi:nodetypes="caazzzcazcccczssszccassasscccc" />
        <path
           style="fill:#2b0000;stroke:#000000;stroke-width:0.165;stroke-linecap:butt;stroke-linejoin:miter;stroke-miterlimit:4;stroke-dasharray:none;stroke-opacity:1"
           d="m 72.873227,32.470474 c 2.215847,-0.777754 5.519343,-2.344592 10.514904,0.144782 l 3.199912,-4.353171 C 74.58079,25.093017 67.940977,30.309882 65.319134,40.136002 c 0.876371,-0.978935 2.234266,0.379675 2.234266,0.379675 0.619293,-4.398239 4.051666,-7.35333 5.319827,-8.045203 z"
           id="path865"
           sodipodi:nodetypes="cccccc" />
        <path
           style="display:inline;fill:#000000;stroke:#ffffff;stroke-width:0.264583px;stroke-linecap:butt;stroke-linejoin:miter;stroke-opacity:1"
           d="m 84.595989,31.467082 3.808125,4.430836 c -7.970315,7.429335 -9.113765,6.474802 -12.334486,8.071302 z"
           id="path867"
           sodipodi:nodetypes="cccc" />
      </g>
    </g>
    <path
       style="fill:#000000;stroke:#ffffff;stroke-width:0.264583px;stroke-linecap:butt;stroke-linejoin:miter;stroke-opacity:1"
       d="m 30.063074,55.584436 c -1.341992,-1.510747 3.903372,-5.319905 4.903715,-3.564167 0,0 8.827762,9.550375 12.329567,13.493191 0.588367,-0.81763 8.45376,-6.331589 12.27112,-7.75868 0.646486,-0.241685 2.001727,-0.449608 3.077064,0.731895 l 10.921721,14.730329 c 0.439971,0.593398 0.320751,1.952079 -0.566501,2.616791 -0.953573,0.714403 -2.703838,0.687092 -3.178549,0.05071 0,0 -8.415622,-12.4607 -9.340126,-12.520965 C 59.004994,63.734806 47.371418,73.409816 45.747683,73.241365 42.882214,72.30101 30.063074,55.584436 30.063074,55.584436 Z"
       id="path4038"
       sodipodi:nodetypes="sscscsssccs" />
    <path
       style="fill:#000000;stroke:#ffffff;stroke-width:0.264583px;stroke-linecap:butt;stroke-linejoin:miter;stroke-opacity:1"
       d="m 31.868737,56.099367 c 0,0 3.65448,9.543493 4.811,10.042565 l 9.231221,2.854327 c 0.653194,0.20197 2.397731,-0.652803 2.42344,-1.611327 0.05071,-1.890686 -0.742643,-1.876699 -1.276167,-2.279288 0,0 -7.816014,-1.708853 -8.366141,-2.28434 -0.550127,-0.575484 -3.976944,-9.91242 -3.976944,-9.91242 z"
       id="path6656"
       sodipodi:nodetypes="ccsssscc"
       inkscape:transform-center-x="0.1761988"
       inkscape:transform-center-y="-0.29791674" />
    <g
       id="g21431"
       transform="matrix(-0.08921732,-0.49631227,0.49631227,-0.08921732,29.481323,210.01766)"
       style="display:inline">
      <g
         id="g21429"
         transform="translate(-34.683964,-17.748435)">
        <path
           style="fill:#ff0000;stroke:#000000;stroke-width:0.165;stroke-linecap:butt;stroke-linejoin:miter;stroke-miterlimit:4;stroke-dasharray:none;stroke-opacity:1"
           d="m 58.899351,62.354055 c 0.770467,-0.743682 1.607578,-3.312703 2.20162,-7.045178 0.386716,-2.429808 0.678834,-1.952685 -0.2371,-9.416155 0,0 -1.142256,-5.582426 -1.016129,-8.400024 0.0347,-0.77529 0.02089,-2.087862 0.209267,-3.087151 0.367392,0.05854 0.743595,0.125885 1.177851,0.251285 -0.32924,-0.216507 -0.705029,-0.419716 -1.191713,-0.59124 0.194979,-3.05459 1.744579,-5.681391 1.744579,-5.681391 0.353898,0.387755 0.845495,0.61814 1.304407,0.885878 -0.379275,-0.448577 -0.776052,-0.893654 -1.079479,-1.357401 0.175969,-0.250175 1.355561,-2.199293 1.448478,-2.339115 0.226927,0.239424 0.525676,0.58664 0.83955,0.78259 -0.0894,-0.519778 -0.168235,-1.106092 -0.133402,-1.610494 0.553318,-0.478146 2.297947,-2.057969 2.894996,-2.52034 -0.109503,1.739041 0.35873,2.623082 0.864065,3.527657 -0.206002,-1.266768 -0.550753,-2.470469 -0.289038,-3.949836 0.279219,-0.158309 1.626701,-1.071118 1.626701,-1.071118 -0.162348,0.154823 0.300581,1.363854 0.490552,1.222593 l 0.123956,-1.326913 2.850663,-1.197342 c -0.09026,0.0075 -0.01826,1.680447 0.258079,2.329819 0.134017,-0.824327 0.05242,-1.636676 0.441453,-2.47517 1.897991,-0.470978 2.189058,-0.6234 4.679399,-0.875733 0.348567,-0.02866 2.088282,-0.0509 2.088282,-0.0509 -1.140955,1.492712 -1.145289,3.888584 -1.145289,3.888584 0.507461,-1.400977 0.972556,-2.817361 2.504297,-3.845873 0.420026,-0.06608 1.423594,0.0643 1.9033,0.100292 -0.07349,0.414002 -0.229098,0.92814 -0.177921,1.373309 0.227391,-0.454539 0.604773,-0.898805 0.927741,-1.257767 0,0 0.805859,0.02633 1.322669,0.15068 0.458548,0.110331 3.243507,0.850453 3.243507,0.850453 -1.768045,1.38691 -2.852343,4.558014 -2.852343,4.558014 0,0 1.575184,-3.454735 4.048782,-4.217208 0.483007,0.179062 0.787011,0.221114 1.289749,0.439188 0.502739,0.218075 1.01531,0.461002 1.540353,0.73201 -0.263332,0.219945 -0.322333,0.521622 -0.437002,0.801032 0.295794,-0.18967 0.582972,-0.387955 0.94015,-0.516241 l 1.952151,1.147009 c -6.3028,2.370832 -6.158386,3.456939 -8.650652,5.853383 -0.61038,0.586912 -1.467575,1.878827 -2.077079,2.74823 -0.609504,0.869404 -1.14067,1.451785 -1.14067,1.451785 -1.024072,-0.243129 -1.823503,-0.721259 -2.843615,-0.971516 -1.020111,-0.250256 -2.091548,-0.408128 -3.320919,-0.281717 -2.820026,0.221444 -4.17215,0.784371 -5.690339,2.066136 -1.343102,1.133944 -2.35783,2.632184 -3.082265,4.149203 -0.350001,0.818994 -0.581463,1.323318 -0.897593,2.938315 -1.000437,-0.896545 -2.067619,-1.032692 -2.387899,-0.04234 -0.506971,1.567629 -0.711358,3.562518 -0.711294,6.096791 0,0 0.0349,4.939759 -0.541936,7.31615 -0.544135,2.241676 -1.375158,4.486209 -2.709685,6.367759 -0.601064,0.84744 -2.303232,2.100005 -2.303232,2.100005 z"
           id="path21421"
           sodipodi:nodetypes="cscsccccccccccccsccccccscccccsccccccccsscscsccscsscc" />
        <path
           style="display:inline;fill:#000000;stroke:#ffffff;stroke-width:0.165;stroke-linecap:butt;stroke-linejoin:miter;stroke-miterlimit:4;stroke-dasharray:none;stroke-opacity:1"
           d="m 90.847069,49.214369 c -0.845967,-0.186495 -1.196601,-1.396243 -1.556779,-2.227393 -0.476899,-1.100495 -0.06759,-2.529221 -0.742463,-3.520717 -0.26912,-0.395378 -0.501161,-0.609395 -1.197523,-0.790366 -0.696362,-0.180971 -2.033849,0.07329 -2.874055,0.215556 -0.840206,0.142265 -1.612321,0.496184 -2.155542,0.57481 -0.543221,0.07863 -1.062038,0.02856 -1.062038,0.02856 0,0 0.413077,1.139289 0.846485,1.528221 0.766953,0.68825 2.226353,1.146667 2.850102,1.197523 0.623749,0.05086 2.658502,-1.173573 2.658502,-1.173573 0.282417,-0.06038 0.490235,-0.0089 0.502959,0.335306 l 3.065658,17.723337 c -3.480164,-4.256923 -7.40604,-8.63765 -12.933245,-10.131041 0,0 -0.871333,-0.931808 -1.177182,-2.040749 -0.30585,-1.108941 0.18703,-3.04937 0.0036,-4.449825 -0.06365,-0.485987 -0.876685,-0.891339 -1.496903,-0.862218 -0.694934,0.03263 -1.580758,0.633412 -1.449003,1.293325 0.259851,1.301504 0.770249,3.247592 0.773427,3.918454 0.0032,0.670861 -0.0017,1.63683 -0.749477,2.356566 -1.959496,1.836877 -4.743371,2.746553 -6.179217,2.442947 1.764138,-0.435185 2.778187,-2.969855 2.730352,-4.814042 -0.02637,-1.016796 -1.017763,-1.766576 -1.640959,-2.57262 -1.93427,-2.501795 -1.854914,-4.981787 -1.405425,-7.617356 0.449489,-2.635569 1.983606,-5.4474 4.124154,-7.198054 1.647432,-1.347357 3.947089,-1.752477 6.059466,-2.011838 2.321986,-0.285097 6.311586,1.792132 6.311586,1.792132 v 0 l 0.44244,-1.744232 3.808125,4.430836 z"
           id="path21423"
           sodipodi:nodetypes="caazzzcazcccczssszccassasscccc" />
        <path
           style="fill:#2b0000;stroke:#000000;stroke-width:0.165;stroke-linecap:butt;stroke-linejoin:miter;stroke-miterlimit:4;stroke-dasharray:none;stroke-opacity:1"
           d="m 72.873227,32.470474 c 2.215847,-0.777754 5.519343,-2.344592 10.514904,0.144782 l 3.199912,-4.353171 C 74.58079,25.093017 67.940977,30.309882 65.319134,40.136002 c 0.876371,-0.978935 2.234266,0.379675 2.234266,0.379675 0.619293,-4.398239 4.051666,-7.35333 5.319827,-8.045203 z"
           id="path21425"
           sodipodi:nodetypes="cccccc" />
        <path
           style="display:inline;fill:#000000;stroke:#ffffff;stroke-width:0.264583px;stroke-linecap:butt;stroke-linejoin:miter;stroke-opacity:1"
           d="m 84.595989,31.467082 3.808125,4.430836 c -7.970315,7.429335 -9.113765,6.474802 -12.334486,8.071302 z"
           id="path21427"
           sodipodi:nodetypes="cccc" />
      </g>
    </g>
    <g
       id="g21437"
       transform="rotate(-9.9186452,329.68361,181.72268)" />
    <path
       style="fill:#000000;stroke:#ffffff;stroke-width:0.264583px;stroke-linecap:butt;stroke-linejoin:miter;stroke-opacity:1"
       d="m 45.213155,184.84141 c -0.452594,-1.77765 -0.386415,-2.56625 0.09399,-3.36576 5.142271,-5.63125 18.564474,-8.78742 24.807957,-9.25408 10.723467,-0.74427 21.863814,1.62299 22.558268,2.36858 0.691405,0.74231 10.585242,14.51786 10.585242,14.51786 0.91698,1.25766 -0.26989,3.62769 -1.6395,4.35742 -1.6752,0.89255 -4.462723,0.10968 -5.542065,-1.3084 l -8.186867,-10.7562 c 0,0 -12.162446,-1.98695 -18.189846,-1.21393 -4.962142,0.6364 -14.238188,4.74602 -14.238188,4.74602 -8.852159,3.98708 -9.72302,1.33843 -10.248989,-0.0915 z"
       id="path21433"
       sodipodi:nodetypes="cccssascacc" />
    <path
       style="fill:#000000;stroke:#ffffff;stroke-width:0.264583px;stroke-linecap:butt;stroke-linejoin:miter;stroke-opacity:1"
       d="m 50.122997,180.67626 -14.74752,9.72822 c -0.332972,0.3361 -1.265702,1.31075 0.03126,3.05622 1.744285,1.69875 3.931474,0.19165 3.931474,0.19165 l 15.348301,-8.39177"
       id="path28896"
       sodipodi:nodetypes="ccccc" />
    <path
       style="fill:#000000;stroke:#ffffff;stroke-width:0.264583px;stroke-linecap:butt;stroke-linejoin:miter;stroke-opacity:1"
       d="m 46.265996,212.55629 c -4.817105,-2.22108 -7.302958,4.93955 -5.282088,6.87308 -0.0015,3.3e-4 16.642358,11.78139 22.131786,11.14785 1.463083,1.01188 21.037356,-8.00977 21.037356,-8.00977 l 11.43268,6.77229 c 1.24343,0.75629 4.07443,0.64016 5.03793,-0.7041 0.64759,-0.90351 0.005,-3.64292 -0.89546,-4.08601 l -15.218282,-9.30356 c -3.76637,1.08635 -19.230495,6.43977 -20.63055,6.03975 -5.546021,-2.0758 -11.742248,-5.81969 -17.613372,-8.72953 z"
       id="path33159"
       sodipodi:nodetypes="cccccscccc" />
    <path
       style="fill:#000000;stroke:#ffffff;stroke-width:0.264583px;stroke-linecap:butt;stroke-linejoin:miter;stroke-opacity:1"
       d="m 42.153287,218.81039 -11.854176,-9.90825 c -1.596375,-1.33432 -1.419379,-3.64525 -0.292081,-4.77142 1.233199,-1.23199 3.709703,-1.01146 5.219362,0.32466 l 10.777465,9.53852"
       id="path33161"
       sodipodi:nodetypes="csasc" />
  </g>
</svg>
