<?xml version="1.0" encoding="UTF-8" standalone="no"?>
<!-- Created with Inkscape (http://www.inkscape.org/) -->

<svg
   width="210mm"
   height="297mm"
   viewBox="0 0 210 297"
   version="1.1"
   id="svg21879"
   sodipodi:docname="Soldado Romano andando.svg"
   inkscape:version="1.1.1 (3bf5ae0d25, 2021-09-20)"
   xmlns:inkscape="http://www.inkscape.org/namespaces/inkscape"
   xmlns:sodipodi="http://sodipodi.sourceforge.net/DTD/sodipodi-0.dtd"
   xmlns="http://www.w3.org/2000/svg"
   xmlns:svg="http://www.w3.org/2000/svg">
  <sodipodi:namedview
     id="namedview21881"
     pagecolor="#505050"
     bordercolor="#eeeeee"
     borderopacity="1"
     inkscape:pageshadow="0"
     inkscape:pageopacity="0"
     inkscape:pagecheckerboard="0"
     inkscape:document-units="mm"
     showgrid="false"
     inkscape:zoom="8"
     inkscape:cx="261.125"
     inkscape:cy="646.5"
     inkscape:window-width="1920"
     inkscape:window-height="1017"
     inkscape:window-x="1352"
     inkscape:window-y="-8"
     inkscape:window-maximized="1"
     inkscape:current-layer="layer6" />
  <defs
     id="defs21876" />
  <g
     inkscape:label="Cuerpos"
     inkscape:groupmode="layer"
     id="layer1">
    <path
       style="display:inline;fill:#000000;stroke:#ffffff;stroke-width:0.218829px;stroke-linecap:butt;stroke-linejoin:miter;stroke-opacity:1"
       d="m 165.89177,167.05324 1.79811,6.3644 -1.5408,6.17501 c -0.18978,0.76062 -0.80171,1.34675 -1.45228,1.30881 -0.65383,-0.0382 -1.46358,-0.90222 -1.29677,-1.47608 l 1.80436,-6.20822 -0.48551,-1.24887 z"
       id="path36996-5"
       sodipodi:nodetypes="ccsasccc"
       inkscape:transform-center-x="0.0025768085"
       inkscape:transform-center-y="-0.42152989" />
    <path
       style="display:inline;fill:#000000;stroke:#ffffff;stroke-width:0.218829px;stroke-linecap:butt;stroke-linejoin:miter;stroke-opacity:1"
       d="m 25.171183,256.75851 -1.05672,8.69394 2.6603,8.92455 c 0.35473,1.19003 0.12791,2.99845 -0.97916,3.44702 -1.11099,0.45016 -2.97101,-0.5629 -3.11351,-1.79959 l -1.02894,-8.92987 -0.22411,-4.25808 z"
       id="path968"
       sodipodi:nodetypes="ccsasccc" />
    <path
       style="display:inline;fill:#000000;stroke:#ffffff;stroke-width:0.222623;stroke-linecap:butt;stroke-linejoin:miter;stroke-miterlimit:4;stroke-dasharray:none;stroke-opacity:1"
       d="m 164.45485,185.65622 -0.34865,3.45467 -2.47216,-2.44045 z"
       id="path18464"
       sodipodi:nodetypes="cccc" />
    <path
       style="display:inline;fill:#000000;fill-opacity:1;stroke:#ffffff;stroke-width:0.356983px;stroke-linecap:butt;stroke-linejoin:miter;stroke-opacity:1"
       d="m 23.547293,116.43279 -1.06048,8.91676 0.84784,8.6196 c 0.10187,1.03551 -0.49191,2.57422 -1.52133,2.7257 -0.93136,0.13704 -1.99741,-1.02416 -2.02843,-1.96504 l -0.38032,-11.53672"
       id="path9339"
       sodipodi:nodetypes="ccsasc" />
    <g
       id="g21486"
       transform="matrix(-0.82706945,0,0,0.82706945,48.350484,3.8822209)"
       style="display:inline;fill:#000000;fill-opacity:1;stroke:#ffffff;stroke-opacity:1">
      <g
         id="g21484"
         transform="translate(34.954933,20.729088)"
         style="fill:#000000;fill-opacity:1;stroke:#ffffff;stroke-opacity:1">
        <path
           style="display:inline;fill:#000000;fill-opacity:1;stroke:#ffffff;stroke-width:0.264583px;stroke-linecap:butt;stroke-linejoin:miter;stroke-opacity:1"
           d="m -12.358435,34.967664 -9.005371,10.5382 c -0.872257,1.554769 0.0479,3.305162 0.0479,3.305162 0.927877,0.814468 2.494871,1.049901 3.640469,0.431109 l 10.0591917,-13.220649 1.7244327,-6.849832 -4.0929292,-4.03111 z"
           id="path21480"
           sodipodi:nodetypes="ccsccccc" />
        <path
           style="display:inline;fill:#000000;fill-opacity:1;stroke:#ffffff;stroke-width:0.264583px;stroke-linecap:butt;stroke-linejoin:miter;stroke-opacity:1"
           d="m -1.5272068,14.63649 3.0585771,4.803977 c 0,0 4.1563476,2.742035 4.4992045,2.946494 0.503515,0.300266 2.5843919,0.598194 3.0487513,-0.291219 C 9.577845,21.140902 8.6318287,19.661453 8.6318287,19.661453 L 3.9763404,16.33125 -1.2696428,8.2678073 c 0,0 -1.682206,-1.0041802 -2.101743,-1.0715562 -1.607097,-0.2580934 -3.459697,-0.3223331 -5.139846,0.013008 -0.439797,0.087779 -1.243633,0.5133425 -1.243633,0.5133425 l -9.2129282,6.4355004 c 0,0 -1.385235,3.319363 -2.87904,6.401631 -0.384072,0.792482 0.121427,2.239851 1.345001,2.861548 1.132095,0.575217 2.596124,-0.399299 3.106297,-1.522007 0.895771,-1.971272 2.551249,-5.250015 2.551249,-5.250015 l 4.964857,-3.610014 -0.1053128,12.101299 8.765384,8.459547 4.7419481,14.632295 c 0.3480696,1.074043 2.2249496,1.41814 3.2516215,0.94839 0.7902036,-0.361555 1.2973739,-1.528618 1.083874,-2.370972 L 4.1322692,32.109764 -1.0800566,24.60882 c 0.019675,-2.969764 -0.2815302,-6.54999 -0.4471502,-9.97233"
           id="path21482"
           sodipodi:nodetypes="ccsscccsaccsssccccsssccc"
           inkscape:transform-center-x="-0.76647101"
           inkscape:transform-center-y="4.5210037" />
      </g>
    </g>
    <g
       id="g21666"
       transform="matrix(-0.82706945,0,0,0.82706945,141.87441,2.4448749)"
       style="display:inline;fill:#000000;fill-opacity:1;stroke:#ffffff;stroke-opacity:1">
      <g
         id="g21664"
         transform="translate(34.954933,20.729088)"
         style="fill:#000000;fill-opacity:1;stroke:#ffffff;stroke-opacity:1">
        <path
           style="display:inline;fill:#000000;fill-opacity:1;stroke:#ffffff;stroke-width:0.264583px;stroke-linecap:butt;stroke-linejoin:miter;stroke-opacity:1"
           d="m -13.17275,34.967664 -7.233038,10.634002 c -0.872257,1.554769 -0.51798,2.794059 0.335306,3.496765 0.989228,0.814659 3.02037,-0.191705 3.691774,-0.945981 l 8.1527837,-11.284188 0.9792693,-4.004663 -2.99212,-5.182726 c -0.219947,0.924124 -2.018826,4.509191 -2.933975,7.286791 z"
           id="path21660"
           sodipodi:nodetypes="ccsccccc" />
        <path
           style="display:inline;fill:#000000;fill-opacity:1;stroke:#ffffff;stroke-width:0.264583px;stroke-linecap:butt;stroke-linejoin:miter;stroke-opacity:1"
           d="m -3.1408322,11.990535 0.1485353,10.137716 c 0,0 0.4438425,0.718633 0.8332678,1.266636 0.529533,0.745164 1.84284302,2.003834 3.222706,1.271612 1.1742995,-0.869695 0.3209402,-2.533112 -0.2193296,-3.303144 l -2.438807,-4.543304 C -2.0397581,11.557242 -2.8031836,8.172068 -3.0110169,7.3336973 -3.1060684,6.9502728 -3.6299795,6.8372 -3.9990051,6.7161618 -5.7923161,6.127966 -8.3515333,6.1675744 -9.6449139,6.2905323 c -0.7542261,0.071702 -2.1147611,0.616095 -2.6010531,0.9543299 -0.940021,0.6538207 -3.158582,8.2071668 -3.158582,8.2071668 l 0.671604,6.522776 c 0.67394,1.788386 1.558167,2.651651 2.843389,2.289411 1.308165,-0.368707 1.189392,-1.54536 1.016676,-2.766392 l -0.488383,-6.586152 1.134158,-3.21941 c -0.361878,4.890831 -0.284906,13.405827 -0.01167,15.988611 l 4.9316033,8.49236 3.454848,13.616163 c 0.2776728,1.094357 1.53302834,2.58318 3.251621,2.167748 1.5194643,-0.367297 1.7194957,-1.788077 1.5580688,-2.64194 L 0.3831683,35.699037 -3.0808674,27.367573 c 0.01967,-2.969764 0.069851,-20.0338757 0.069851,-20.0338757"
           id="path21662"
           sodipodi:nodetypes="ccscccsassccssccccsssccc"
           inkscape:transform-center-x="-0.76647101"
           inkscape:transform-center-y="4.5210037" />
      </g>
    </g>
    <path
       style="display:inline;fill:#000000;fill-opacity:1;stroke:#ffffff;stroke-width:0.218829px;stroke-linecap:butt;stroke-linejoin:miter;stroke-opacity:1"
       d="m 166.3208,47.764116 -0.27732,12.122918 c -0.0188,0.818971 -0.93555,1.756267 -1.78279,1.8224 -0.90317,0.0705 -2.18142,-0.854292 -2.17895,-1.624312 l 0.0397,-12.400239 1.1093,-6.180312 -1.42623,-15.530013 c -0.0638,-0.694364 0.52289,-1.337348 1.18852,-1.545078 1.34661,-0.420256 3.71743,-0.747667 4.53618,-0.495217 0.55343,0.17064 1.27233,0.415645 1.27515,0.944603 0,0 0.0598,0.542622 0.16374,1.447553 0.18726,1.628336 0.0683,15.797752 0.0683,15.797752 l -2.71552,5.639945 z"
       id="path1477"
       sodipodi:nodetypes="csasccsssssccc" />
    <path
       style="display:inline;fill:#000000;fill-opacity:1;stroke:#ffffff;stroke-width:0.218829px;stroke-linecap:butt;stroke-linejoin:miter;stroke-opacity:1"
       d="m 169.03633,42.124171 -0.33848,5.481476 3.72403,9.032763 c 0.38334,0.9298 -0.31076,2.282293 -1.18852,2.773217 -0.79218,0.443051 -2.3613,0.448312 -2.69398,-0.396174 l -2.06011,-5.229495 -0.15847,-6.021842 z"
       id="path1479"
       sodipodi:nodetypes="ccsasccc" />
    <path
       style="display:inline;fill:#000000;fill-opacity:1;stroke:#ffffff;stroke-width:0.218829px;stroke-linecap:butt;stroke-linejoin:miter;stroke-opacity:1"
       d="m 63.864993,130.4451 0.63785,4.36323 c 0.16432,1.12406 -0.3861,2.40715 -1.34699,2.65437 -1.07227,0.27589 -2.64334,-0.71366 -2.74603,-1.86882 l -1.26102,-10.10063 1.00873,-7.34981 -0.41003,-16.2482 c -0.0147,-0.57967 0.46587,-1.015 1.03005,-1.14891 1.56048,-0.37036 3.42694,-0.56005 5.03141,-0.39617 0.53911,0.0551 0.81869,0.62651 1.07702,1.1029 1.90377,3.51094 0.36486,10.22554 0.54729,15.33831 v 0 l -0.092,9.12733 3.19938,8.89098 c 0.41006,1.13951 0.0371,3.36119 -1.13484,3.66653 -1.79779,0.4684 -3.13597,-1.48108 -3.51112,-2.31544 l -3.09649,-8.79007 -0.12467,-2.28817 0.0178,-3.27172"
       id="path7499"
       sodipodi:nodetypes="csasccsssscccsssccc" />
    <path
       style="display:inline;fill:#000000;fill-opacity:1;stroke:#ffffff;stroke-width:0.218829px;stroke-linecap:butt;stroke-linejoin:miter;stroke-opacity:1"
       d="m 63.300303,104.07127 0.34284,6.33062 -2.69556,5.51957 c -0.33052,0.67679 -1.64704,0.6995 -2.24644,0.24339 -0.59084,-0.44962 -0.78022,-1.3737 -0.35903,-2.19827 l 1.98113,-3.87853 -0.46918,-5.88444"
       id="path10574"
       sodipodi:nodetypes="ccsascc" />
    <path
       style="display:inline;fill:#000000;fill-opacity:1;stroke:#ffffff;stroke-width:0.218829px;stroke-linecap:butt;stroke-linejoin:miter;stroke-opacity:1"
       d="m 66.995893,101.60418 2.5371,5.12438 0.0397,7.32921 c 0.005,0.91815 -0.6076,1.86915 -1.51143,1.89484 -0.25159,0.007 -0.72434,-0.58505 -0.69595,-0.93726 0.0283,-0.35221 -0.36934,-13.41117 -0.36934,-13.41117"
       id="path11749-0"
       sodipodi:nodetypes="ccsssc" />
    <path
       style="display:inline;fill:#000000;fill-opacity:1;stroke:#ffffff;stroke-width:0.218829px;stroke-linecap:butt;stroke-linejoin:miter;stroke-opacity:1"
       d="m 168.99045,26.343909 1.36311,6.978285 -1.92454,5.833337 c -0.23598,0.715269 -1.53735,0.915768 -2.19288,0.544879 -0.64621,-0.365606 -0.9588,-1.255597 -0.65296,-2.129542 l 1.43855,-4.110764 -1.26047,-5.766983"
       id="path13953"
       sodipodi:nodetypes="ccsascc" />
    <path
       style="display:inline;fill:#000000;stroke:#ffffff;stroke-width:0.218829px;stroke-linecap:butt;stroke-linejoin:miter;stroke-opacity:1"
       d="m 109.53152,119.84111 -2.44036,5.94341 -0.63386,8.95353 c -0.0806,1.13775 -1.40159,2.52601 -2.53553,2.33742 -1.06669,-0.1774 -1.53595,-1.82888 -1.54506,-2.85245 l 1.30139,-10.11802 2.11928,-5.63377 0.53229,-14.77996 c 0.0277,-0.76651 0.20091,-1.4518 0.96358,-1.53347 1.06671,-0.11424 3.89997,-0.34084 4.99576,-0.23373 0.67922,0.0664 1.39391,0.79459 1.41826,1.47663 l 0.71311,19.96716 5.38797,11.60788 c 0.46717,1.00647 0.20173,2.68676 -0.83196,3.09018 -1.22799,0.47923 -2.48432,-0.33527 -3.01093,-1.347 l -5.9426,-12.63795 -0.49134,-4.23986 -0.22177,-2.21777"
       id="path28326"
       sodipodi:nodetypes="ccsacccsssscsssccc" />
    <path
       style="display:inline;fill:#000000;stroke:#ffffff;stroke-width:0.218829px;stroke-linecap:butt;stroke-linejoin:miter;stroke-opacity:1"
       d="m 113.78651,103.08376 5.22949,6.14069 0.51503,6.21993 c 0.0702,0.84731 -0.76351,1.66938 -1.54508,1.8224 -0.6724,0.13164 -1.72433,-0.3243 -1.82239,-0.95082 l -0.55464,-5.03141 -1.74318,-2.25819 z"
       id="path33723"
       sodipodi:nodetypes="ccsasccc" />
    <path
       style="display:inline;fill:#000000;stroke:#ffffff;stroke-width:0.218829px;stroke-linecap:butt;stroke-linejoin:miter;stroke-opacity:1"
       d="m 109.70591,106.1343 -1.03004,6.49725 -4.19945,4.08059 c -0.72078,0.70038 -2.2903,0.85904 -3.01091,0.15847 -0.38832,-0.37754 -0.40817,-1.12055 0.0397,-1.62432 l 3.80327,-3.92212 0.91119,-5.78414"
       id="path34234"
       sodipodi:nodetypes="ccsascc" />
    <path
       style="display:inline;fill:#000000;stroke:#ffffff;stroke-width:0.218829px;stroke-linecap:butt;stroke-linejoin:miter;stroke-opacity:1"
       d="m 20.819556,187.73248 -4.47814,3.64886 -2.42807,10.58104 c -0.2777,1.21018 -1.5487,2.28438 -2.6633,2.09783 -1.03581,-0.17333 -1.9794099,-1.5906 -1.7054199,-2.64916 l 3.2108799,-12.40543 4.91256,-4.75408 v -13.31145 c 0,0 0.35697,-1.70614 0.7524,-2.30969 0.22509,-0.34355 0.76957,-0.32275 1.17868,-0.35907 1.12702,-0.10011 3.0543,-0.092 4.2676,-4.3e-4 0.36812,0.0278 0.43795,-0.0289 1.01168,0.45062 l 0.0792,15.92619 1.74317,6.33878 7.83055,9.86285 c 0.71547,0.90116 0.45854,2.50029 -0.38249,3.13165 -0.9258,0.69501 -2.69271,0.3819 -3.42784,-0.55796 l -7.74426,-9.90103 -2.85833,-7.2643"
       id="path36980"
       sodipodi:nodetypes="ccsascccssscccsascc" />
    <path
       style="display:inline;fill:#000000;stroke:#ffffff;stroke-width:0.218829px;stroke-linecap:butt;stroke-linejoin:miter;stroke-opacity:1"
       d="m 24.878426,168.72151 6.02184,4.19945 3.4071,6.73496 c 0.38926,0.76947 -0.37445,2.01337 -1.18852,2.2978 -0.85351,0.29821 -2.10737,-0.44606 -2.47531,-1.10885 l -2.39431,-4.98471 -3.3708,-2.06761 z"
       id="path36982"
       sodipodi:nodetypes="ccsasccc" />
    <path
       style="display:inline;fill:#000000;stroke:#ffffff;stroke-width:0.218829px;stroke-linecap:butt;stroke-linejoin:miter;stroke-opacity:1"
       d="m 21.185846,171.71841 c 0,0 -0.94074,5.1481 -1.13683,5.20412 -0.1961,0.056 -5.56812,4.8261 -5.56812,4.8261 -0.96297,0.40845 -2.27186,0.93204 -3.01581,0.25079 -0.66587,-0.60974 -0.70436,-2.16645 -0.0135,-2.70856 l 4.76666,-3.74009 1.44981,-4.61069"
       id="path36984"
       sodipodi:nodetypes="cssascc" />
    <path
       style="display:inline;fill:#000000;stroke:#ffffff;stroke-width:0.218829px;stroke-linecap:butt;stroke-linejoin:miter;stroke-opacity:1"
       d="m 68.0805,186.88921 1.48244,3.41482 8.89206,10.24594 c 0.69267,0.79815 2.36495,1.08526 3.21808,0.42009 0.85654,-0.66782 1.09966,-2.41268 0.3789,-3.23624 l -7.98543,-9.12438 -0.42956,-3.91657 0.11262,-15.57519 c 0.004,-0.58717 -0.86629,-0.89318 -1.44111,-1.01305 -1.78426,-0.37211 -3.2344,-0.39012 -5.15453,0 -0.83188,0.169 -1.69087,0.96517 -1.62479,1.96095 l 0.24914,14.02748 -3.28004,3.96173 -3.72404,13.54915 c -0.25479,0.92701 0.12775,2.36213 1.03006,2.69397 1.09557,0.40294 2.73926,-0.6296 3.072,-1.6812 l 3.50448,-11.07559 2.30932,-2.76045"
       id="path36986"
       sodipodi:nodetypes="ccsasccssssccsascc" />
    <path
       style="display:inline;fill:#000000;stroke:#ffffff;stroke-width:0.218829px;stroke-linecap:butt;stroke-linejoin:miter;stroke-opacity:1"
       d="m 68.44088,171.97015 -0.51659,6.78452 -3.57352,4.02238 c -0.67026,0.75445 -1.88688,1.23515 -2.62138,0.70648 -0.77321,-0.55653 -0.98503,-1.78834 -0.17086,-2.8529 l 2.74931,-3.59478 1.22133,-6.97026"
       id="path36988"
       sodipodi:nodetypes="ccsascc" />
    <path
       style="display:inline;fill:#000000;stroke:#ffffff;stroke-width:0.218829px;stroke-linecap:butt;stroke-linejoin:miter;stroke-opacity:1"
       d="m 73.90808,175.61494 0.79234,1.10929 0.40813,4.44334 c 0.0857,0.93285 1.07075,2.04784 1.96892,1.89545 0.83514,-0.14171 1.63872,-1.18383 1.53644,-2.3164 l -0.50639,-5.60708 -4.35791,-6.02185 z"
       id="path36990"
       sodipodi:nodetypes="ccsssccc" />
    <path
       style="display:inline;fill:#000000;stroke:#ffffff;stroke-width:0.218829px;stroke-linecap:butt;stroke-linejoin:miter;stroke-opacity:1"
       d="m 119.24171,166.77735 3.24414,5.35854 -0.89937,7.70355 c -0.0909,0.77864 -1.08874,0.90949 -1.7179,0.82345 -0.6489,-0.0888 -1.56902,-0.703 -1.47872,-1.29376 l 0.97673,-6.39091 -0.64471,-1.17461 z"
       id="path36996"
       sodipodi:nodetypes="ccsasccc" />
    <path
       style="display:inline;fill:#000000;stroke:#ffffff;stroke-width:0.218575;stroke-linecap:butt;stroke-linejoin:miter;stroke-miterlimit:4;stroke-dasharray:none;stroke-opacity:1"
       d="m 163.133,196.04996 0.0621,5.83698 c 0.0108,0.95261 -1.31879,2.15002 -2.37763,2.10989 -0.93415,-0.0354 -1.93216,-1.05473 -1.95074,-2.01486 0.0108,-5.07071 -0.44878,-10.07284 -0.13844,-15.09841 l 0.13775,-3.58075 -0.85707,-16.14697 c -0.0312,-0.5856 0.3676,-1.13149 0.85964,-1.28014 1.6567,-0.5005 4.12316,-0.47219 5.37732,-0.31162 0.6409,0.082 1.51757,0.70911 1.54044,1.17657 l 0.32456,15.82261 c 0,0 -0.95493,4.62607 -1.3112,5.4802 l 3.78436,9.03372 c 0.5084,1.21362 0.43324,3.24614 -0.71917,3.88088 -1.05988,0.58377 -2.45179,0.67825 -3.37023,-1.34869 l -4.44406,-12.05349 0.90208,-4.85938"
       id="path37000"
       sodipodi:nodetypes="csacccssssccsascc" />
    <path
       style="display:inline;fill:#000000;stroke:#ffffff;stroke-width:0.218829px;stroke-linecap:butt;stroke-linejoin:miter;stroke-opacity:1"
       d="m 163.88783,169.13786 -0.6161,4.51304 c -0.0304,0.16532 -2.80542,4.41394 -2.80542,4.41394 -0.49877,1.3029 -2.114,1.82172 -3.00469,1.21115 -0.71439,-0.48971 -0.68702,-1.56137 0.037,-2.59811 l 2.26937,-3.24966 0.67093,-4.82256"
       id="path37004"
       sodipodi:nodetypes="ccsascc" />
    <path
       style="display:inline;fill:#000000;stroke:#ffffff;stroke-width:0.218829px;stroke-linecap:butt;stroke-linejoin:miter;stroke-opacity:1"
       d="m 69.563733,240.67203 c -0.26325,-0.55632 -0.58206,-0.74228 -1.0085,-0.84042 -1.87871,-0.43237 -3.35669,-0.27993 -4.87438,0.11213 -0.50013,0.12912 -1.20278,0.49261 -1.17658,1.00848 l 0.92079,16.23656 -2.35347,5.18793 1.18423,13.76574 c 0.0865,1.00547 1.32098,2.23856 2.37749,2.12404 0.99673,-0.10808 1.84674,-1.52503 1.76151,-2.4379 l -1.03315,-11.06471 5.05012,-8.08496 z"
       id="path37006"
       sodipodi:nodetypes="csssccsasccc" />
    <path
       style="display:inline;fill:#000000;stroke:#ffffff;stroke-width:0.218829px;stroke-linecap:butt;stroke-linejoin:miter;stroke-opacity:1"
       d="m 70.168333,257.1171 0.82582,8.87322 3.19817,9.0142 c 0.41521,1.1703 0.12791,2.99846 -0.97916,3.44701 -1.11099,0.45015 -2.67642,-0.63396 -3.1135,-1.7996 l -3.44936,-9.1988 -0.22411,-4.25809 z"
       id="path37008"
       sodipodi:nodetypes="ccsasccc" />
    <path
       style="display:inline;fill:#000000;stroke:#ffffff;stroke-width:0.218829px;stroke-linecap:butt;stroke-linejoin:miter;stroke-opacity:1"
       d="m 63.059053,254.094 -0.83257,1.6764 c -0.3244,0.65319 -1.62644,1.0924 -2.35549,0.71571 -0.66494,-0.34355 -1.00273,-1.5428 -0.71058,-2.12991 l 2.17805,-4.37717 1.09556,-8.99759"
       id="path37010"
       sodipodi:nodetypes="csascc" />
    <path
       style="display:inline;fill:#000000;stroke:#ffffff;stroke-width:0.218829px;stroke-linecap:butt;stroke-linejoin:miter;stroke-opacity:1"
       d="m 69.563733,240.67203 3.05147,6.15567 0.19345,6.61124 c 0.0262,0.89333 -0.65257,1.83767 -1.45549,1.94732 -0.85477,0.11671 -1.94427,-0.4421 -2.04859,-1.5816 l -0.11199,-5.5993 -2.52937,-4.3304"
       id="path37012"
       sodipodi:nodetypes="ccsascc" />
    <path
       style="display:inline;fill:#000000;stroke:#ffffff;stroke-width:0.218829px;stroke-linecap:butt;stroke-linejoin:miter;stroke-opacity:1"
       d="m 115.18009,242.74504 4.96837,7.17151 0.38769,4.87623 c 0.0796,1.00185 -0.60268,2.50662 -1.61939,2.59984 -0.96099,0.0881 -1.85075,-1.17711 -1.95194,-2.13808 l -0.56027,-5.32082 -2.5131,-3.15471 1.40071,1.96096 0.22409,9.52467 -6.55521,7.45165 -0.64132,9.35657 c -0.0912,1.33075 -1.4685,3.00262 -2.76557,2.80246 -1.08433,-0.16734 -1.50128,-1.8212 -1.49814,-2.93079 l 0.40941,-10.48714 3.71126,-4.79206 -0.0233,-16.29729 c 0,0 0.40137,-0.5607 0.70006,-0.70221 1.61273,-0.76401 3.69731,-0.72476 5.32799,-0.52336 0.38588,0.0476 0.76393,0.29267 0.99877,0.60256 z"
       id="path37014"
       sodipodi:nodetypes="scsascccccsascccasss" />
    <path
       style="display:inline;fill:#000000;stroke:#ffffff;stroke-width:0.218829px;stroke-linecap:butt;stroke-linejoin:miter;stroke-opacity:1"
       d="m 115.28271,258.55313 0.009,4.92206 6.15924,11.03334 c 0.51496,0.92246 0.55176,2.95931 -0.46543,3.63678 -1.03544,0.68961 -3.14818,-0.21006 -3.59859,-0.98974 l -5.96112,-10.31873 -0.40569,-3.35246"
       id="path37016"
       sodipodi:nodetypes="ccsascc" />
    <path
       style="display:inline;fill:#000000;stroke:#ffffff;stroke-width:0.218829px;stroke-linecap:butt;stroke-linejoin:miter;stroke-opacity:1"
       d="m 107.89975,254.76668 -2.35747,2.77067 c -0.65365,0.76822 -2.20136,0.94223 -2.86062,0.24836 -0.60452,-0.63624 -0.23371,-1.90886 0.36148,-2.60796 l 3.62077,-4.2527 1.48937,-7.557 z"
       id="path37018"
       sodipodi:nodetypes="csasccc" />
    <path
       style="display:inline;fill:#000000;stroke:#ffffff;stroke-width:0.218829px;stroke-linecap:butt;stroke-linejoin:miter;stroke-opacity:1"
       d="m 75.17083,27.237075 5.12911,6.178237 1.36551,5.275101 c 0.21774,0.84114 -0.32681,1.906537 -1.08799,2.059412 -1.01946,0.204749 -2.17483,-1.21185 -2.40913,-1.981698 l -1.40436,-4.614536 -1.12685,-1.515415 v 0 l 0.50514,9.947348 -7.17794,6.56566 -3.27731,10.914391 c -0.35984,1.198361 -1.67976,2.10623 -2.73722,1.819604 -0.823386,-0.22318 -1.324011,-1.392398 -1.124084,-2.29922 l 3.121874,-12.195523 4.2554,-4.680056 -0.94866,-14.3076 c -0.0365,-0.549836 0.28772,-1.280934 0.81599,-1.437702 1.38884,-0.412144 2.72216,-0.539233 4.07997,-0.388569 0.70428,0.07815 1.61202,0.199875 2.02055,0.660566 z"
       id="path63493-6"
       sodipodi:nodetypes="scsascccccsasccssas" />
    <path
       style="display:inline;fill:#000000;stroke:#ffffff;stroke-width:0.218829px;stroke-linecap:butt;stroke-linejoin:miter;stroke-opacity:1"
       d="m 76.14226,42.585524 0.34856,4.79158 7.45337,8.044507 c 0.68866,0.743274 1.36832,2.470319 0.59114,3.25064 -0.91201,0.915706 -2.94673,0.179051 -3.81739,-0.678278 L 72.95209,49.583659 72.412,46.238067 Z"
       id="path63495-4"
       sodipodi:nodetypes="ccsasccc" />
    <path
       style="display:inline;fill:#000000;stroke:#ffffff;stroke-width:0.218829px;stroke-linecap:butt;stroke-linejoin:miter;stroke-opacity:1"
       d="m 68.75946,37.534136 -2.2537,3.652542 c -0.57711,0.93532 -1.74565,1.085952 -2.44798,0.621708 -0.63419,-0.419204 -0.78533,-1.585071 -0.34971,-2.253695 l 2.83655,-3.924538 1.7258,-7.388324 z"
       id="path63497-4"
       sodipodi:nodetypes="csasccc" />
    <path
       style="display:inline;fill:#000000;stroke:#ffffff;stroke-width:0.218829px;stroke-linecap:butt;stroke-linejoin:miter;stroke-opacity:1"
       d="m 117.59403,165.64994 c 0.57602,0.0364 1.62491,0.44399 1.63543,1.04734 l -0.34113,16.98283 1.38632,5.95475 6.13462,7.9281 c 0.82574,1.06716 0.88244,3.28867 -0.23771,4.04098 -1.02113,0.68581 -2.84461,-0.32498 -3.49208,-1.19298 l -7.68002,-10.29606 -0.26461,-5.02653 0.10619,1.93637 -1.30672,3.24192 -1.16195,11.09957 c -0.1426,1.36215 -1.34451,2.72678 -2.53639,2.56606 -1.1725,-0.15811 -1.81236,-2.10647 -1.73741,-3.09504 l 0.87909,-11.59394 2.72638,-5.68735 c 0.0734,-5.41026 -0.89806,-11.30418 0.33001,-16.8045 0.20294,-0.90894 1.25546,-0.94824 1.78121,-1.01561 2.04323,-0.26176 1.93467,-0.20258 3.7788,-0.0859 z"
       id="path36992"
       sodipodi:nodetypes="ssccsasccccsasccssss" />
    <path
       style="display:inline;fill:#000000;stroke:#ffffff;stroke-width:0.218829px;stroke-linecap:butt;stroke-linejoin:miter;stroke-opacity:1"
       d="m 114.89775,169.21259 -0.49873,6.66251 -3.13323,5.111 c -0.53905,0.87933 -1.57453,0.63821 -2.13277,0.19332 -0.76364,-0.60856 -0.88996,-2.06085 -0.39329,-2.90287 l 2.56382,-4.34632 0.41697,-5.08546"
       id="path36994"
       sodipodi:nodetypes="ccsascc" />
    <path
       style="display:inline;fill:#000000;fill-opacity:1;stroke:#ffffff;stroke-width:0.218829px;stroke-linecap:butt;stroke-linejoin:miter;stroke-opacity:1"
       d="m 22.572043,101.20077 c 0.84242,1.69465 -0.16582,-4.478956 2.22334,5.81913 l -0.52061,6.45518 c -0.0738,0.91519 -1.05583,1.46575 -1.95966,1.49143 -0.25159,0.007 0.59794,-0.002 0.62632,-0.35456 0.0283,-0.35221 -0.36939,-13.41118 -0.36939,-13.41118"
       id="path964"
       sodipodi:nodetypes="ccsssc" />
    <path
       style="display:inline;fill:#000000;stroke:#ffffff;stroke-width:0.218829px;stroke-linecap:butt;stroke-linejoin:miter;stroke-opacity:1"
       d="m 24.566583,240.31345 c -0.26325,-0.55631 -0.58206,-0.74226 -1.0085,-0.84042 -1.87872,-0.43237 -3.35669,-0.27991 -4.87438,0.11212 -0.50014,0.12912 -1.20279,0.49261 -1.17658,1.0085 l 0.92079,16.23657 -0.20199,5.09827 1.18423,13.76575 c 0.0865,1.00545 1.32097,2.23855 2.37749,2.12404 0.99673,-0.10807 1.84674,-1.52504 1.76151,-2.4379 l -1.03316,-11.06471 2.89864,-7.99531 z"
       id="path966"
       sodipodi:nodetypes="csssccsasccc" />
    <path
       style="display:inline;fill:#000000;stroke:#ffffff;stroke-width:0.218829px;stroke-linecap:butt;stroke-linejoin:miter;stroke-opacity:1"
       d="m 24.566583,240.31345 0.85785,6.81675 -1.99103,6.30726 c -0.26901,0.85227 -1.2205,1.52092 -2.01485,1.3605 -0.84561,-0.1708 -1.69079,-1.05679 -1.41466,-2.16724 l 1.73526,-5.3248 -0.96495,-4.92128"
       id="path972"
       sodipodi:nodetypes="ccsascc" />
    <path
       style="display:inline;fill:#000000;fill-opacity:1;stroke:#ffffff;stroke-width:0.218829px;stroke-linecap:butt;stroke-linejoin:miter;stroke-opacity:1"
       d="m 16.271553,117.78486 -0.41003,-16.24821 c -0.0147,-0.57966 0.46588,-1.015 1.03005,-1.1489 1.56048,-0.37037 3.42695,-0.560045 5.03141,-0.396165 0.53911,0.05509 1.361,0.493785 1.36838,1.035655 0.0212,1.56117 0.0735,10.29278 0.25593,15.40555 v 0 m 0,0 -2.44503,6.33764 1.27576,12.97867 c -0.0188,0.81896 -0.93557,1.75627 -1.78279,1.82241 -0.90318,0.0706 -2.18142,-0.8543 -2.17896,-1.62432 l -1.73522,-12.6221 -0.40945,-5.54023"
       id="path960"
       sodipodi:nodetypes="csssscccccsccc" />
    <path
       style="display:inline;fill:#000000;fill-opacity:1;stroke:#ffffff;stroke-width:0.218829px;stroke-linecap:butt;stroke-linejoin:miter;stroke-opacity:1"
       d="m 20.428543,103.33236 0.34283,6.33062 -1.30605,5.47474 c -0.17478,0.73264 -1.64705,0.69951 -2.24644,0.24339 -0.59085,-0.44962 -0.50025,-1.28319 -0.35903,-2.19827 l 0.59163,-3.8337 -0.46918,-5.88444"
       id="path962"
       sodipodi:nodetypes="ccsascc" />
  </g>
  <g
     inkscape:groupmode="layer"
     id="layer2"
     inkscape:label="Guia Casco"
     style="display:inline" />
  <g
     inkscape:groupmode="layer"
     id="layer3"
     inkscape:label="Casco"
     style="opacity:1" />
  <g
     inkscape:groupmode="layer"
     id="layer4"
     inkscape:label="Visera"
     style="display:inline;opacity:1" />
  <g
     inkscape:groupmode="layer"
     id="layer5"
     inkscape:label="Escoba"
     style="display:inline;opacity:1" />
  <g
     inkscape:groupmode="layer"
     id="layer6"
     inkscape:label="Pelillos"
     style="opacity:1">
    <g
       id="g37702"
       transform="matrix(-1,0,0,1,287.30147,46.879399)">
      <path
         style="opacity:1;fill:#000000;stroke:#ffffee;stroke-width:0.083;stroke-linecap:butt;stroke-linejoin:miter;stroke-miterlimit:4;stroke-dasharray:none;stroke-opacity:1"
         d="m 117.86056,-30.737931 c -0.25646,0.719404 -0.33889,1.496665 -0.38184,2.259205 -0.0544,0.965127 0.45528,1.975439 0.1591,2.895603 -0.17104,0.531384 -1.05005,1.304612 -1.05005,1.304612 0,0 0.26179,0.540246 0.51137,0.668216 0.71238,0.365263 0.76851,0.382733 1.84875,0.514576 0.65861,0.08038 1.16473,-0.260694 1.56849,-0.658896 0.3499,-0.345084 0.38601,-0.875943 0.51105,-1.351211 0.24241,-0.921373 0.37251,-2.843046 0.37251,-2.843046 0,0 0.21124,-1.261032 1.2728,-1.209154 1.06156,0.05188 1.15852,1.259943 1.15852,1.259943 l -0.084,2.124041 c -0.0537,3.042358 2.57741,4.041115 2.57741,4.041115 -0.10662,-1.944837 0.13826,-3.142721 0.50911,-4.072935 l -0.73185,-2.163747 c 0.59222,-1.081157 1.08569,-1.224216 1.55917,-1.177332 0,0 -0.11277,-0.584488 -0.22274,-0.859134 -0.39712,-0.991769 -0.71166,-2.149724 -1.55917,-2.800144 -1.18463,-0.90915 -2.86217,-1.273022 -4.34454,-1.092791 -1.00707,0.122443 -1.95995,0.721174 -2.68764,1.428031 -0.47679,0.463139 -0.76321,1.10694 -0.98641,1.733048 z"
         id="path22502"
         sodipodi:nodetypes="aaacsscsczccccccaaaaaa" />
      <path
         style="display:inline;opacity:1;fill:#000000;stroke:#ffffff;stroke-width:0.12;stroke-linecap:butt;stroke-linejoin:miter;stroke-miterlimit:4;stroke-dasharray:none;stroke-opacity:1"
         d="m 124.14375,-32.096249 c 0,0 -0.97685,-0.471518 -1.485,-0.427501 -0.43609,0.03777 -0.80271,0.218434 -1.02375,0.596249 -0.18573,0.317467 -0.15263,0.806973 0.0112,1.13625 0.15789,0.317231 0.66949,0.565643 1.02375,0.57375 l 4.91625,0.1125 c 0,0 0.31975,-2.095375 0.09,-3.105 -0.029,-0.127559 -0.18,-0.348749 -0.18,-0.348749 0,0 -0.0464,0.273812 -0.135,0.37125 -0.28771,0.316509 -1.15875,0.551248 -1.15875,0.551248 z"
         id="path26043"
         sodipodi:nodetypes="csssscscscc" />
      <path
         style="display:inline;opacity:1;fill:#000000;stroke:#ffffff;stroke-width:0.083;stroke-linecap:butt;stroke-linejoin:miter;stroke-miterlimit:4;stroke-dasharray:none;stroke-opacity:1"
         d="m 117.86056,-30.737931 -2.37931,-0.593318 c 0,0 1.43589,-2.815992 2.64375,-3.757501 1.02329,-0.797641 2.34134,-1.280829 3.63375,-1.395 1.24396,-0.109891 2.52091,0.240862 3.67875,0.70875 0.8467,0.342157 2.295,1.496251 2.295,1.496251 l -1.755,1.49625 c -1.69322,-1.227703 -6.37316,-2.442389 -8.11694,2.044568 z"
         id="path27412"
         sodipodi:nodetypes="ccaaaccc" />
      <path
         style="fill:#0000ff;stroke:#fffff7;stroke-width:0.083;stroke-linecap:butt;stroke-linejoin:miter;stroke-miterlimit:4;stroke-dasharray:none;stroke-opacity:1"
         d="m 127.7325,-34.278749 c 0,0 0.61438,-1.144287 0.70936,-1.77403 0.13804,-0.915281 0.12464,-1.822922 -0.22469,-2.767792 -0.15009,-0.405976 -0.82557,-0.518444 -1.2256,-0.796633 -0.24373,-0.169491 -0.4803,-0.450843 -0.71492,-0.531089 -0.63087,-0.215778 -1.1328,-0.356317 -1.71583,-0.459597 -0.52839,-0.0936 -1.0672,-0.124219 -1.60348,-0.142984 -0.53767,-0.01881 -1.08201,-0.05156 -1.61369,0.03064 -0.43859,0.0678 -1.27666,0.377888 -1.27666,0.377888 -0.10859,0.11196 0.38129,0.394913 0.57194,0.59237 -0.28597,-0.129368 -0.78741,-0.41416 -0.85791,-0.388104 0,0 -0.80023,0.586185 -1.24602,0.796634 -0.45953,0.216933 -0.91939,0.255316 -1.36843,0.493194 -0.41161,0.218047 -0.78391,0.597489 -1.18488,0.834528 -0.41483,0.245229 -1.14718,0.765845 -1.5265,1.06305 -0.66568,0.521564 -0.91155,0.79807 -1.33321,1.531115 -0.43844,0.762219 -0.34676,0.643673 -0.53109,1.368576 -0.024,0.321339 -0.18491,0.955646 -0.0613,0.93962 l 0.55152,-0.285972 c -0.17708,0.313291 -0.44841,0.93962 -0.44841,0.93962 -0.0324,0.142887 0.0765,0.272601 0.16243,0.40853 0,0 -0.56244,3.365469 0.0593,5.280731 0.11334,0.349108 0.32767,0.665555 0.53302,0.96978 0.24499,0.397 0.58264,0.789602 0.67408,1.103031 0.1582,0.608549 0.10217,1.309303 -0.16341,1.879238 -0.14235,0.305482 -0.59676,0.350915 -0.53303,0.681855 0.0392,0.203675 0.51251,0.225045 0.70423,0.145899 0.58681,-0.242241 0.85229,-0.315892 1.14485,-0.641002 0.40117,-0.445805 0.56711,-1.070887 0.70908,-1.65357 0.1296,-0.531897 0.16225,-1.092216 0.11962,-1.638011 -0.0397,-0.508795 -0.2119,-0.999065 -0.34725,-1.491134 -0.16676,-0.60626 -0.43597,-1.183634 -0.57194,-1.797534 -0.10391,-0.469172 -0.31116,-0.966485 -0.18384,-1.429853 0.0776,-0.282262 0.54131,-0.691494 0.54131,-0.691494 1.13025,-2.193715 2.37281,-3.833207 3.77694,-4.466518 0.81231,-0.366379 1.76011,-0.638721 2.59456,-0.697907 0.62815,-0.04455 1.40293,0.0387 1.93552,0.176391 1.97827,0.485752 3.17986,1.401048 3.94433,2.040534 z"
         id="path28151"
         sodipodi:nodetypes="casasaaacccssssscccccsccsssaaaaaacsscc" />
    </g>
    <g
       id="g37712"
       transform="matrix(-1,0,0,1,240.84587,47.330242)">
      <path
         style="opacity:1;fill:#000000;stroke:#ffffee;stroke-width:0.083;stroke-linecap:butt;stroke-linejoin:miter;stroke-miterlimit:4;stroke-dasharray:none;stroke-opacity:1"
         d="m 117.86056,-30.737931 c -0.25646,0.719404 -0.33889,1.496665 -0.38184,2.259205 -0.0544,0.965127 0.45528,1.975439 0.1591,2.895603 -0.17104,0.531384 -1.05005,1.304612 -1.05005,1.304612 0,0 0.26179,0.540246 0.51137,0.668216 0.71238,0.365263 0.76851,0.382733 1.84875,0.514576 0.65861,0.08038 1.16473,-0.260694 1.56849,-0.658896 0.3499,-0.345084 0.38601,-0.875943 0.51105,-1.351211 0.24241,-0.921373 0.37251,-2.843046 0.37251,-2.843046 0,0 0.21124,-1.261032 1.2728,-1.209154 1.06156,0.05188 1.15852,1.259943 1.15852,1.259943 l -0.084,2.124041 c -0.0537,3.042358 2.57741,4.041115 2.57741,4.041115 -0.10662,-1.944837 0.13826,-3.142721 0.50911,-4.072935 l -0.73185,-2.163747 c 0.59222,-1.081157 1.08569,-1.224216 1.55917,-1.177332 0,0 -0.11277,-0.584488 -0.22274,-0.859134 -0.39712,-0.991769 -0.71166,-2.149724 -1.55917,-2.800144 -1.18463,-0.90915 -2.86217,-1.273022 -4.34454,-1.092791 -1.00707,0.122443 -1.95995,0.721174 -2.68764,1.428031 -0.47679,0.463139 -0.76321,1.10694 -0.98641,1.733048 z"
         id="path37704"
         sodipodi:nodetypes="aaacsscsczccccccaaaaaa" />
      <path
         style="display:inline;opacity:1;fill:#000000;stroke:#ffffff;stroke-width:0.12;stroke-linecap:butt;stroke-linejoin:miter;stroke-miterlimit:4;stroke-dasharray:none;stroke-opacity:1"
         d="m 124.14375,-32.096249 c 0,0 -0.97685,-0.471518 -1.485,-0.427501 -0.43609,0.03777 -0.80271,0.218434 -1.02375,0.596249 -0.18573,0.317467 -0.15263,0.806973 0.0112,1.13625 0.15789,0.317231 0.66949,0.565643 1.02375,0.57375 l 4.91625,0.1125 c 0,0 0.31975,-2.095375 0.09,-3.105 -0.029,-0.127559 -0.18,-0.348749 -0.18,-0.348749 0,0 -0.0464,0.273812 -0.135,0.37125 -0.28771,0.316509 -1.15875,0.551248 -1.15875,0.551248 z"
         id="path37706"
         sodipodi:nodetypes="csssscscscc" />
      <path
         style="display:inline;opacity:1;fill:#000000;stroke:#ffffff;stroke-width:0.083;stroke-linecap:butt;stroke-linejoin:miter;stroke-miterlimit:4;stroke-dasharray:none;stroke-opacity:1"
         d="m 117.86056,-30.737931 -2.37931,-0.593318 c 0,0 1.43589,-2.815992 2.64375,-3.757501 1.02329,-0.797641 2.34134,-1.280829 3.63375,-1.395 1.24396,-0.109891 2.52091,0.240862 3.67875,0.70875 0.8467,0.342157 2.295,1.496251 2.295,1.496251 l -1.755,1.49625 c -1.69322,-1.227703 -6.37316,-2.442389 -8.11694,2.044568 z"
         id="path37708"
         sodipodi:nodetypes="ccaaaccc" />
      <path
         style="fill:#0000ff;stroke:#fffff7;stroke-width:0.083;stroke-linecap:butt;stroke-linejoin:miter;stroke-miterlimit:4;stroke-dasharray:none;stroke-opacity:1"
         d="m 127.7325,-34.278749 c 0,0 0.61438,-1.144287 0.70936,-1.77403 0.13804,-0.915281 0.12464,-1.822922 -0.22469,-2.767792 -0.15009,-0.405976 -0.82557,-0.518444 -1.2256,-0.796633 -0.24373,-0.169491 -0.4803,-0.450843 -0.71492,-0.531089 -0.63087,-0.215778 -1.1328,-0.356317 -1.71583,-0.459597 -0.52839,-0.0936 -1.0672,-0.124219 -1.60348,-0.142984 -0.53767,-0.01881 -1.08201,-0.05156 -1.61369,0.03064 -0.43859,0.0678 -1.27666,0.377888 -1.27666,0.377888 -0.10859,0.11196 0.38129,0.394913 0.57194,0.59237 -0.28597,-0.129368 -0.78741,-0.41416 -0.85791,-0.388104 0,0 -0.80023,0.586185 -1.24602,0.796634 -0.45953,0.216933 -0.91939,0.255316 -1.36843,0.493194 -0.41161,0.218047 -0.78391,0.597489 -1.18488,0.834528 -0.41483,0.245229 -1.14718,0.765845 -1.5265,1.06305 -0.66568,0.521564 -0.91155,0.79807 -1.33321,1.531115 -0.43844,0.762219 -0.34676,0.643673 -0.53109,1.368576 -0.024,0.321339 -0.18491,0.955646 -0.0613,0.93962 l 0.55152,-0.285972 c -0.17708,0.313291 -0.44841,0.93962 -0.44841,0.93962 -0.0324,0.142887 0.0765,0.272601 0.16243,0.40853 0,0 -0.56244,3.365469 0.0593,5.280731 0.11334,0.349108 0.32767,0.665555 0.53302,0.96978 0.24499,0.397 0.58264,0.789602 0.67408,1.103031 0.1582,0.608549 0.10217,1.309303 -0.16341,1.879238 -0.14235,0.305482 -0.59676,0.350915 -0.53303,0.681855 0.0392,0.203675 0.51251,0.225045 0.70423,0.145899 0.58681,-0.242241 0.85229,-0.315892 1.14485,-0.641002 0.40117,-0.445805 0.56711,-1.070887 0.70908,-1.65357 0.1296,-0.531897 0.16225,-1.092216 0.11962,-1.638011 -0.0397,-0.508795 -0.2119,-0.999065 -0.34725,-1.491134 -0.16676,-0.60626 -0.43597,-1.183634 -0.57194,-1.797534 -0.10391,-0.469172 -0.31116,-0.966485 -0.18384,-1.429853 0.0776,-0.282262 0.54131,-0.691494 0.54131,-0.691494 1.13025,-2.193715 2.37281,-3.833207 3.77694,-4.466518 0.81231,-0.366379 1.76011,-0.638721 2.59456,-0.697907 0.62815,-0.04455 1.40293,0.0387 1.93552,0.176391 1.97827,0.485752 3.17986,1.401048 3.94433,2.040534 z"
         id="path37710"
         sodipodi:nodetypes="casasaaacccssssscccccsccsssaaaaaacsscc" />
    </g>
    <g
       id="g37722"
       transform="matrix(-1,0,0,1,193.52976,49.313359)">
      <path
         style="opacity:1;fill:#000000;stroke:#ffffee;stroke-width:0.083;stroke-linecap:butt;stroke-linejoin:miter;stroke-miterlimit:4;stroke-dasharray:none;stroke-opacity:1"
         d="m 117.86056,-30.737931 c -0.25646,0.719404 -0.33889,1.496665 -0.38184,2.259205 -0.0544,0.965127 0.45528,1.975439 0.1591,2.895603 -0.17104,0.531384 -1.05005,1.304612 -1.05005,1.304612 0,0 0.26179,0.540246 0.51137,0.668216 0.71238,0.365263 0.76851,0.382733 1.84875,0.514576 0.65861,0.08038 1.16473,-0.260694 1.56849,-0.658896 0.3499,-0.345084 0.38601,-0.875943 0.51105,-1.351211 0.24241,-0.921373 0.37251,-2.843046 0.37251,-2.843046 0,0 0.21124,-1.261032 1.2728,-1.209154 1.06156,0.05188 1.15852,1.259943 1.15852,1.259943 l -0.084,2.124041 c -0.0537,3.042358 2.57741,4.041115 2.57741,4.041115 -0.10662,-1.944837 0.13826,-3.142721 0.50911,-4.072935 l -0.73185,-2.163747 c 0.59222,-1.081157 1.08569,-1.224216 1.55917,-1.177332 0,0 -0.11277,-0.584488 -0.22274,-0.859134 -0.39712,-0.991769 -0.71166,-2.149724 -1.55917,-2.800144 -1.18463,-0.90915 -2.86217,-1.273022 -4.34454,-1.092791 -1.00707,0.122443 -1.95995,0.721174 -2.68764,1.428031 -0.47679,0.463139 -0.76321,1.10694 -0.98641,1.733048 z"
         id="path37714"
         sodipodi:nodetypes="aaacsscsczccccccaaaaaa" />
      <path
         style="display:inline;opacity:1;fill:#000000;stroke:#ffffff;stroke-width:0.12;stroke-linecap:butt;stroke-linejoin:miter;stroke-miterlimit:4;stroke-dasharray:none;stroke-opacity:1"
         d="m 124.14375,-32.096249 c 0,0 -0.97685,-0.471518 -1.485,-0.427501 -0.43609,0.03777 -0.80271,0.218434 -1.02375,0.596249 -0.18573,0.317467 -0.15263,0.806973 0.0112,1.13625 0.15789,0.317231 0.66949,0.565643 1.02375,0.57375 l 4.91625,0.1125 c 0,0 0.31975,-2.095375 0.09,-3.105 -0.029,-0.127559 -0.18,-0.348749 -0.18,-0.348749 0,0 -0.0464,0.273812 -0.135,0.37125 -0.28771,0.316509 -1.15875,0.551248 -1.15875,0.551248 z"
         id="path37716"
         sodipodi:nodetypes="csssscscscc" />
      <path
         style="display:inline;opacity:1;fill:#000000;stroke:#ffffff;stroke-width:0.083;stroke-linecap:butt;stroke-linejoin:miter;stroke-miterlimit:4;stroke-dasharray:none;stroke-opacity:1"
         d="m 117.86056,-30.737931 -2.37931,-0.593318 c 0,0 1.43589,-2.815992 2.64375,-3.757501 1.02329,-0.797641 2.34134,-1.280829 3.63375,-1.395 1.24396,-0.109891 2.52091,0.240862 3.67875,0.70875 0.8467,0.342157 2.295,1.496251 2.295,1.496251 l -1.755,1.49625 c -1.69322,-1.227703 -6.37316,-2.442389 -8.11694,2.044568 z"
         id="path37718"
         sodipodi:nodetypes="ccaaaccc" />
      <path
         style="fill:#0000ff;stroke:#fffff7;stroke-width:0.083;stroke-linecap:butt;stroke-linejoin:miter;stroke-miterlimit:4;stroke-dasharray:none;stroke-opacity:1"
         d="m 127.7325,-34.278749 c 0,0 0.61438,-1.144287 0.70936,-1.77403 0.13804,-0.915281 0.12464,-1.822922 -0.22469,-2.767792 -0.15009,-0.405976 -0.82557,-0.518444 -1.2256,-0.796633 -0.24373,-0.169491 -0.4803,-0.450843 -0.71492,-0.531089 -0.63087,-0.215778 -1.1328,-0.356317 -1.71583,-0.459597 -0.52839,-0.0936 -1.0672,-0.124219 -1.60348,-0.142984 -0.53767,-0.01881 -1.08201,-0.05156 -1.61369,0.03064 -0.43859,0.0678 -1.27666,0.377888 -1.27666,0.377888 -0.10859,0.11196 0.38129,0.394913 0.57194,0.59237 -0.28597,-0.129368 -0.78741,-0.41416 -0.85791,-0.388104 0,0 -0.80023,0.586185 -1.24602,0.796634 -0.45953,0.216933 -0.91939,0.255316 -1.36843,0.493194 -0.41161,0.218047 -0.78391,0.597489 -1.18488,0.834528 -0.41483,0.245229 -1.14718,0.765845 -1.5265,1.06305 -0.66568,0.521564 -0.91155,0.79807 -1.33321,1.531115 -0.43844,0.762219 -0.34676,0.643673 -0.53109,1.368576 -0.024,0.321339 -0.18491,0.955646 -0.0613,0.93962 l 0.55152,-0.285972 c -0.17708,0.313291 -0.44841,0.93962 -0.44841,0.93962 -0.0324,0.142887 0.0765,0.272601 0.16243,0.40853 0,0 -0.56244,3.365469 0.0593,5.280731 0.11334,0.349108 0.32767,0.665555 0.53302,0.96978 0.24499,0.397 0.58264,0.789602 0.67408,1.103031 0.1582,0.608549 0.10217,1.309303 -0.16341,1.879238 -0.14235,0.305482 -0.59676,0.350915 -0.53303,0.681855 0.0392,0.203675 0.51251,0.225045 0.70423,0.145899 0.58681,-0.242241 0.85229,-0.315892 1.14485,-0.641002 0.40117,-0.445805 0.56711,-1.070887 0.70908,-1.65357 0.1296,-0.531897 0.16225,-1.092216 0.11962,-1.638011 -0.0397,-0.508795 -0.2119,-0.999065 -0.34725,-1.491134 -0.16676,-0.60626 -0.43597,-1.183634 -0.57194,-1.797534 -0.10391,-0.469172 -0.31116,-0.966485 -0.18384,-1.429853 0.0776,-0.282262 0.54131,-0.691494 0.54131,-0.691494 1.13025,-2.193715 2.37281,-3.833207 3.77694,-4.466518 0.81231,-0.366379 1.76011,-0.638721 2.59456,-0.697907 0.62815,-0.04455 1.40293,0.0387 1.93552,0.176391 1.97827,0.485752 3.17986,1.401048 3.94433,2.040534 z"
         id="path37720"
         sodipodi:nodetypes="casasaaacccssssscccccsccsssaaaaaacsscc" />
    </g>
    <g
       id="g37732"
       transform="matrix(-1,0,0,1,146.27439,49.143293)">
      <path
         style="opacity:1;fill:#000000;stroke:#ffffee;stroke-width:0.083;stroke-linecap:butt;stroke-linejoin:miter;stroke-miterlimit:4;stroke-dasharray:none;stroke-opacity:1"
         d="m 117.86056,-30.737931 c -0.25646,0.719404 -0.33889,1.496665 -0.38184,2.259205 -0.0544,0.965127 0.45528,1.975439 0.1591,2.895603 -0.17104,0.531384 -1.05005,1.304612 -1.05005,1.304612 0,0 0.26179,0.540246 0.51137,0.668216 0.71238,0.365263 0.76851,0.382733 1.84875,0.514576 0.65861,0.08038 1.16473,-0.260694 1.56849,-0.658896 0.3499,-0.345084 0.38601,-0.875943 0.51105,-1.351211 0.24241,-0.921373 0.37251,-2.843046 0.37251,-2.843046 0,0 0.21124,-1.261032 1.2728,-1.209154 1.06156,0.05188 1.15852,1.259943 1.15852,1.259943 l -0.084,2.124041 c -0.0537,3.042358 2.57741,4.041115 2.57741,4.041115 -0.10662,-1.944837 0.13826,-3.142721 0.50911,-4.072935 l -0.73185,-2.163747 c 0.59222,-1.081157 1.08569,-1.224216 1.55917,-1.177332 0,0 -0.11277,-0.584488 -0.22274,-0.859134 -0.39712,-0.991769 -0.71166,-2.149724 -1.55917,-2.800144 -1.18463,-0.90915 -2.86217,-1.273022 -4.34454,-1.092791 -1.00707,0.122443 -1.95995,0.721174 -2.68764,1.428031 -0.47679,0.463139 -0.76321,1.10694 -0.98641,1.733048 z"
         id="path37724"
         sodipodi:nodetypes="aaacsscsczccccccaaaaaa" />
      <path
         style="display:inline;opacity:1;fill:#000000;stroke:#ffffff;stroke-width:0.12;stroke-linecap:butt;stroke-linejoin:miter;stroke-miterlimit:4;stroke-dasharray:none;stroke-opacity:1"
         d="m 124.14375,-32.096249 c 0,0 -0.97685,-0.471518 -1.485,-0.427501 -0.43609,0.03777 -0.80271,0.218434 -1.02375,0.596249 -0.18573,0.317467 -0.15263,0.806973 0.0112,1.13625 0.15789,0.317231 0.66949,0.565643 1.02375,0.57375 l 4.91625,0.1125 c 0,0 0.31975,-2.095375 0.09,-3.105 -0.029,-0.127559 -0.18,-0.348749 -0.18,-0.348749 0,0 -0.0464,0.273812 -0.135,0.37125 -0.28771,0.316509 -1.15875,0.551248 -1.15875,0.551248 z"
         id="path37726"
         sodipodi:nodetypes="csssscscscc" />
      <path
         style="display:inline;opacity:1;fill:#000000;stroke:#ffffff;stroke-width:0.083;stroke-linecap:butt;stroke-linejoin:miter;stroke-miterlimit:4;stroke-dasharray:none;stroke-opacity:1"
         d="m 117.86056,-30.737931 -2.37931,-0.593318 c 0,0 1.43589,-2.815992 2.64375,-3.757501 1.02329,-0.797641 2.34134,-1.280829 3.63375,-1.395 1.24396,-0.109891 2.52091,0.240862 3.67875,0.70875 0.8467,0.342157 2.295,1.496251 2.295,1.496251 l -1.755,1.49625 c -1.69322,-1.227703 -6.37316,-2.442389 -8.11694,2.044568 z"
         id="path37728"
         sodipodi:nodetypes="ccaaaccc" />
      <path
         style="fill:#0000ff;stroke:#fffff7;stroke-width:0.083;stroke-linecap:butt;stroke-linejoin:miter;stroke-miterlimit:4;stroke-dasharray:none;stroke-opacity:1"
         d="m 127.7325,-34.278749 c 0,0 0.61438,-1.144287 0.70936,-1.77403 0.13804,-0.915281 0.12464,-1.822922 -0.22469,-2.767792 -0.15009,-0.405976 -0.82557,-0.518444 -1.2256,-0.796633 -0.24373,-0.169491 -0.4803,-0.450843 -0.71492,-0.531089 -0.63087,-0.215778 -1.1328,-0.356317 -1.71583,-0.459597 -0.52839,-0.0936 -1.0672,-0.124219 -1.60348,-0.142984 -0.53767,-0.01881 -1.08201,-0.05156 -1.61369,0.03064 -0.43859,0.0678 -1.27666,0.377888 -1.27666,0.377888 -0.10859,0.11196 0.38129,0.394913 0.57194,0.59237 -0.28597,-0.129368 -0.78741,-0.41416 -0.85791,-0.388104 0,0 -0.80023,0.586185 -1.24602,0.796634 -0.45953,0.216933 -0.91939,0.255316 -1.36843,0.493194 -0.41161,0.218047 -0.78391,0.597489 -1.18488,0.834528 -0.41483,0.245229 -1.14718,0.765845 -1.5265,1.06305 -0.66568,0.521564 -0.91155,0.79807 -1.33321,1.531115 -0.43844,0.762219 -0.34676,0.643673 -0.53109,1.368576 -0.024,0.321339 -0.18491,0.955646 -0.0613,0.93962 l 0.55152,-0.285972 c -0.17708,0.313291 -0.44841,0.93962 -0.44841,0.93962 -0.0324,0.142887 0.0765,0.272601 0.16243,0.40853 0,0 -0.56244,3.365469 0.0593,5.280731 0.11334,0.349108 0.32767,0.665555 0.53302,0.96978 0.24499,0.397 0.58264,0.789602 0.67408,1.103031 0.1582,0.608549 0.10217,1.309303 -0.16341,1.879238 -0.14235,0.305482 -0.59676,0.350915 -0.53303,0.681855 0.0392,0.203675 0.51251,0.225045 0.70423,0.145899 0.58681,-0.242241 0.85229,-0.315892 1.14485,-0.641002 0.40117,-0.445805 0.56711,-1.070887 0.70908,-1.65357 0.1296,-0.531897 0.16225,-1.092216 0.11962,-1.638011 -0.0397,-0.508795 -0.2119,-0.999065 -0.34725,-1.491134 -0.16676,-0.60626 -0.43597,-1.183634 -0.57194,-1.797534 -0.10391,-0.469172 -0.31116,-0.966485 -0.18384,-1.429853 0.0776,-0.282262 0.54131,-0.691494 0.54131,-0.691494 1.13025,-2.193715 2.37281,-3.833207 3.77694,-4.466518 0.81231,-0.366379 1.76011,-0.638721 2.59456,-0.697907 0.62815,-0.04455 1.40293,0.0387 1.93552,0.176391 1.97827,0.485752 3.17986,1.401048 3.94433,2.040534 z"
         id="path37730"
         sodipodi:nodetypes="casasaaacccssssscccccsccsssaaaaaacsscc" />
    </g>
    <g
       id="g37752"
       transform="matrix(-1,0,0,1,231.50017,124.31223)">
      <path
         style="opacity:1;fill:#000000;stroke:#ffffee;stroke-width:0.083;stroke-linecap:butt;stroke-linejoin:miter;stroke-miterlimit:4;stroke-dasharray:none;stroke-opacity:1"
         d="m 117.86056,-30.737931 c -0.25646,0.719404 -0.33889,1.496665 -0.38184,2.259205 -0.0544,0.965127 0.45528,1.975439 0.1591,2.895603 -0.17104,0.531384 -1.05005,1.304612 -1.05005,1.304612 0,0 0.26179,0.540246 0.51137,0.668216 0.71238,0.365263 0.76851,0.382733 1.84875,0.514576 0.65861,0.08038 1.16473,-0.260694 1.56849,-0.658896 0.3499,-0.345084 0.38601,-0.875943 0.51105,-1.351211 0.24241,-0.921373 0.37251,-2.843046 0.37251,-2.843046 0,0 0.21124,-1.261032 1.2728,-1.209154 1.06156,0.05188 1.15852,1.259943 1.15852,1.259943 l -0.084,2.124041 c -0.0537,3.042358 2.57741,4.041115 2.57741,4.041115 -0.10662,-1.944837 0.13826,-3.142721 0.50911,-4.072935 l -0.73185,-2.163747 c 0.59222,-1.081157 1.08569,-1.224216 1.55917,-1.177332 0,0 -0.11277,-0.584488 -0.22274,-0.859134 -0.39712,-0.991769 -0.71166,-2.149724 -1.55917,-2.800144 -1.18463,-0.90915 -2.86217,-1.273022 -4.34454,-1.092791 -1.00707,0.122443 -1.95995,0.721174 -2.68764,1.428031 -0.47679,0.463139 -0.76321,1.10694 -0.98641,1.733048 z"
         id="path37744"
         sodipodi:nodetypes="aaacsscsczccccccaaaaaa" />
      <path
         style="display:inline;opacity:1;fill:#000000;stroke:#ffffff;stroke-width:0.12;stroke-linecap:butt;stroke-linejoin:miter;stroke-miterlimit:4;stroke-dasharray:none;stroke-opacity:1"
         d="m 124.14375,-32.096249 c 0,0 -0.97685,-0.471518 -1.485,-0.427501 -0.43609,0.03777 -0.80271,0.218434 -1.02375,0.596249 -0.18573,0.317467 -0.15263,0.806973 0.0112,1.13625 0.15789,0.317231 0.66949,0.565643 1.02375,0.57375 l 4.91625,0.1125 c 0,0 0.31975,-2.095375 0.09,-3.105 -0.029,-0.127559 -0.18,-0.348749 -0.18,-0.348749 0,0 -0.0464,0.273812 -0.135,0.37125 -0.28771,0.316509 -1.15875,0.551248 -1.15875,0.551248 z"
         id="path37746"
         sodipodi:nodetypes="csssscscscc" />
      <path
         style="display:inline;opacity:1;fill:#000000;stroke:#ffffff;stroke-width:0.083;stroke-linecap:butt;stroke-linejoin:miter;stroke-miterlimit:4;stroke-dasharray:none;stroke-opacity:1"
         d="m 117.86056,-30.737931 -2.37931,-0.593318 c 0,0 1.43589,-2.815992 2.64375,-3.757501 1.02329,-0.797641 2.34134,-1.280829 3.63375,-1.395 1.24396,-0.109891 2.52091,0.240862 3.67875,0.70875 0.8467,0.342157 2.295,1.496251 2.295,1.496251 l -1.755,1.49625 c -1.69322,-1.227703 -6.37316,-2.442389 -8.11694,2.044568 z"
         id="path37748"
         sodipodi:nodetypes="ccaaaccc" />
      <path
         style="fill:#0000ff;stroke:#fffff7;stroke-width:0.083;stroke-linecap:butt;stroke-linejoin:miter;stroke-miterlimit:4;stroke-dasharray:none;stroke-opacity:1"
         d="m 127.7325,-34.278749 c 0,0 0.61438,-1.144287 0.70936,-1.77403 0.13804,-0.915281 0.12464,-1.822922 -0.22469,-2.767792 -0.15009,-0.405976 -0.82557,-0.518444 -1.2256,-0.796633 -0.24373,-0.169491 -0.4803,-0.450843 -0.71492,-0.531089 -0.63087,-0.215778 -1.1328,-0.356317 -1.71583,-0.459597 -0.52839,-0.0936 -1.0672,-0.124219 -1.60348,-0.142984 -0.53767,-0.01881 -1.08201,-0.05156 -1.61369,0.03064 -0.43859,0.0678 -1.27666,0.377888 -1.27666,0.377888 -0.10859,0.11196 0.38129,0.394913 0.57194,0.59237 -0.28597,-0.129368 -0.78741,-0.41416 -0.85791,-0.388104 0,0 -0.80023,0.586185 -1.24602,0.796634 -0.45953,0.216933 -0.91939,0.255316 -1.36843,0.493194 -0.41161,0.218047 -0.78391,0.597489 -1.18488,0.834528 -0.41483,0.245229 -1.14718,0.765845 -1.5265,1.06305 -0.66568,0.521564 -0.91155,0.79807 -1.33321,1.531115 -0.43844,0.762219 -0.34676,0.643673 -0.53109,1.368576 -0.024,0.321339 -0.18491,0.955646 -0.0613,0.93962 l 0.55152,-0.285972 c -0.17708,0.313291 -0.44841,0.93962 -0.44841,0.93962 -0.0324,0.142887 0.0765,0.272601 0.16243,0.40853 0,0 -0.56244,3.365469 0.0593,5.280731 0.11334,0.349108 0.32767,0.665555 0.53302,0.96978 0.24499,0.397 0.58264,0.789602 0.67408,1.103031 0.1582,0.608549 0.10217,1.309303 -0.16341,1.879238 -0.14235,0.305482 -0.59676,0.350915 -0.53303,0.681855 0.0392,0.203675 0.51251,0.225045 0.70423,0.145899 0.58681,-0.242241 0.85229,-0.315892 1.14485,-0.641002 0.40117,-0.445805 0.56711,-1.070887 0.70908,-1.65357 0.1296,-0.531897 0.16225,-1.092216 0.11962,-1.638011 -0.0397,-0.508795 -0.2119,-0.999065 -0.34725,-1.491134 -0.16676,-0.60626 -0.43597,-1.183634 -0.57194,-1.797534 -0.10391,-0.469172 -0.31116,-0.966485 -0.18384,-1.429853 0.0776,-0.282262 0.54131,-0.691494 0.54131,-0.691494 1.13025,-2.193715 2.37281,-3.833207 3.77694,-4.466518 0.81231,-0.366379 1.76011,-0.638721 2.59456,-0.697907 0.62815,-0.04455 1.40293,0.0387 1.93552,0.176391 1.97827,0.485752 3.17986,1.401048 3.94433,2.040534 z"
         id="path37750"
         sodipodi:nodetypes="casasaaacccssssscccccsccsssaaaaaacsscc" />
    </g>
    <g
       id="g37762"
       transform="matrix(-1,0,0,1,185.0108,122.83238)">
      <path
         style="opacity:1;fill:#000000;stroke:#ffffee;stroke-width:0.083;stroke-linecap:butt;stroke-linejoin:miter;stroke-miterlimit:4;stroke-dasharray:none;stroke-opacity:1"
         d="m 117.86056,-30.737931 c -0.25646,0.719404 -0.33889,1.496665 -0.38184,2.259205 -0.0544,0.965127 0.45528,1.975439 0.1591,2.895603 -0.17104,0.531384 -1.05005,1.304612 -1.05005,1.304612 0,0 0.26179,0.540246 0.51137,0.668216 0.71238,0.365263 0.76851,0.382733 1.84875,0.514576 0.65861,0.08038 1.16473,-0.260694 1.56849,-0.658896 0.3499,-0.345084 0.38601,-0.875943 0.51105,-1.351211 0.24241,-0.921373 0.37251,-2.843046 0.37251,-2.843046 0,0 0.21124,-1.261032 1.2728,-1.209154 1.06156,0.05188 1.15852,1.259943 1.15852,1.259943 l -0.084,2.124041 c -0.0537,3.042358 2.57741,4.041115 2.57741,4.041115 -0.10662,-1.944837 0.13826,-3.142721 0.50911,-4.072935 l -0.73185,-2.163747 c 0.59222,-1.081157 1.08569,-1.224216 1.55917,-1.177332 0,0 -0.11277,-0.584488 -0.22274,-0.859134 -0.39712,-0.991769 -0.71166,-2.149724 -1.55917,-2.800144 -1.18463,-0.90915 -2.86217,-1.273022 -4.34454,-1.092791 -1.00707,0.122443 -1.95995,0.721174 -2.68764,1.428031 -0.47679,0.463139 -0.76321,1.10694 -0.98641,1.733048 z"
         id="path37754"
         sodipodi:nodetypes="aaacsscsczccccccaaaaaa" />
      <path
         style="display:inline;opacity:1;fill:#000000;stroke:#ffffff;stroke-width:0.12;stroke-linecap:butt;stroke-linejoin:miter;stroke-miterlimit:4;stroke-dasharray:none;stroke-opacity:1"
         d="m 124.14375,-32.096249 c 0,0 -0.97685,-0.471518 -1.485,-0.427501 -0.43609,0.03777 -0.80271,0.218434 -1.02375,0.596249 -0.18573,0.317467 -0.15263,0.806973 0.0112,1.13625 0.15789,0.317231 0.66949,0.565643 1.02375,0.57375 l 4.91625,0.1125 c 0,0 0.31975,-2.095375 0.09,-3.105 -0.029,-0.127559 -0.18,-0.348749 -0.18,-0.348749 0,0 -0.0464,0.273812 -0.135,0.37125 -0.28771,0.316509 -1.15875,0.551248 -1.15875,0.551248 z"
         id="path37756"
         sodipodi:nodetypes="csssscscscc" />
      <path
         style="display:inline;opacity:1;fill:#000000;stroke:#ffffff;stroke-width:0.083;stroke-linecap:butt;stroke-linejoin:miter;stroke-miterlimit:4;stroke-dasharray:none;stroke-opacity:1"
         d="m 117.86056,-30.737931 -2.37931,-0.593318 c 0,0 1.43589,-2.815992 2.64375,-3.757501 1.02329,-0.797641 2.34134,-1.280829 3.63375,-1.395 1.24396,-0.109891 2.52091,0.240862 3.67875,0.70875 0.8467,0.342157 2.295,1.496251 2.295,1.496251 l -1.755,1.49625 c -1.69322,-1.227703 -6.37316,-2.442389 -8.11694,2.044568 z"
         id="path37758"
         sodipodi:nodetypes="ccaaaccc" />
      <path
         style="fill:#0000ff;stroke:#fffff7;stroke-width:0.083;stroke-linecap:butt;stroke-linejoin:miter;stroke-miterlimit:4;stroke-dasharray:none;stroke-opacity:1"
         d="m 127.7325,-34.278749 c 0,0 0.61438,-1.144287 0.70936,-1.77403 0.13804,-0.915281 0.12464,-1.822922 -0.22469,-2.767792 -0.15009,-0.405976 -0.82557,-0.518444 -1.2256,-0.796633 -0.24373,-0.169491 -0.4803,-0.450843 -0.71492,-0.531089 -0.63087,-0.215778 -1.1328,-0.356317 -1.71583,-0.459597 -0.52839,-0.0936 -1.0672,-0.124219 -1.60348,-0.142984 -0.53767,-0.01881 -1.08201,-0.05156 -1.61369,0.03064 -0.43859,0.0678 -1.27666,0.377888 -1.27666,0.377888 -0.10859,0.11196 0.38129,0.394913 0.57194,0.59237 -0.28597,-0.129368 -0.78741,-0.41416 -0.85791,-0.388104 0,0 -0.80023,0.586185 -1.24602,0.796634 -0.45953,0.216933 -0.91939,0.255316 -1.36843,0.493194 -0.41161,0.218047 -0.78391,0.597489 -1.18488,0.834528 -0.41483,0.245229 -1.14718,0.765845 -1.5265,1.06305 -0.66568,0.521564 -0.91155,0.79807 -1.33321,1.531115 -0.43844,0.762219 -0.34676,0.643673 -0.53109,1.368576 -0.024,0.321339 -0.18491,0.955646 -0.0613,0.93962 l 0.55152,-0.285972 c -0.17708,0.313291 -0.44841,0.93962 -0.44841,0.93962 -0.0324,0.142887 0.0765,0.272601 0.16243,0.40853 0,0 -0.56244,3.365469 0.0593,5.280731 0.11334,0.349108 0.32767,0.665555 0.53302,0.96978 0.24499,0.397 0.58264,0.789602 0.67408,1.103031 0.1582,0.608549 0.10217,1.309303 -0.16341,1.879238 -0.14235,0.305482 -0.59676,0.350915 -0.53303,0.681855 0.0392,0.203675 0.51251,0.225045 0.70423,0.145899 0.58681,-0.242241 0.85229,-0.315892 1.14485,-0.641002 0.40117,-0.445805 0.56711,-1.070887 0.70908,-1.65357 0.1296,-0.531897 0.16225,-1.092216 0.11962,-1.638011 -0.0397,-0.508795 -0.2119,-0.999065 -0.34725,-1.491134 -0.16676,-0.60626 -0.43597,-1.183634 -0.57194,-1.797534 -0.10391,-0.469172 -0.31116,-0.966485 -0.18384,-1.429853 0.0776,-0.282262 0.54131,-0.691494 0.54131,-0.691494 1.13025,-2.193715 2.37281,-3.833207 3.77694,-4.466518 0.81231,-0.366379 1.76011,-0.638721 2.59456,-0.697907 0.62815,-0.04455 1.40293,0.0387 1.93552,0.176391 1.97827,0.485752 3.17986,1.401048 3.94433,2.040534 z"
         id="path37760"
         sodipodi:nodetypes="casasaaacccssssscccccsccsssaaaaaacsscc" />
    </g>
    <g
       id="g37772"
       transform="matrix(-1,0,0,1,141.29189,122.56212)">
      <path
         style="opacity:1;fill:#000000;stroke:#ffffee;stroke-width:0.083;stroke-linecap:butt;stroke-linejoin:miter;stroke-miterlimit:4;stroke-dasharray:none;stroke-opacity:1"
         d="m 117.86056,-30.737931 c -0.25646,0.719404 -0.33889,1.496665 -0.38184,2.259205 -0.0544,0.965127 0.45528,1.975439 0.1591,2.895603 -0.17104,0.531384 -1.05005,1.304612 -1.05005,1.304612 0,0 0.26179,0.540246 0.51137,0.668216 0.71238,0.365263 0.76851,0.382733 1.84875,0.514576 0.65861,0.08038 1.16473,-0.260694 1.56849,-0.658896 0.3499,-0.345084 0.38601,-0.875943 0.51105,-1.351211 0.24241,-0.921373 0.37251,-2.843046 0.37251,-2.843046 0,0 0.21124,-1.261032 1.2728,-1.209154 1.06156,0.05188 1.15852,1.259943 1.15852,1.259943 l -0.084,2.124041 c -0.0537,3.042358 2.57741,4.041115 2.57741,4.041115 -0.10662,-1.944837 0.13826,-3.142721 0.50911,-4.072935 l -0.73185,-2.163747 c 0.59222,-1.081157 1.08569,-1.224216 1.55917,-1.177332 0,0 -0.11277,-0.584488 -0.22274,-0.859134 -0.39712,-0.991769 -0.71166,-2.149724 -1.55917,-2.800144 -1.18463,-0.90915 -2.86217,-1.273022 -4.34454,-1.092791 -1.00707,0.122443 -1.95995,0.721174 -2.68764,1.428031 -0.47679,0.463139 -0.76321,1.10694 -0.98641,1.733048 z"
         id="path37764"
         sodipodi:nodetypes="aaacsscsczccccccaaaaaa" />
      <path
         style="display:inline;opacity:1;fill:#000000;stroke:#ffffff;stroke-width:0.12;stroke-linecap:butt;stroke-linejoin:miter;stroke-miterlimit:4;stroke-dasharray:none;stroke-opacity:1"
         d="m 124.14375,-32.096249 c 0,0 -0.97685,-0.471518 -1.485,-0.427501 -0.43609,0.03777 -0.80271,0.218434 -1.02375,0.596249 -0.18573,0.317467 -0.15263,0.806973 0.0112,1.13625 0.15789,0.317231 0.66949,0.565643 1.02375,0.57375 l 4.91625,0.1125 c 0,0 0.31975,-2.095375 0.09,-3.105 -0.029,-0.127559 -0.18,-0.348749 -0.18,-0.348749 0,0 -0.0464,0.273812 -0.135,0.37125 -0.28771,0.316509 -1.15875,0.551248 -1.15875,0.551248 z"
         id="path37766"
         sodipodi:nodetypes="csssscscscc" />
      <path
         style="display:inline;opacity:1;fill:#000000;stroke:#ffffff;stroke-width:0.083;stroke-linecap:butt;stroke-linejoin:miter;stroke-miterlimit:4;stroke-dasharray:none;stroke-opacity:1"
         d="m 117.86056,-30.737931 -2.37931,-0.593318 c 0,0 1.43589,-2.815992 2.64375,-3.757501 1.02329,-0.797641 2.34134,-1.280829 3.63375,-1.395 1.24396,-0.109891 2.52091,0.240862 3.67875,0.70875 0.8467,0.342157 2.295,1.496251 2.295,1.496251 l -1.755,1.49625 c -1.69322,-1.227703 -6.37316,-2.442389 -8.11694,2.044568 z"
         id="path37768"
         sodipodi:nodetypes="ccaaaccc" />
      <path
         style="fill:#0000ff;stroke:#fffff7;stroke-width:0.083;stroke-linecap:butt;stroke-linejoin:miter;stroke-miterlimit:4;stroke-dasharray:none;stroke-opacity:1"
         d="m 127.7325,-34.278749 c 0,0 0.61438,-1.144287 0.70936,-1.77403 0.13804,-0.915281 0.12464,-1.822922 -0.22469,-2.767792 -0.15009,-0.405976 -0.82557,-0.518444 -1.2256,-0.796633 -0.24373,-0.169491 -0.4803,-0.450843 -0.71492,-0.531089 -0.63087,-0.215778 -1.1328,-0.356317 -1.71583,-0.459597 -0.52839,-0.0936 -1.0672,-0.124219 -1.60348,-0.142984 -0.53767,-0.01881 -1.08201,-0.05156 -1.61369,0.03064 -0.43859,0.0678 -1.27666,0.377888 -1.27666,0.377888 -0.10859,0.11196 0.38129,0.394913 0.57194,0.59237 -0.28597,-0.129368 -0.78741,-0.41416 -0.85791,-0.388104 0,0 -0.80023,0.586185 -1.24602,0.796634 -0.45953,0.216933 -0.91939,0.255316 -1.36843,0.493194 -0.41161,0.218047 -0.78391,0.597489 -1.18488,0.834528 -0.41483,0.245229 -1.14718,0.765845 -1.5265,1.06305 -0.66568,0.521564 -0.91155,0.79807 -1.33321,1.531115 -0.43844,0.762219 -0.34676,0.643673 -0.53109,1.368576 -0.024,0.321339 -0.18491,0.955646 -0.0613,0.93962 l 0.55152,-0.285972 c -0.17708,0.313291 -0.44841,0.93962 -0.44841,0.93962 -0.0324,0.142887 0.0765,0.272601 0.16243,0.40853 0,0 -0.56244,3.365469 0.0593,5.280731 0.11334,0.349108 0.32767,0.665555 0.53302,0.96978 0.24499,0.397 0.58264,0.789602 0.67408,1.103031 0.1582,0.608549 0.10217,1.309303 -0.16341,1.879238 -0.14235,0.305482 -0.59676,0.350915 -0.53303,0.681855 0.0392,0.203675 0.51251,0.225045 0.70423,0.145899 0.58681,-0.242241 0.85229,-0.315892 1.14485,-0.641002 0.40117,-0.445805 0.56711,-1.070887 0.70908,-1.65357 0.1296,-0.531897 0.16225,-1.092216 0.11962,-1.638011 -0.0397,-0.508795 -0.2119,-0.999065 -0.34725,-1.491134 -0.16676,-0.60626 -0.43597,-1.183634 -0.57194,-1.797534 -0.10391,-0.469172 -0.31116,-0.966485 -0.18384,-1.429853 0.0776,-0.282262 0.54131,-0.691494 0.54131,-0.691494 1.13025,-2.193715 2.37281,-3.833207 3.77694,-4.466518 0.81231,-0.366379 1.76011,-0.638721 2.59456,-0.697907 0.62815,-0.04455 1.40293,0.0387 1.93552,0.176391 1.97827,0.485752 3.17986,1.401048 3.94433,2.040534 z"
         id="path37770"
         sodipodi:nodetypes="casasaaacccssssscccccsccsssaaaaaacsscc" />
    </g>
    <g
       id="g37782"
       transform="matrix(-1,0,0,1,283.56521,187.74927)">
      <path
         style="opacity:1;fill:#000000;stroke:#ffffee;stroke-width:0.083;stroke-linecap:butt;stroke-linejoin:miter;stroke-miterlimit:4;stroke-dasharray:none;stroke-opacity:1"
         d="m 117.86056,-30.737931 c -0.25646,0.719404 -0.33889,1.496665 -0.38184,2.259205 -0.0544,0.965127 0.45528,1.975439 0.1591,2.895603 -0.17104,0.531384 -1.05005,1.304612 -1.05005,1.304612 0,0 0.26179,0.540246 0.51137,0.668216 0.71238,0.365263 0.76851,0.382733 1.84875,0.514576 0.65861,0.08038 1.16473,-0.260694 1.56849,-0.658896 0.3499,-0.345084 0.38601,-0.875943 0.51105,-1.351211 0.24241,-0.921373 0.37251,-2.843046 0.37251,-2.843046 0,0 0.21124,-1.261032 1.2728,-1.209154 1.06156,0.05188 1.15852,1.259943 1.15852,1.259943 l -0.084,2.124041 c -0.0537,3.042358 2.57741,4.041115 2.57741,4.041115 -0.10662,-1.944837 0.13826,-3.142721 0.50911,-4.072935 l -0.73185,-2.163747 c 0.59222,-1.081157 1.08569,-1.224216 1.55917,-1.177332 0,0 -0.11277,-0.584488 -0.22274,-0.859134 -0.39712,-0.991769 -0.71166,-2.149724 -1.55917,-2.800144 -1.18463,-0.90915 -2.86217,-1.273022 -4.34454,-1.092791 -1.00707,0.122443 -1.95995,0.721174 -2.68764,1.428031 -0.47679,0.463139 -0.76321,1.10694 -0.98641,1.733048 z"
         id="path37774"
         sodipodi:nodetypes="aaacsscsczccccccaaaaaa" />
      <path
         style="display:inline;opacity:1;fill:#000000;stroke:#ffffff;stroke-width:0.12;stroke-linecap:butt;stroke-linejoin:miter;stroke-miterlimit:4;stroke-dasharray:none;stroke-opacity:1"
         d="m 124.14375,-32.096249 c 0,0 -0.97685,-0.471518 -1.485,-0.427501 -0.43609,0.03777 -0.80271,0.218434 -1.02375,0.596249 -0.18573,0.317467 -0.15263,0.806973 0.0112,1.13625 0.15789,0.317231 0.66949,0.565643 1.02375,0.57375 l 4.91625,0.1125 c 0,0 0.31975,-2.095375 0.09,-3.105 -0.029,-0.127559 -0.18,-0.348749 -0.18,-0.348749 0,0 -0.0464,0.273812 -0.135,0.37125 -0.28771,0.316509 -1.15875,0.551248 -1.15875,0.551248 z"
         id="path37776"
         sodipodi:nodetypes="csssscscscc" />
      <path
         style="display:inline;opacity:1;fill:#000000;stroke:#ffffff;stroke-width:0.083;stroke-linecap:butt;stroke-linejoin:miter;stroke-miterlimit:4;stroke-dasharray:none;stroke-opacity:1"
         d="m 117.86056,-30.737931 -2.37931,-0.593318 c 0,0 1.43589,-2.815992 2.64375,-3.757501 1.02329,-0.797641 2.34134,-1.280829 3.63375,-1.395 1.24396,-0.109891 2.52091,0.240862 3.67875,0.70875 0.8467,0.342157 2.295,1.496251 2.295,1.496251 l -1.755,1.49625 c -1.69322,-1.227703 -6.37316,-2.442389 -8.11694,2.044568 z"
         id="path37778"
         sodipodi:nodetypes="ccaaaccc" />
      <path
         style="fill:#0000ff;stroke:#fffff7;stroke-width:0.083;stroke-linecap:butt;stroke-linejoin:miter;stroke-miterlimit:4;stroke-dasharray:none;stroke-opacity:1"
         d="m 127.7325,-34.278749 c 0,0 0.61438,-1.144287 0.70936,-1.77403 0.13804,-0.915281 0.12464,-1.822922 -0.22469,-2.767792 -0.15009,-0.405976 -0.82557,-0.518444 -1.2256,-0.796633 -0.24373,-0.169491 -0.4803,-0.450843 -0.71492,-0.531089 -0.63087,-0.215778 -1.1328,-0.356317 -1.71583,-0.459597 -0.52839,-0.0936 -1.0672,-0.124219 -1.60348,-0.142984 -0.53767,-0.01881 -1.08201,-0.05156 -1.61369,0.03064 -0.43859,0.0678 -1.27666,0.377888 -1.27666,0.377888 -0.10859,0.11196 0.38129,0.394913 0.57194,0.59237 -0.28597,-0.129368 -0.78741,-0.41416 -0.85791,-0.388104 0,0 -0.80023,0.586185 -1.24602,0.796634 -0.45953,0.216933 -0.91939,0.255316 -1.36843,0.493194 -0.41161,0.218047 -0.78391,0.597489 -1.18488,0.834528 -0.41483,0.245229 -1.14718,0.765845 -1.5265,1.06305 -0.66568,0.521564 -0.91155,0.79807 -1.33321,1.531115 -0.43844,0.762219 -0.34676,0.643673 -0.53109,1.368576 -0.024,0.321339 -0.18491,0.955646 -0.0613,0.93962 l 0.55152,-0.285972 c -0.17708,0.313291 -0.44841,0.93962 -0.44841,0.93962 -0.0324,0.142887 0.0765,0.272601 0.16243,0.40853 0,0 -0.56244,3.365469 0.0593,5.280731 0.11334,0.349108 0.32767,0.665555 0.53302,0.96978 0.24499,0.397 0.58264,0.789602 0.67408,1.103031 0.1582,0.608549 0.10217,1.309303 -0.16341,1.879238 -0.14235,0.305482 -0.59676,0.350915 -0.53303,0.681855 0.0392,0.203675 0.51251,0.225045 0.70423,0.145899 0.58681,-0.242241 0.85229,-0.315892 1.14485,-0.641002 0.40117,-0.445805 0.56711,-1.070887 0.70908,-1.65357 0.1296,-0.531897 0.16225,-1.092216 0.11962,-1.638011 -0.0397,-0.508795 -0.2119,-0.999065 -0.34725,-1.491134 -0.16676,-0.60626 -0.43597,-1.183634 -0.57194,-1.797534 -0.10391,-0.469172 -0.31116,-0.966485 -0.18384,-1.429853 0.0776,-0.282262 0.54131,-0.691494 0.54131,-0.691494 1.13025,-2.193715 2.37281,-3.833207 3.77694,-4.466518 0.81231,-0.366379 1.76011,-0.638721 2.59456,-0.697907 0.62815,-0.04455 1.40293,0.0387 1.93552,0.176391 1.97827,0.485752 3.17986,1.401048 3.94433,2.040534 z"
         id="path37780"
         sodipodi:nodetypes="casasaaacccssssscccccsccsssaaaaaacsscc" />
    </g>
    <g
       id="g37792"
       transform="matrix(-1,0,0,1,237.4554,188.05716)">
      <path
         style="opacity:1;fill:#000000;stroke:#ffffee;stroke-width:0.083;stroke-linecap:butt;stroke-linejoin:miter;stroke-miterlimit:4;stroke-dasharray:none;stroke-opacity:1"
         d="m 117.86056,-30.737931 c -0.25646,0.719404 -0.33889,1.496665 -0.38184,2.259205 -0.0544,0.965127 0.45528,1.975439 0.1591,2.895603 -0.17104,0.531384 -1.05005,1.304612 -1.05005,1.304612 0,0 0.26179,0.540246 0.51137,0.668216 0.71238,0.365263 0.76851,0.382733 1.84875,0.514576 0.65861,0.08038 1.16473,-0.260694 1.56849,-0.658896 0.3499,-0.345084 0.38601,-0.875943 0.51105,-1.351211 0.24241,-0.921373 0.37251,-2.843046 0.37251,-2.843046 0,0 0.21124,-1.261032 1.2728,-1.209154 1.06156,0.05188 1.15852,1.259943 1.15852,1.259943 l -0.084,2.124041 c -0.0537,3.042358 2.57741,4.041115 2.57741,4.041115 -0.10662,-1.944837 0.13826,-3.142721 0.50911,-4.072935 l -0.73185,-2.163747 c 0.59222,-1.081157 1.08569,-1.224216 1.55917,-1.177332 0,0 -0.11277,-0.584488 -0.22274,-0.859134 -0.39712,-0.991769 -0.71166,-2.149724 -1.55917,-2.800144 -1.18463,-0.90915 -2.86217,-1.273022 -4.34454,-1.092791 -1.00707,0.122443 -1.95995,0.721174 -2.68764,1.428031 -0.47679,0.463139 -0.76321,1.10694 -0.98641,1.733048 z"
         id="path37784"
         sodipodi:nodetypes="aaacsscsczccccccaaaaaa" />
      <path
         style="display:inline;opacity:1;fill:#000000;stroke:#ffffff;stroke-width:0.12;stroke-linecap:butt;stroke-linejoin:miter;stroke-miterlimit:4;stroke-dasharray:none;stroke-opacity:1"
         d="m 124.14375,-32.096249 c 0,0 -0.97685,-0.471518 -1.485,-0.427501 -0.43609,0.03777 -0.80271,0.218434 -1.02375,0.596249 -0.18573,0.317467 -0.15263,0.806973 0.0112,1.13625 0.15789,0.317231 0.66949,0.565643 1.02375,0.57375 l 4.91625,0.1125 c 0,0 0.31975,-2.095375 0.09,-3.105 -0.029,-0.127559 -0.18,-0.348749 -0.18,-0.348749 0,0 -0.0464,0.273812 -0.135,0.37125 -0.28771,0.316509 -1.15875,0.551248 -1.15875,0.551248 z"
         id="path37786"
         sodipodi:nodetypes="csssscscscc" />
      <path
         style="display:inline;opacity:1;fill:#000000;stroke:#ffffff;stroke-width:0.083;stroke-linecap:butt;stroke-linejoin:miter;stroke-miterlimit:4;stroke-dasharray:none;stroke-opacity:1"
         d="m 117.86056,-30.737931 -2.37931,-0.593318 c 0,0 1.43589,-2.815992 2.64375,-3.757501 1.02329,-0.797641 2.34134,-1.280829 3.63375,-1.395 1.24396,-0.109891 2.52091,0.240862 3.67875,0.70875 0.8467,0.342157 2.295,1.496251 2.295,1.496251 l -1.755,1.49625 c -1.69322,-1.227703 -6.37316,-2.442389 -8.11694,2.044568 z"
         id="path37788"
         sodipodi:nodetypes="ccaaaccc" />
      <path
         style="fill:#0000ff;stroke:#fffff7;stroke-width:0.083;stroke-linecap:butt;stroke-linejoin:miter;stroke-miterlimit:4;stroke-dasharray:none;stroke-opacity:1"
         d="m 127.7325,-34.278749 c 0,0 0.61438,-1.144287 0.70936,-1.77403 0.13804,-0.915281 0.12464,-1.822922 -0.22469,-2.767792 -0.15009,-0.405976 -0.82557,-0.518444 -1.2256,-0.796633 -0.24373,-0.169491 -0.4803,-0.450843 -0.71492,-0.531089 -0.63087,-0.215778 -1.1328,-0.356317 -1.71583,-0.459597 -0.52839,-0.0936 -1.0672,-0.124219 -1.60348,-0.142984 -0.53767,-0.01881 -1.08201,-0.05156 -1.61369,0.03064 -0.43859,0.0678 -1.27666,0.377888 -1.27666,0.377888 -0.10859,0.11196 0.38129,0.394913 0.57194,0.59237 -0.28597,-0.129368 -0.78741,-0.41416 -0.85791,-0.388104 0,0 -0.80023,0.586185 -1.24602,0.796634 -0.45953,0.216933 -0.91939,0.255316 -1.36843,0.493194 -0.41161,0.218047 -0.78391,0.597489 -1.18488,0.834528 -0.41483,0.245229 -1.14718,0.765845 -1.5265,1.06305 -0.66568,0.521564 -0.91155,0.79807 -1.33321,1.531115 -0.43844,0.762219 -0.34676,0.643673 -0.53109,1.368576 -0.024,0.321339 -0.18491,0.955646 -0.0613,0.93962 l 0.55152,-0.285972 c -0.17708,0.313291 -0.44841,0.93962 -0.44841,0.93962 -0.0324,0.142887 0.0765,0.272601 0.16243,0.40853 0,0 -0.56244,3.365469 0.0593,5.280731 0.11334,0.349108 0.32767,0.665555 0.53302,0.96978 0.24499,0.397 0.58264,0.789602 0.67408,1.103031 0.1582,0.608549 0.10217,1.309303 -0.16341,1.879238 -0.14235,0.305482 -0.59676,0.350915 -0.53303,0.681855 0.0392,0.203675 0.51251,0.225045 0.70423,0.145899 0.58681,-0.242241 0.85229,-0.315892 1.14485,-0.641002 0.40117,-0.445805 0.56711,-1.070887 0.70908,-1.65357 0.1296,-0.531897 0.16225,-1.092216 0.11962,-1.638011 -0.0397,-0.508795 -0.2119,-0.999065 -0.34725,-1.491134 -0.16676,-0.60626 -0.43597,-1.183634 -0.57194,-1.797534 -0.10391,-0.469172 -0.31116,-0.966485 -0.18384,-1.429853 0.0776,-0.282262 0.54131,-0.691494 0.54131,-0.691494 1.13025,-2.193715 2.37281,-3.833207 3.77694,-4.466518 0.81231,-0.366379 1.76011,-0.638721 2.59456,-0.697907 0.62815,-0.04455 1.40293,0.0387 1.93552,0.176391 1.97827,0.485752 3.17986,1.401048 3.94433,2.040534 z"
         id="path37790"
         sodipodi:nodetypes="casasaaacccssssscccccsccsssaaaaaacsscc" />
    </g>
    <g
       id="g37802"
       transform="matrix(-1,0,0,1,191.2457,190.45349)">
      <path
         style="opacity:1;fill:#000000;stroke:#ffffee;stroke-width:0.083;stroke-linecap:butt;stroke-linejoin:miter;stroke-miterlimit:4;stroke-dasharray:none;stroke-opacity:1"
         d="m 117.86056,-30.737931 c -0.25646,0.719404 -0.33889,1.496665 -0.38184,2.259205 -0.0544,0.965127 0.45528,1.975439 0.1591,2.895603 -0.17104,0.531384 -1.05005,1.304612 -1.05005,1.304612 0,0 0.26179,0.540246 0.51137,0.668216 0.71238,0.365263 0.76851,0.382733 1.84875,0.514576 0.65861,0.08038 1.16473,-0.260694 1.56849,-0.658896 0.3499,-0.345084 0.38601,-0.875943 0.51105,-1.351211 0.24241,-0.921373 0.37251,-2.843046 0.37251,-2.843046 0,0 0.21124,-1.261032 1.2728,-1.209154 1.06156,0.05188 1.15852,1.259943 1.15852,1.259943 l -0.084,2.124041 c -0.0537,3.042358 2.57741,4.041115 2.57741,4.041115 -0.10662,-1.944837 0.13826,-3.142721 0.50911,-4.072935 l -0.73185,-2.163747 c 0.59222,-1.081157 1.08569,-1.224216 1.55917,-1.177332 0,0 -0.11277,-0.584488 -0.22274,-0.859134 -0.39712,-0.991769 -0.71166,-2.149724 -1.55917,-2.800144 -1.18463,-0.90915 -2.86217,-1.273022 -4.34454,-1.092791 -1.00707,0.122443 -1.95995,0.721174 -2.68764,1.428031 -0.47679,0.463139 -0.76321,1.10694 -0.98641,1.733048 z"
         id="path37794"
         sodipodi:nodetypes="aaacsscsczccccccaaaaaa" />
      <path
         style="display:inline;opacity:1;fill:#000000;stroke:#ffffff;stroke-width:0.12;stroke-linecap:butt;stroke-linejoin:miter;stroke-miterlimit:4;stroke-dasharray:none;stroke-opacity:1"
         d="m 124.14375,-32.096249 c 0,0 -0.97685,-0.471518 -1.485,-0.427501 -0.43609,0.03777 -0.80271,0.218434 -1.02375,0.596249 -0.18573,0.317467 -0.15263,0.806973 0.0112,1.13625 0.15789,0.317231 0.66949,0.565643 1.02375,0.57375 l 4.91625,0.1125 c 0,0 0.31975,-2.095375 0.09,-3.105 -0.029,-0.127559 -0.18,-0.348749 -0.18,-0.348749 0,0 -0.0464,0.273812 -0.135,0.37125 -0.28771,0.316509 -1.15875,0.551248 -1.15875,0.551248 z"
         id="path37796"
         sodipodi:nodetypes="csssscscscc" />
      <path
         style="display:inline;opacity:1;fill:#000000;stroke:#ffffff;stroke-width:0.083;stroke-linecap:butt;stroke-linejoin:miter;stroke-miterlimit:4;stroke-dasharray:none;stroke-opacity:1"
         d="m 117.86056,-30.737931 -2.37931,-0.593318 c 0,0 1.43589,-2.815992 2.64375,-3.757501 1.02329,-0.797641 2.34134,-1.280829 3.63375,-1.395 1.24396,-0.109891 2.52091,0.240862 3.67875,0.70875 0.8467,0.342157 2.295,1.496251 2.295,1.496251 l -1.755,1.49625 c -1.69322,-1.227703 -6.37316,-2.442389 -8.11694,2.044568 z"
         id="path37798"
         sodipodi:nodetypes="ccaaaccc" />
      <path
         style="fill:#0000ff;stroke:#fffff7;stroke-width:0.083;stroke-linecap:butt;stroke-linejoin:miter;stroke-miterlimit:4;stroke-dasharray:none;stroke-opacity:1"
         d="m 127.7325,-34.278749 c 0,0 0.61438,-1.144287 0.70936,-1.77403 0.13804,-0.915281 0.12464,-1.822922 -0.22469,-2.767792 -0.15009,-0.405976 -0.82557,-0.518444 -1.2256,-0.796633 -0.24373,-0.169491 -0.4803,-0.450843 -0.71492,-0.531089 -0.63087,-0.215778 -1.1328,-0.356317 -1.71583,-0.459597 -0.52839,-0.0936 -1.0672,-0.124219 -1.60348,-0.142984 -0.53767,-0.01881 -1.08201,-0.05156 -1.61369,0.03064 -0.43859,0.0678 -1.27666,0.377888 -1.27666,0.377888 -0.10859,0.11196 0.38129,0.394913 0.57194,0.59237 -0.28597,-0.129368 -0.78741,-0.41416 -0.85791,-0.388104 0,0 -0.80023,0.586185 -1.24602,0.796634 -0.45953,0.216933 -0.91939,0.255316 -1.36843,0.493194 -0.41161,0.218047 -0.78391,0.597489 -1.18488,0.834528 -0.41483,0.245229 -1.14718,0.765845 -1.5265,1.06305 -0.66568,0.521564 -0.91155,0.79807 -1.33321,1.531115 -0.43844,0.762219 -0.34676,0.643673 -0.53109,1.368576 -0.024,0.321339 -0.18491,0.955646 -0.0613,0.93962 l 0.55152,-0.285972 c -0.17708,0.313291 -0.44841,0.93962 -0.44841,0.93962 -0.0324,0.142887 0.0765,0.272601 0.16243,0.40853 0,0 -0.56244,3.365469 0.0593,5.280731 0.11334,0.349108 0.32767,0.665555 0.53302,0.96978 0.24499,0.397 0.58264,0.789602 0.67408,1.103031 0.1582,0.608549 0.10217,1.309303 -0.16341,1.879238 -0.14235,0.305482 -0.59676,0.350915 -0.53303,0.681855 0.0392,0.203675 0.51251,0.225045 0.70423,0.145899 0.58681,-0.242241 0.85229,-0.315892 1.14485,-0.641002 0.40117,-0.445805 0.56711,-1.070887 0.70908,-1.65357 0.1296,-0.531897 0.16225,-1.092216 0.11962,-1.638011 -0.0397,-0.508795 -0.2119,-0.999065 -0.34725,-1.491134 -0.16676,-0.60626 -0.43597,-1.183634 -0.57194,-1.797534 -0.10391,-0.469172 -0.31116,-0.966485 -0.18384,-1.429853 0.0776,-0.282262 0.54131,-0.691494 0.54131,-0.691494 1.13025,-2.193715 2.37281,-3.833207 3.77694,-4.466518 0.81231,-0.366379 1.76011,-0.638721 2.59456,-0.697907 0.62815,-0.04455 1.40293,0.0387 1.93552,0.176391 1.97827,0.485752 3.17986,1.401048 3.94433,2.040534 z"
         id="path37800"
         sodipodi:nodetypes="casasaaacccssssscccccsccsssaaaaaacsscc" />
    </g>
    <g
       id="g37812"
       transform="matrix(-1,0,0,1,143.27407,190.38734)">
      <path
         style="opacity:1;fill:#000000;stroke:#ffffee;stroke-width:0.083;stroke-linecap:butt;stroke-linejoin:miter;stroke-miterlimit:4;stroke-dasharray:none;stroke-opacity:1"
         d="m 117.86056,-30.737931 c -0.25646,0.719404 -0.33889,1.496665 -0.38184,2.259205 -0.0544,0.965127 0.45528,1.975439 0.1591,2.895603 -0.17104,0.531384 -1.05005,1.304612 -1.05005,1.304612 0,0 0.26179,0.540246 0.51137,0.668216 0.71238,0.365263 0.76851,0.382733 1.84875,0.514576 0.65861,0.08038 1.16473,-0.260694 1.56849,-0.658896 0.3499,-0.345084 0.38601,-0.875943 0.51105,-1.351211 0.24241,-0.921373 0.37251,-2.843046 0.37251,-2.843046 0,0 0.21124,-1.261032 1.2728,-1.209154 1.06156,0.05188 1.15852,1.259943 1.15852,1.259943 l -0.084,2.124041 c -0.0537,3.042358 2.57741,4.041115 2.57741,4.041115 -0.10662,-1.944837 0.13826,-3.142721 0.50911,-4.072935 l -0.73185,-2.163747 c 0.59222,-1.081157 1.08569,-1.224216 1.55917,-1.177332 0,0 -0.11277,-0.584488 -0.22274,-0.859134 -0.39712,-0.991769 -0.71166,-2.149724 -1.55917,-2.800144 -1.18463,-0.90915 -2.86217,-1.273022 -4.34454,-1.092791 -1.00707,0.122443 -1.95995,0.721174 -2.68764,1.428031 -0.47679,0.463139 -0.76321,1.10694 -0.98641,1.733048 z"
         id="path37804"
         sodipodi:nodetypes="aaacsscsczccccccaaaaaa" />
      <path
         style="display:inline;opacity:1;fill:#000000;stroke:#ffffff;stroke-width:0.12;stroke-linecap:butt;stroke-linejoin:miter;stroke-miterlimit:4;stroke-dasharray:none;stroke-opacity:1"
         d="m 124.14375,-32.096249 c 0,0 -0.97685,-0.471518 -1.485,-0.427501 -0.43609,0.03777 -0.80271,0.218434 -1.02375,0.596249 -0.18573,0.317467 -0.15263,0.806973 0.0112,1.13625 0.15789,0.317231 0.66949,0.565643 1.02375,0.57375 l 4.91625,0.1125 c 0,0 0.31975,-2.095375 0.09,-3.105 -0.029,-0.127559 -0.18,-0.348749 -0.18,-0.348749 0,0 -0.0464,0.273812 -0.135,0.37125 -0.28771,0.316509 -1.15875,0.551248 -1.15875,0.551248 z"
         id="path37806"
         sodipodi:nodetypes="csssscscscc" />
      <path
         style="display:inline;opacity:1;fill:#000000;stroke:#ffffff;stroke-width:0.083;stroke-linecap:butt;stroke-linejoin:miter;stroke-miterlimit:4;stroke-dasharray:none;stroke-opacity:1"
         d="m 117.86056,-30.737931 -2.37931,-0.593318 c 0,0 1.43589,-2.815992 2.64375,-3.757501 1.02329,-0.797641 2.34134,-1.280829 3.63375,-1.395 1.24396,-0.109891 2.52091,0.240862 3.67875,0.70875 0.8467,0.342157 2.295,1.496251 2.295,1.496251 l -1.755,1.49625 c -1.69322,-1.227703 -6.37316,-2.442389 -8.11694,2.044568 z"
         id="path37808"
         sodipodi:nodetypes="ccaaaccc" />
      <path
         style="fill:#0000ff;stroke:#fffff7;stroke-width:0.083;stroke-linecap:butt;stroke-linejoin:miter;stroke-miterlimit:4;stroke-dasharray:none;stroke-opacity:1"
         d="m 127.7325,-34.278749 c 0,0 0.61438,-1.144287 0.70936,-1.77403 0.13804,-0.915281 0.12464,-1.822922 -0.22469,-2.767792 -0.15009,-0.405976 -0.82557,-0.518444 -1.2256,-0.796633 -0.24373,-0.169491 -0.4803,-0.450843 -0.71492,-0.531089 -0.63087,-0.215778 -1.1328,-0.356317 -1.71583,-0.459597 -0.52839,-0.0936 -1.0672,-0.124219 -1.60348,-0.142984 -0.53767,-0.01881 -1.08201,-0.05156 -1.61369,0.03064 -0.43859,0.0678 -1.27666,0.377888 -1.27666,0.377888 -0.10859,0.11196 0.38129,0.394913 0.57194,0.59237 -0.28597,-0.129368 -0.78741,-0.41416 -0.85791,-0.388104 0,0 -0.80023,0.586185 -1.24602,0.796634 -0.45953,0.216933 -0.91939,0.255316 -1.36843,0.493194 -0.41161,0.218047 -0.78391,0.597489 -1.18488,0.834528 -0.41483,0.245229 -1.14718,0.765845 -1.5265,1.06305 -0.66568,0.521564 -0.91155,0.79807 -1.33321,1.531115 -0.43844,0.762219 -0.34676,0.643673 -0.53109,1.368576 -0.024,0.321339 -0.18491,0.955646 -0.0613,0.93962 l 0.55152,-0.285972 c -0.17708,0.313291 -0.44841,0.93962 -0.44841,0.93962 -0.0324,0.142887 0.0765,0.272601 0.16243,0.40853 0,0 -0.56244,3.365469 0.0593,5.280731 0.11334,0.349108 0.32767,0.665555 0.53302,0.96978 0.24499,0.397 0.58264,0.789602 0.67408,1.103031 0.1582,0.608549 0.10217,1.309303 -0.16341,1.879238 -0.14235,0.305482 -0.59676,0.350915 -0.53303,0.681855 0.0392,0.203675 0.51251,0.225045 0.70423,0.145899 0.58681,-0.242241 0.85229,-0.315892 1.14485,-0.641002 0.40117,-0.445805 0.56711,-1.070887 0.70908,-1.65357 0.1296,-0.531897 0.16225,-1.092216 0.11962,-1.638011 -0.0397,-0.508795 -0.2119,-0.999065 -0.34725,-1.491134 -0.16676,-0.60626 -0.43597,-1.183634 -0.57194,-1.797534 -0.10391,-0.469172 -0.31116,-0.966485 -0.18384,-1.429853 0.0776,-0.282262 0.54131,-0.691494 0.54131,-0.691494 1.13025,-2.193715 2.37281,-3.833207 3.77694,-4.466518 0.81231,-0.366379 1.76011,-0.638721 2.59456,-0.697907 0.62815,-0.04455 1.40293,0.0387 1.93552,0.176391 1.97827,0.485752 3.17986,1.401048 3.94433,2.040534 z"
         id="path37810"
         sodipodi:nodetypes="casasaaacccssssscccccsccsssaaaaaacsscc" />
    </g>
    <g
       id="g37902"
       transform="matrix(-1,0,0,1,233.8129,264.78497)">
      <path
         style="opacity:1;fill:#000000;stroke:#ffffee;stroke-width:0.083;stroke-linecap:butt;stroke-linejoin:miter;stroke-miterlimit:4;stroke-dasharray:none;stroke-opacity:1"
         d="m 117.86056,-30.737931 c -0.25646,0.719404 -0.33889,1.496665 -0.38184,2.259205 -0.0544,0.965127 0.45528,1.975439 0.1591,2.895603 -0.17104,0.531384 -1.05005,1.304612 -1.05005,1.304612 0,0 0.26179,0.540246 0.51137,0.668216 0.71238,0.365263 0.76851,0.382733 1.84875,0.514576 0.65861,0.08038 1.16473,-0.260694 1.56849,-0.658896 0.3499,-0.345084 0.38601,-0.875943 0.51105,-1.351211 0.24241,-0.921373 0.37251,-2.843046 0.37251,-2.843046 0,0 0.21124,-1.261032 1.2728,-1.209154 1.06156,0.05188 1.15852,1.259943 1.15852,1.259943 l -0.084,2.124041 c -0.0537,3.042358 2.57741,4.041115 2.57741,4.041115 -0.10662,-1.944837 0.13826,-3.142721 0.50911,-4.072935 l -0.73185,-2.163747 c 0.59222,-1.081157 1.08569,-1.224216 1.55917,-1.177332 0,0 -0.11277,-0.584488 -0.22274,-0.859134 -0.39712,-0.991769 -0.71166,-2.149724 -1.55917,-2.800144 -1.18463,-0.90915 -2.86217,-1.273022 -4.34454,-1.092791 -1.00707,0.122443 -1.95995,0.721174 -2.68764,1.428031 -0.47679,0.463139 -0.76321,1.10694 -0.98641,1.733048 z"
         id="path37894"
         sodipodi:nodetypes="aaacsscsczccccccaaaaaa" />
      <path
         style="display:inline;opacity:1;fill:#000000;stroke:#ffffff;stroke-width:0.12;stroke-linecap:butt;stroke-linejoin:miter;stroke-miterlimit:4;stroke-dasharray:none;stroke-opacity:1"
         d="m 124.14375,-32.096249 c 0,0 -0.97685,-0.471518 -1.485,-0.427501 -0.43609,0.03777 -0.80271,0.218434 -1.02375,0.596249 -0.18573,0.317467 -0.15263,0.806973 0.0112,1.13625 0.15789,0.317231 0.66949,0.565643 1.02375,0.57375 l 4.91625,0.1125 c 0,0 0.31975,-2.095375 0.09,-3.105 -0.029,-0.127559 -0.18,-0.348749 -0.18,-0.348749 0,0 -0.0464,0.273812 -0.135,0.37125 -0.28771,0.316509 -1.15875,0.551248 -1.15875,0.551248 z"
         id="path37896"
         sodipodi:nodetypes="csssscscscc" />
      <path
         style="display:inline;opacity:1;fill:#000000;stroke:#ffffff;stroke-width:0.083;stroke-linecap:butt;stroke-linejoin:miter;stroke-miterlimit:4;stroke-dasharray:none;stroke-opacity:1"
         d="m 117.86056,-30.737931 -2.37931,-0.593318 c 0,0 1.43589,-2.815992 2.64375,-3.757501 1.02329,-0.797641 2.34134,-1.280829 3.63375,-1.395 1.24396,-0.109891 2.52091,0.240862 3.67875,0.70875 0.8467,0.342157 2.295,1.496251 2.295,1.496251 l -1.755,1.49625 c -1.69322,-1.227703 -6.37316,-2.442389 -8.11694,2.044568 z"
         id="path37898"
         sodipodi:nodetypes="ccaaaccc" />
      <path
         style="fill:#0000ff;stroke:#fffff7;stroke-width:0.083;stroke-linecap:butt;stroke-linejoin:miter;stroke-miterlimit:4;stroke-dasharray:none;stroke-opacity:1"
         d="m 127.7325,-34.278749 c 0,0 0.61438,-1.144287 0.70936,-1.77403 0.13804,-0.915281 0.12464,-1.822922 -0.22469,-2.767792 -0.15009,-0.405976 -0.82557,-0.518444 -1.2256,-0.796633 -0.24373,-0.169491 -0.4803,-0.450843 -0.71492,-0.531089 -0.63087,-0.215778 -1.1328,-0.356317 -1.71583,-0.459597 -0.52839,-0.0936 -1.0672,-0.124219 -1.60348,-0.142984 -0.53767,-0.01881 -1.08201,-0.05156 -1.61369,0.03064 -0.43859,0.0678 -1.27666,0.377888 -1.27666,0.377888 -0.10859,0.11196 0.38129,0.394913 0.57194,0.59237 -0.28597,-0.129368 -0.78741,-0.41416 -0.85791,-0.388104 0,0 -0.80023,0.586185 -1.24602,0.796634 -0.45953,0.216933 -0.91939,0.255316 -1.36843,0.493194 -0.41161,0.218047 -0.78391,0.597489 -1.18488,0.834528 -0.41483,0.245229 -1.14718,0.765845 -1.5265,1.06305 -0.66568,0.521564 -0.91155,0.79807 -1.33321,1.531115 -0.43844,0.762219 -0.34676,0.643673 -0.53109,1.368576 -0.024,0.321339 -0.18491,0.955646 -0.0613,0.93962 l 0.55152,-0.285972 c -0.17708,0.313291 -0.44841,0.93962 -0.44841,0.93962 -0.0324,0.142887 0.0765,0.272601 0.16243,0.40853 0,0 -0.56244,3.365469 0.0593,5.280731 0.11334,0.349108 0.32767,0.665555 0.53302,0.96978 0.24499,0.397 0.58264,0.789602 0.67408,1.103031 0.1582,0.608549 0.10217,1.309303 -0.16341,1.879238 -0.14235,0.305482 -0.59676,0.350915 -0.53303,0.681855 0.0392,0.203675 0.51251,0.225045 0.70423,0.145899 0.58681,-0.242241 0.85229,-0.315892 1.14485,-0.641002 0.40117,-0.445805 0.56711,-1.070887 0.70908,-1.65357 0.1296,-0.531897 0.16225,-1.092216 0.11962,-1.638011 -0.0397,-0.508795 -0.2119,-0.999065 -0.34725,-1.491134 -0.16676,-0.60626 -0.43597,-1.183634 -0.57194,-1.797534 -0.10391,-0.469172 -0.31116,-0.966485 -0.18384,-1.429853 0.0776,-0.282262 0.54131,-0.691494 0.54131,-0.691494 1.13025,-2.193715 2.37281,-3.833207 3.77694,-4.466518 0.81231,-0.366379 1.76011,-0.638721 2.59456,-0.697907 0.62815,-0.04455 1.40293,0.0387 1.93552,0.176391 1.97827,0.485752 3.17986,1.401048 3.94433,2.040534 z"
         id="path37900"
         sodipodi:nodetypes="casasaaacccssssscccccsccsssaaaaaacsscc" />
    </g>
    <g
       id="g37912"
       transform="matrix(-1,0,0,1,187.54595,262.42263)">
      <path
         style="opacity:1;fill:#000000;stroke:#ffffee;stroke-width:0.083;stroke-linecap:butt;stroke-linejoin:miter;stroke-miterlimit:4;stroke-dasharray:none;stroke-opacity:1"
         d="m 117.86056,-30.737931 c -0.25646,0.719404 -0.33889,1.496665 -0.38184,2.259205 -0.0544,0.965127 0.45528,1.975439 0.1591,2.895603 -0.17104,0.531384 -1.05005,1.304612 -1.05005,1.304612 0,0 0.26179,0.540246 0.51137,0.668216 0.71238,0.365263 0.76851,0.382733 1.84875,0.514576 0.65861,0.08038 1.16473,-0.260694 1.56849,-0.658896 0.3499,-0.345084 0.38601,-0.875943 0.51105,-1.351211 0.24241,-0.921373 0.37251,-2.843046 0.37251,-2.843046 0,0 0.21124,-1.261032 1.2728,-1.209154 1.06156,0.05188 1.15852,1.259943 1.15852,1.259943 l -0.084,2.124041 c -0.0537,3.042358 2.57741,4.041115 2.57741,4.041115 -0.10662,-1.944837 0.13826,-3.142721 0.50911,-4.072935 l -0.73185,-2.163747 c 0.59222,-1.081157 1.08569,-1.224216 1.55917,-1.177332 0,0 -0.11277,-0.584488 -0.22274,-0.859134 -0.39712,-0.991769 -0.71166,-2.149724 -1.55917,-2.800144 -1.18463,-0.90915 -2.86217,-1.273022 -4.34454,-1.092791 -1.00707,0.122443 -1.95995,0.721174 -2.68764,1.428031 -0.47679,0.463139 -0.76321,1.10694 -0.98641,1.733048 z"
         id="path37904"
         sodipodi:nodetypes="aaacsscsczccccccaaaaaa" />
      <path
         style="display:inline;opacity:1;fill:#000000;stroke:#ffffff;stroke-width:0.12;stroke-linecap:butt;stroke-linejoin:miter;stroke-miterlimit:4;stroke-dasharray:none;stroke-opacity:1"
         d="m 124.14375,-32.096249 c 0,0 -0.97685,-0.471518 -1.485,-0.427501 -0.43609,0.03777 -0.80271,0.218434 -1.02375,0.596249 -0.18573,0.317467 -0.15263,0.806973 0.0112,1.13625 0.15789,0.317231 0.66949,0.565643 1.02375,0.57375 l 4.91625,0.1125 c 0,0 0.31975,-2.095375 0.09,-3.105 -0.029,-0.127559 -0.18,-0.348749 -0.18,-0.348749 0,0 -0.0464,0.273812 -0.135,0.37125 -0.28771,0.316509 -1.15875,0.551248 -1.15875,0.551248 z"
         id="path37906"
         sodipodi:nodetypes="csssscscscc" />
      <path
         style="display:inline;opacity:1;fill:#000000;stroke:#ffffff;stroke-width:0.083;stroke-linecap:butt;stroke-linejoin:miter;stroke-miterlimit:4;stroke-dasharray:none;stroke-opacity:1"
         d="m 117.86056,-30.737931 -2.37931,-0.593318 c 0,0 1.43589,-2.815992 2.64375,-3.757501 1.02329,-0.797641 2.34134,-1.280829 3.63375,-1.395 1.24396,-0.109891 2.52091,0.240862 3.67875,0.70875 0.8467,0.342157 2.295,1.496251 2.295,1.496251 l -1.755,1.49625 c -1.69322,-1.227703 -6.37316,-2.442389 -8.11694,2.044568 z"
         id="path37908"
         sodipodi:nodetypes="ccaaaccc" />
      <path
         style="fill:#0000ff;stroke:#fffff7;stroke-width:0.083;stroke-linecap:butt;stroke-linejoin:miter;stroke-miterlimit:4;stroke-dasharray:none;stroke-opacity:1"
         d="m 127.7325,-34.278749 c 0,0 0.61438,-1.144287 0.70936,-1.77403 0.13804,-0.915281 0.12464,-1.822922 -0.22469,-2.767792 -0.15009,-0.405976 -0.82557,-0.518444 -1.2256,-0.796633 -0.24373,-0.169491 -0.4803,-0.450843 -0.71492,-0.531089 -0.63087,-0.215778 -1.1328,-0.356317 -1.71583,-0.459597 -0.52839,-0.0936 -1.0672,-0.124219 -1.60348,-0.142984 -0.53767,-0.01881 -1.08201,-0.05156 -1.61369,0.03064 -0.43859,0.0678 -1.27666,0.377888 -1.27666,0.377888 -0.10859,0.11196 0.38129,0.394913 0.57194,0.59237 -0.28597,-0.129368 -0.78741,-0.41416 -0.85791,-0.388104 0,0 -0.80023,0.586185 -1.24602,0.796634 -0.45953,0.216933 -0.91939,0.255316 -1.36843,0.493194 -0.41161,0.218047 -0.78391,0.597489 -1.18488,0.834528 -0.41483,0.245229 -1.14718,0.765845 -1.5265,1.06305 -0.66568,0.521564 -0.91155,0.79807 -1.33321,1.531115 -0.43844,0.762219 -0.34676,0.643673 -0.53109,1.368576 -0.024,0.321339 -0.18491,0.955646 -0.0613,0.93962 l 0.55152,-0.285972 c -0.17708,0.313291 -0.44841,0.93962 -0.44841,0.93962 -0.0324,0.142887 0.0765,0.272601 0.16243,0.40853 0,0 -0.56244,3.365469 0.0593,5.280731 0.11334,0.349108 0.32767,0.665555 0.53302,0.96978 0.24499,0.397 0.58264,0.789602 0.67408,1.103031 0.1582,0.608549 0.10217,1.309303 -0.16341,1.879238 -0.14235,0.305482 -0.59676,0.350915 -0.53303,0.681855 0.0392,0.203675 0.51251,0.225045 0.70423,0.145899 0.58681,-0.242241 0.85229,-0.315892 1.14485,-0.641002 0.40117,-0.445805 0.56711,-1.070887 0.70908,-1.65357 0.1296,-0.531897 0.16225,-1.092216 0.11962,-1.638011 -0.0397,-0.508795 -0.2119,-0.999065 -0.34725,-1.491134 -0.16676,-0.60626 -0.43597,-1.183634 -0.57194,-1.797534 -0.10391,-0.469172 -0.31116,-0.966485 -0.18384,-1.429853 0.0776,-0.282262 0.54131,-0.691494 0.54131,-0.691494 1.13025,-2.193715 2.37281,-3.833207 3.77694,-4.466518 0.81231,-0.366379 1.76011,-0.638721 2.59456,-0.697907 0.62815,-0.04455 1.40293,0.0387 1.93552,0.176391 1.97827,0.485752 3.17986,1.401048 3.94433,2.040534 z"
         id="path37910"
         sodipodi:nodetypes="casasaaacccssssscccccsccsssaaaaaacsscc" />
    </g>
    <g
       id="g37922"
       transform="matrix(-1,0,0,1,142.96743,261.69903)">
      <path
         style="opacity:1;fill:#000000;stroke:#ffffee;stroke-width:0.083;stroke-linecap:butt;stroke-linejoin:miter;stroke-miterlimit:4;stroke-dasharray:none;stroke-opacity:1"
         d="m 117.86056,-30.737931 c -0.25646,0.719404 -0.33889,1.496665 -0.38184,2.259205 -0.0544,0.965127 0.45528,1.975439 0.1591,2.895603 -0.17104,0.531384 -1.05005,1.304612 -1.05005,1.304612 0,0 0.26179,0.540246 0.51137,0.668216 0.71238,0.365263 0.76851,0.382733 1.84875,0.514576 0.65861,0.08038 1.16473,-0.260694 1.56849,-0.658896 0.3499,-0.345084 0.38601,-0.875943 0.51105,-1.351211 0.24241,-0.921373 0.37251,-2.843046 0.37251,-2.843046 0,0 0.21124,-1.261032 1.2728,-1.209154 1.06156,0.05188 1.15852,1.259943 1.15852,1.259943 l -0.084,2.124041 c -0.0537,3.042358 2.57741,4.041115 2.57741,4.041115 -0.10662,-1.944837 0.13826,-3.142721 0.50911,-4.072935 l -0.73185,-2.163747 c 0.59222,-1.081157 1.08569,-1.224216 1.55917,-1.177332 0,0 -0.11277,-0.584488 -0.22274,-0.859134 -0.39712,-0.991769 -0.71166,-2.149724 -1.55917,-2.800144 -1.18463,-0.90915 -2.86217,-1.273022 -4.34454,-1.092791 -1.00707,0.122443 -1.95995,0.721174 -2.68764,1.428031 -0.47679,0.463139 -0.76321,1.10694 -0.98641,1.733048 z"
         id="path37914"
         sodipodi:nodetypes="aaacsscsczccccccaaaaaa" />
      <path
         style="display:inline;opacity:1;fill:#000000;stroke:#ffffff;stroke-width:0.12;stroke-linecap:butt;stroke-linejoin:miter;stroke-miterlimit:4;stroke-dasharray:none;stroke-opacity:1"
         d="m 124.14375,-32.096249 c 0,0 -0.97685,-0.471518 -1.485,-0.427501 -0.43609,0.03777 -0.80271,0.218434 -1.02375,0.596249 -0.18573,0.317467 -0.15263,0.806973 0.0112,1.13625 0.15789,0.317231 0.66949,0.565643 1.02375,0.57375 l 4.91625,0.1125 c 0,0 0.31975,-2.095375 0.09,-3.105 -0.029,-0.127559 -0.18,-0.348749 -0.18,-0.348749 0,0 -0.0464,0.273812 -0.135,0.37125 -0.28771,0.316509 -1.15875,0.551248 -1.15875,0.551248 z"
         id="path37916"
         sodipodi:nodetypes="csssscscscc" />
      <path
         style="display:inline;opacity:1;fill:#000000;stroke:#ffffff;stroke-width:0.083;stroke-linecap:butt;stroke-linejoin:miter;stroke-miterlimit:4;stroke-dasharray:none;stroke-opacity:1"
         d="m 117.86056,-30.737931 -2.37931,-0.593318 c 0,0 1.43589,-2.815992 2.64375,-3.757501 1.02329,-0.797641 2.34134,-1.280829 3.63375,-1.395 1.24396,-0.109891 2.52091,0.240862 3.67875,0.70875 0.8467,0.342157 2.295,1.496251 2.295,1.496251 l -1.755,1.49625 c -1.69322,-1.227703 -6.37316,-2.442389 -8.11694,2.044568 z"
         id="path37918"
         sodipodi:nodetypes="ccaaaccc" />
      <path
         style="fill:#0000ff;stroke:#fffff7;stroke-width:0.083;stroke-linecap:butt;stroke-linejoin:miter;stroke-miterlimit:4;stroke-dasharray:none;stroke-opacity:1"
         d="m 127.7325,-34.278749 c 0,0 0.61438,-1.144287 0.70936,-1.77403 0.13804,-0.915281 0.12464,-1.822922 -0.22469,-2.767792 -0.15009,-0.405976 -0.82557,-0.518444 -1.2256,-0.796633 -0.24373,-0.169491 -0.4803,-0.450843 -0.71492,-0.531089 -0.63087,-0.215778 -1.1328,-0.356317 -1.71583,-0.459597 -0.52839,-0.0936 -1.0672,-0.124219 -1.60348,-0.142984 -0.53767,-0.01881 -1.08201,-0.05156 -1.61369,0.03064 -0.43859,0.0678 -1.27666,0.377888 -1.27666,0.377888 -0.10859,0.11196 0.38129,0.394913 0.57194,0.59237 -0.28597,-0.129368 -0.78741,-0.41416 -0.85791,-0.388104 0,0 -0.80023,0.586185 -1.24602,0.796634 -0.45953,0.216933 -0.91939,0.255316 -1.36843,0.493194 -0.41161,0.218047 -0.78391,0.597489 -1.18488,0.834528 -0.41483,0.245229 -1.14718,0.765845 -1.5265,1.06305 -0.66568,0.521564 -0.91155,0.79807 -1.33321,1.531115 -0.43844,0.762219 -0.34676,0.643673 -0.53109,1.368576 -0.024,0.321339 -0.18491,0.955646 -0.0613,0.93962 l 0.55152,-0.285972 c -0.17708,0.313291 -0.44841,0.93962 -0.44841,0.93962 -0.0324,0.142887 0.0765,0.272601 0.16243,0.40853 0,0 -0.56244,3.365469 0.0593,5.280731 0.11334,0.349108 0.32767,0.665555 0.53302,0.96978 0.24499,0.397 0.58264,0.789602 0.67408,1.103031 0.1582,0.608549 0.10217,1.309303 -0.16341,1.879238 -0.14235,0.305482 -0.59676,0.350915 -0.53303,0.681855 0.0392,0.203675 0.51251,0.225045 0.70423,0.145899 0.58681,-0.242241 0.85229,-0.315892 1.14485,-0.641002 0.40117,-0.445805 0.56711,-1.070887 0.70908,-1.65357 0.1296,-0.531897 0.16225,-1.092216 0.11962,-1.638011 -0.0397,-0.508795 -0.2119,-0.999065 -0.34725,-1.491134 -0.16676,-0.60626 -0.43597,-1.183634 -0.57194,-1.797534 -0.10391,-0.469172 -0.31116,-0.966485 -0.18384,-1.429853 0.0776,-0.282262 0.54131,-0.691494 0.54131,-0.691494 1.13025,-2.193715 2.37281,-3.833207 3.77694,-4.466518 0.81231,-0.366379 1.76011,-0.638721 2.59456,-0.697907 0.62815,-0.04455 1.40293,0.0387 1.93552,0.176391 1.97827,0.485752 3.17986,1.401048 3.94433,2.040534 z"
         id="path37920"
         sodipodi:nodetypes="casasaaacccssssscccccsccsssaaaaaacsscc" />
    </g>
  </g>
</svg>
