<?xml version="1.0" encoding="UTF-8" standalone="no"?>
<!-- Created with Inkscape (http://www.inkscape.org/) -->

<svg
   version="1.1"
   id="svg824"
   width="600"
   height="600"
   viewBox="0 0 600 600"
   sodipodi:docname="Tirachinas Guia.svg"
   inkscape:version="1.1.1 (3bf5ae0d25, 2021-09-20)"
   xmlns:inkscape="http://www.inkscape.org/namespaces/inkscape"
   xmlns:sodipodi="http://sodipodi.sourceforge.net/DTD/sodipodi-0.dtd"
   xmlns="http://www.w3.org/2000/svg"
   xmlns:svg="http://www.w3.org/2000/svg">
  <defs
     id="defs828">
    <inkscape:path-effect
       effect="bend_path"
       id="path-effect8832"
       is_visible="true"
       lpeversion="1"
       bendpath="m -358.50232,2576.4234 c 8.75629,23.4055 15.35232,47.3915 21.67872,71.5034 1.76301,6.7193 3.50002,13.4611 5.78378,20.0217 10.094,28.9977 24.23435,61.1996 46.0446,82.8829 3.57674,3.556 7.63636,3.1541 11.46728,5.6919 0.39775,0.2632 0.003,0.9542 0.004,1.4313 0.4785,0.4756 0.83112,1.1272 1.4355,1.4272 11.35646,5.6369 2.86142,0.6411 12.89442,4.2563 1.73384,0.6248 21.61833,8.9205 24.35335,7.0856 8.62057,-5.7835 6.23285,-16.0409 8.5169,-24.3575 0.9864,-3.5917 9.43161,-20.6877 11.37954,-24.3659 7.34799,-13.8749 14.0802,-28.4426 22.77996,-41.5751 4.07543,-6.152 11.12304,-11.4733 15.6944,-17.2219 6.75222,-8.4909 13.07751,-17.356 19.96329,-25.8222 3.67471,-4.5182 6.15524,-9.9484 9.97746,-14.3425 1.56565,-1.7999 4.16556,-2.4949 5.71275,-4.3107 1.38386,-1.624 1.46208,-4.1095 2.84593,-5.7336 1.5472,-1.8157 4.03085,-2.6189 5.71275,-4.3107 1.6819,-1.6917 2.47055,-4.18 4.27725,-5.7378 17.27331,-14.8933 51.313834,-7.4886 70.126372,-3.0674 4.736534,1.1132 9.701207,1.2958 14.32157,2.8209 22.140623,7.3085 42.4001768,27.1151 55.955215,45.6393 9.113037,12.4539 15.750336,26.4784 23.018122,40.0102 17.402665,32.4018 -6.735013,-13.225 12.940384,20.0008 2.717977,4.5899 4.512273,9.6838 7.198385,14.2924 12.647912,21.7 27.586063,41.5918 44.546432,59.9859 2.52598,2.7396 4.40464,6.0824 7.18164,8.5671 10.58028,9.4664 31.83705,17.8274 45.8357,11.3168 35.98705,-16.737 61.00521,-66.8403 74.13208,-101.841 3.17888,-8.476 5.3589,-17.3035 8.51274,-25.7889 4.69256,-12.6254 10.57236,-24.7789 15.63586,-37.2603 1.93175,-4.7616 2.97276,-9.9644 5.6835,-14.3299 0.78519,-1.2645 17.32897,-17.6356 18.55707,-17.2301 17.91713,5.9143 28.87313,21.3598 40.18141,35.666 22.87576,28.9403 41.50898,61.2146 60.38704,92.8604 20.0969,33.6889 47.64307,89.3208 89.03859,101.3647 8.57527,2.495 21.2985,3.8505 30.07025,4.2062 25.8563,1.0486 41.32876,0.055 62.93216,-15.9283 29.27965,-21.6611 29.46724,-24.4664 49.9333,-55.9678 30.17916,-46.4518 21.68495,-35.1237 46.99127,-83.1545 5.07632,-9.6347 11.03952,-18.8114 15.66096,-28.6724 3.45979,-7.3823 5.36632,-15.4084 8.52108,-22.9262 3.30252,-7.8699 7.58917,-15.2897 11.38369,-22.9345"
       prop_scale="1"
       scale_y_rel="false"
       vertical="false"
       hide_knot="false" />
  </defs>
  <sodipodi:namedview
     id="namedview826"
     pagecolor="#505050"
     bordercolor="#eeeeee"
     borderopacity="1"
     inkscape:pageshadow="0"
     inkscape:pageopacity="0"
     inkscape:pagecheckerboard="0"
     showgrid="false"
     inkscape:zoom="1.3715585"
     inkscape:cx="362.18701"
     inkscape:cy="297.08386"
     inkscape:window-width="1920"
     inkscape:window-height="1017"
     inkscape:window-x="1352"
     inkscape:window-y="-8"
     inkscape:window-maximized="1"
     inkscape:current-layer="layer2"
     showguides="false"
     inkscape:guide-bbox="true">
    <sodipodi:guide
       position="181.25,-64.062502"
       orientation="0,-1"
       id="guide15917" />
    <sodipodi:guide
       position="80.46875,-68.750003"
       orientation="1,0"
       id="guide16309" />
  </sodipodi:namedview>
  <g
     inkscape:groupmode="layer"
     id="layer1"
     inkscape:label="Tirachinas"
     style="display:none;opacity:0.437637">
    <path
       style="display:inline;fill:#000000;stroke-width:1.4671"
       d="m 395.09546,548.70359 c -4.05723,-1.23155 -9.90672,-3.6459 -12.99886,-5.36523 l -5.62207,-3.12604 -0.003,-82.2939 c -0.004,-96.47868 -1.59521,-127.63706 -7.99378,-156.5779 -3.62294,-16.3866 -6.12912,-20.21749 -21.15221,-32.33297 -34.67924,-27.96729 -58.80473,-64.37456 -71.96976,-108.6081 -3.74707,-12.58988 -9.72577,-42.9308 -11.76439,-59.70227 l -0.6516,-5.360702 21.2839,-0.09466 c 17.75181,-0.07903 22.64362,-0.618333 29.47741,-3.250069 5.56908,-2.144679 8.3501,-2.604933 8.6824,-1.436928 0.26887,0.945152 2.385,9.300018 4.70251,18.566379 12.58105,50.30428 34.01943,86.28722 59.26599,99.4741 12.39446,6.47395 17.0798,6.72747 30.74056,1.66341 13.39247,-4.96462 18.22023,-8.37625 27.26028,-19.26398 14.1068,-16.99003 25.78724,-48.96326 33.65189,-92.116243 3.76652,-20.666694 4.69079,-23.845481 6.60815,-22.727086 7.38441,4.307338 46.69521,5.8399 55.48621,2.16318 2.53265,-1.059244 2.61256,-0.376245 1.73718,14.848144 -2.77186,48.207755 -16.32432,88.384385 -42.71974,126.643825 -4.46143,6.46672 -15.79072,20.48444 -25.1762,31.15049 -12.77783,14.52125 -18.13268,21.84252 -21.31669,29.14459 -11.52314,26.42669 -14.07487,58.77839 -11.27935,143.00342 1.03452,31.16864 1.88095,71.29273 1.88095,89.16464 0,29.1468 -0.2584,32.77594 -2.50821,35.22746 -2.10433,2.29297 -5.38551,2.79044 -20.3766,3.08939 -12.28298,0.24492 -20.17424,-0.34364 -25.24516,-1.8829 z M 45.679,332.356 c -2.628651,-8.75097 -6.422561,-26.20975 -6.45144,-29.6882 -0.03078,-3.7123 6.248377,-4.53224 8.229572,-1.07462 3.366775,5.87576 8.613044,1.48648 8.613044,-7.2061 0,-2.25036 1.61117,-6.1785 3.580378,-8.72916 7.687793,-9.95787 12.622737,-25.64884 16.74464,-53.24068 1.195516,-8.00276 2.500616,-16.705 2.900208,-19.3383 0.638771,-4.20945 1.90493,-5.36209 10.481283,-9.54168 25.270065,-12.31504 61.063745,-20.18274 91.188425,-20.04387 26.75347,0.1233 29.57634,0.82714 33.513,8.35557 1.75627,3.35865 4.26686,9.75338 5.5791,14.2105 l 2.38588,8.10387 -3.70638,3.74575 c -2.802,2.83174 -4.68852,3.53168 -7.73126,2.86841 -4.43732,-0.96726 -6.48525,0.87664 -7.8244,7.04486 -1.1763,5.41808 1.14451,15.22912 4.45627,18.83865 2.67885,2.9197 3.03129,2.94419 7.69027,0.5346 6.45682,-3.33944 10.78472,-3.27717 10.77114,0.15502 -0.0237,6.0085 -2.98099,23.01218 -5.07857,29.20146 -1.71236,5.05266 -2.78385,6.38007 -4.54793,5.63422 -20.90169,-8.83724 -60.02196,-6.4082 -94.38414,5.86048 -29.255774,10.44548 -48.843693,22.38273 -62.891329,38.32717 -4.811237,5.4609 -8.747713,10.67778 -8.747713,11.5931 0,4.24029 -2.800348,0.94622 -4.770048,-5.61105 z M 32.720064,296.06929 c -1.817789,-5.16299 0.146233,-7.51238 7.892008,-9.44052 6.545678,-1.62941 8.04815,-1.58407 9.813156,0.29611 3.221455,3.43166 0.163968,7.08395 -7.818723,9.33978 -8.734349,2.46823 -8.95013,2.46396 -9.886441,-0.19537 z m 21.94483,-12.17573 c 0,-1.37818 -0.745755,-3.80728 -1.657221,-5.398 -1.318703,-2.30141 -1.202893,-3.648 0.566933,-6.59193 4.105349,-6.82887 8.229403,-24.71309 13.167143,-57.10012 2.697059,-17.69031 5.840437,-36.64422 6.985278,-42.11979 11.583657,-55.4028 35.494643,-87.765272 75.916773,-102.749991 22.02296,-8.16404 53.91135,-11.744666 82.6172,-9.276738 16.77674,1.442335 19.07166,2.397842 19.1219,7.961544 0.0188,2.09104 -3.98174,2.372523 -32.6513,2.297443 -35.92082,-0.09404 -45.98621,1.379874 -67.28954,9.85364 -36.13366,14.372787 -57.847041,44.133812 -68.735898,94.211542 -1.465344,6.73917 -4.594008,25.34846 -6.952549,41.35398 -4.809761,32.63983 -8.293751,48.07177 -13.268605,58.77185 -3.933539,8.46036 -7.820114,12.82726 -7.820114,8.78657 z m -22.484515,-2.03503 c 0,-4.43791 0.717369,-4.67776 9.504219,-3.1777 8.429557,1.43907 12.240401,3.43242 6.937583,3.62887 -1.700392,0.063 -6.095412,0.65817 -9.766712,1.32262 -6.057089,1.09625 -6.67509,0.93203 -6.67509,-1.77379 z m 5.621129,-10.86928 c 0,-8.12334 3.061505,-22.36567 6.309239,-29.351 3.114091,-6.69787 17.03462,-22.57962 18.444455,-21.04303 1.477092,1.60991 -6.486417,38.59753 -9.991022,46.40473 -3.568714,7.94997 -3.961659,8.30289 -9.244902,8.30289 -5.114047,0 -5.51777,-0.31563 -5.51777,-4.31359 z m 175.191862,-28.8717 c -0.51527,-0.56159 -0.93686,-2.60273 -0.93686,-4.53585 0,-3.52129 0.88603,-3.9849 13.64983,-7.14215 3.57247,-0.88367 6.47352,2.13229 5.78721,6.01645 -0.62261,3.52359 -16.1125,8.26391 -18.50018,5.66155 z m -0.93686,-12.32588 c 0,-1.37041 20.39278,-21.43022 28.62331,-28.15597 9.76816,-7.98224 30.2045,-21.29384 32.69094,-21.29384 0.90667,0 2.27954,1.97291 3.05078,4.38423 1.30767,4.08844 1.0688,4.55754 -3.54065,6.95326 -8.29359,4.31052 -26.92158,17.8301 -37.29173,27.06513 -7.34512,6.54111 -11.54833,9.11772 -16.67646,10.22284 -3.7709,0.81264 -6.85619,1.1836 -6.85619,0.82435 z m 137.09773,-76.84479 -2.09738,-4.42056 25.31103,-9.41135 c 43.26164,-16.08588 71.49218,-30.74182 92.3344,-47.935577 l 8.99815,-7.423023 -0.92777,6.555876 c -1.07743,7.613282 -4.99721,11.937894 -19.00762,20.970614 -21.07774,13.58915 -44.86311,24.88704 -80.57145,38.27091 -11.46582,4.29752 -21.09332,7.81367 -21.39446,7.81367 -0.30113,0 -1.49134,-1.98925 -2.6449,-4.42056 z M 264.05195,89.6277 c -2.25466,-1.32011 -3.53937,-3.423174 -3.58625,-5.870671 -0.0402,-2.097519 -0.40535,-4.485619 -0.81152,-5.306879 -0.40615,-0.821274 -0.83699,-4.844434 -0.95738,-8.940376 -0.20664,-7.030466 -0.0433,-7.39069 2.91945,-6.437833 11.73329,3.77355 40.60189,1.033604 51.60078,-4.897474 l 5.61037,-3.02535 1.41273,5.543209 c 1.95712,7.67928 1.84991,8.419914 -1.73349,11.976723 -4.06888,4.038675 -14.61807,7.7178 -27.05168,9.434526 -9.52256,1.31478 -9.60942,1.36439 -2.71734,1.551938 9.77707,0.266074 22.8646,-2.511381 28.41452,-6.03016 3.80486,-2.412345 4.7518,-2.547772 5.37803,-0.769107 1.47434,4.187503 -2.26638,8.405133 -9.6688,10.901458 -10.12623,3.414889 -43.95714,4.711014 -48.80942,1.869996 z m 232.0287,-15.06833 c -11.09922,-2.150728 -14.8307,-4.503433 -15.37592,-9.694581 -0.39611,-3.771452 -0.0904,-4.237159 2.10792,-3.210447 7.13226,3.33117 20.96388,5.264054 36.29802,5.072417 l 16.86339,-0.210752 -16.86339,-1.037112 c -17.5066,-1.076658 -31.26404,-4.436163 -35.04588,-8.55802 -2.35694,-2.568848 -2.9369,-7.617923 -1.02312,-8.907049 0.64404,-0.433833 0.87663,-2.974637 0.51687,-5.646226 -0.35977,-2.671604 -0.0963,-4.560991 0.58562,-4.198653 8.66269,4.603401 13.77854,6.102912 25.43923,7.456565 12.1415,1.409466 23.97495,0.771864 32.68108,-1.760883 2.8642,-0.833236 3.53559,5.288086 0.84675,7.720251 -1.17303,1.061066 -8.00161,2.502283 -15.17459,3.202696 l -13.0418,1.273488 14.95359,-0.397611 14.95359,-0.39761 0.74532,6.056365 c 0.94386,7.669585 0.30106,9.400892 -4.38077,11.798962 -4.78368,2.450254 -34.90451,3.41109 -45.08591,1.4382 z M 266.15988,59.766533 c -5.79213,-1.551723 -6.32377,-3.277057 -6.32377,-20.522031 0,-9.163198 0.23895,-16.660366 0.53103,-16.660366 0.29206,0 2.97966,1.1501 5.97245,2.555782 5.79771,2.723129 33.45291,3.856672 42.17348,1.728627 l 4.41057,-1.076306 0.94517,10.266062 c 0.51986,5.646334 1.26997,11.488195 1.66692,12.9819 0.54538,2.052245 -0.76463,3.432441 -5.36139,5.648616 -9.25195,4.460546 -35.16116,7.44955 -44.01446,5.077716 z M 507.16577,41.010945 c -5.02388,-0.700092 -11.8945,-2.482081 -15.26804,-3.95998 l -6.1337,-2.687074 0.8639,-6.869446 c 0.47514,-3.778221 0.86389,-9.155019 0.86389,-11.948464 v -5.078988 l 5.97245,2.347971 c 6.99484,2.749902 37.4872,3.321123 43.42294,0.813448 3.25913,-1.376888 3.82657,-1.1552 4.54799,1.776751 0.45334,1.842442 0.83289,7.921843 0.84345,13.50976 0.0174,9.242154 -0.26642,10.245661 -3.14271,11.110021 -5.82312,1.749901 -22.74366,2.271757 -31.97017,0.986001 z M 274.22923,24.119961 c -7.26186,-1.675081 -13.29803,-4.744894 -14.00754,-7.123819 -0.63612,-2.132778 9.137,-6.134203 18.09565,-7.408947 16.88163,-2.4021052 42.10728,8.790629 31.05497,13.77922 -3.87629,1.749595 -28.53294,2.278297 -35.14308,0.753546 z M 493.81559,9.5211205 c -3.09162,-1.2139228 -5.87722,-2.2175225 -6.19025,-2.2302043 -0.31301,-0.012253 0.54819,-1.3686695 1.91377,-3.0133016 5.75942,-6.9362711 32.16051,-7.9669039 45.03849,-1.7582024 6.98074,3.3655394 7.70284,6.2611965 1.99491,7.9996868 -6.62856,2.01887 -36.8714,1.312989 -42.75692,-0.9979785 z"
       id="path955" />
  </g>
  <g
     inkscape:groupmode="layer"
     id="layer3"
     inkscape:label="Cuerda" />
  <g
     inkscape:groupmode="layer"
     id="layer2"
     inkscape:label="Tirachinas 1"
     style="display:inline;opacity:1">
    <path
       style="fill:none;stroke:#000000;stroke-width:2.75182;stroke-linecap:round;stroke-linejoin:miter;stroke-miterlimit:4;stroke-dasharray:none;stroke-opacity:1"
       d="m 376.15445,220.84201 10.61602,-5.4653"
       id="path14489"
       sodipodi:nodetypes="cc" />
    <g
       id="g14497"
       transform="matrix(0.22422617,0,0,0.22422617,273.51366,204.08226)">
      <path
         style="fill:#784421;stroke:#000000;stroke-width:1px;stroke-linecap:butt;stroke-linejoin:miter;stroke-opacity:1"
         d="m 386.43206,275.94849 c 21.70041,76.23785 0.1857,216.84177 1.33144,261.41642 0.6356,4.52131 5.04157,9.86716 7.44643,10.10201 1.44078,0.21097 17.31853,3.72871 30.38905,2.65236 13.79275,-1.13584 22.99134,-5.87842 24.13096,-6.28192 1.64618,-0.58287 3.48362,-3.86763 3.62207,-6.76028 1.88978,-39.48413 -6.11765,-192.73409 5.48927,-264.26912 19.79923,-31.9577 33.48315,-62.39254 44.65288,-95.95982 11.22904,-33.7455 14.7497,-64.44239 18.18768,-91.841733 3.38879,-30.273439 3.52418,-64.614496 3.78587,-78.0360404 L 488.41843,6.6061078 c 0,0 -1.84583,52.8499462 -6.17576,78.8587082 -4.97752,29.898694 -15.12068,68.239284 -22.65326,88.063614 -7.29935,19.21051 -16.46732,42.40982 -35.04541,43.44946"
         id="path14495"
         sodipodi:nodetypes="cccssscccccasc" />
    </g>
    <path
       style="fill:#4d4d4d;stroke:#000000;stroke-width:0.291132;stroke-linecap:butt;stroke-linejoin:miter;stroke-miterlimit:4;stroke-dasharray:none;stroke-opacity:0.510152"
       d="m 382.59437,211.69383 c 3.43138,-0.27714 5.93182,-0.28286 8.78158,0.22848 0.003,3.37964 -0.0488,4.15855 -0.33469,7.26838 -3.17619,-0.2007 -5.30727,-0.19296 -8.92742,-0.0747 -0.17411,-3.50977 0.25472,-6.37415 0.48053,-7.42215 z"
       id="path14507"
       sodipodi:nodetypes="ccccc" />
    <path
       style="fill:none;stroke:#000000;stroke-width:2.75182;stroke-linecap:round;stroke-linejoin:miter;stroke-miterlimit:4;stroke-dasharray:none;stroke-opacity:1"
       d="M 33.890665,132.76411 218.42858,31.12829"
       id="path11904"
       sodipodi:nodetypes="cc" />
    <rect
       style="fill:#241c1c;fill-opacity:1;stroke:#000000;stroke-width:0.158825;stroke-opacity:0.510152"
       id="rect5931"
       width="32.257923"
       height="31.976196"
       x="16.340652"
       y="110.49442"
       ry="9.2970438" />
    <path
       style="fill:none;stroke:#000000;stroke-width:2.75182;stroke-linecap:round;stroke-linejoin:miter;stroke-miterlimit:4;stroke-dasharray:none;stroke-opacity:1"
       d="M 32.785246,127.29036 178.02038,36.241961"
       id="path11906"
       sodipodi:nodetypes="cc" />
    <path
       style="fill:none;stroke:#000000;stroke-width:2.75182;stroke-linecap:round;stroke-linejoin:miter;stroke-miterlimit:4;stroke-dasharray:none;stroke-opacity:1"
       d="M 315.67009,105.73818 C 360.31174,76.720303 422.75366,63.36657 457.27322,30.788035"
       id="path11484"
       sodipodi:nodetypes="cc" />
    <rect
       style="fill:#241c1c;fill-opacity:1;stroke:#000000;stroke-width:0.158825;stroke-opacity:0.510152"
       id="rect6869"
       width="32.257923"
       height="31.976196"
       x="298.70151"
       y="86.923096"
       ry="9.2970438" />
    <path
       style="fill:none;stroke:#000000;stroke-width:2.75182;stroke-linecap:round;stroke-linejoin:miter;stroke-miterlimit:4;stroke-dasharray:none;stroke-opacity:1"
       d="M 313.0962,102.80034 C 345.56554,69.546113 390.18557,66.229581 417.49542,32.638502"
       id="path10047"
       sodipodi:nodetypes="cc" />
    <g
       id="g24173"
       transform="matrix(0.22422617,0,0,0.22422617,106.15322,19.512191)">
      <path
         style="fill:#784421;stroke:#000000;stroke-width:1px;stroke-linecap:butt;stroke-linejoin:miter;stroke-opacity:1"
         d="m 386.43206,275.94849 c 21.70041,76.23785 0.1857,216.84177 1.33144,261.41642 0.6356,4.52131 5.04157,9.86716 7.44643,10.10201 1.44078,0.21097 17.31853,3.72871 30.38905,2.65236 13.79275,-1.13584 22.99134,-5.87842 24.13096,-6.28192 1.64618,-0.58287 3.48362,-3.86763 3.62207,-6.76028 1.88978,-39.48413 -6.11765,-192.73409 5.48927,-264.26912 19.79923,-31.9577 33.48315,-62.39254 44.65288,-95.95982 11.22904,-33.7455 14.7497,-64.44239 18.18768,-91.841733 3.38879,-30.273439 3.52418,-64.614496 3.78587,-78.0360404 L 488.41843,6.6061078 c 0,0 -1.84583,52.8499462 -6.17576,78.8587082 -4.97752,29.898694 -15.12068,68.239284 -22.65326,88.063614 -7.29935,19.21051 -16.46732,42.40982 -35.04541,43.44946"
         id="path24167"
         sodipodi:nodetypes="cccssscccccasc" />
    </g>
    <path
       d="m 201.34709,68.16431 c -5.30192,1.398304 -13.07787,-12.381705 -15.22277,-18.769753 -1.92719,-5.296653 -3.73683,-25.003328 -3.73683,-25.003328 l -11.43933,0.116677 c -0.22214,11.283294 3.75938,26.903313 7.85059,37.233189 6.89658,13.140214 10.43383,11.062874 14.00264,19.645928"
       style="fill:#784421;stroke:#000000;stroke-width:0.224272;stroke-linecap:butt;stroke-linejoin:miter;stroke-miterlimit:4;stroke-dasharray:none;stroke-opacity:1"
       id="path26395"
       sodipodi:nodetypes="cccccc" />
    <path
       style="fill:#552200;fill-opacity:1;stroke:#000000;stroke-width:0.163;stroke-miterlimit:4;stroke-dasharray:none;stroke-opacity:1"
       id="path58896"
       sodipodi:type="arc"
       sodipodi:cx="176.72462"
       sodipodi:cy="24.41729"
       sodipodi:rx="5.6636229"
       sodipodi:ry="1.5852971"
       sodipodi:start="0"
       sodipodi:end="6.2667443"
       sodipodi:open="true"
       sodipodi:arc-type="arc"
       d="m 182.38825,24.41729 a 5.6636229,1.5852971 0 0 1 -5.64035,1.585283 5.6636229,1.5852971 0 0 1 -5.68671,-1.572251 5.6636229,1.5852971 0 0 1 5.5936,-1.598209 5.6636229,1.5852971 0 0 1 5.73269,1.559114" />
    <path
       style="fill:#552200;fill-opacity:1;stroke:#000000;stroke-width:0.163;stroke-miterlimit:4;stroke-dasharray:none;stroke-opacity:1"
       id="path62175"
       sodipodi:type="arc"
       sodipodi:cx="219.80241"
       sodipodi:cy="21.093002"
       sodipodi:rx="4.1749783"
       sodipodi:ry="1.0868711"
       sodipodi:start="0"
       sodipodi:end="6.2667443"
       sodipodi:open="true"
       sodipodi:arc-type="arc"
       d="m 223.97739,21.093002 a 4.1749783,1.0868711 0 0 1 -4.15782,1.086862 4.1749783,1.0868711 0 0 1 -4.19199,-1.077927 4.1749783,1.0868711 0 0 1 4.12335,-1.095723 4.1749783,1.0868711 0 0 1 4.2259,1.06892" />
    <path
       style="fill:#4d4d4d;stroke:#000000;stroke-width:0.361863;stroke-linecap:butt;stroke-linejoin:miter;stroke-miterlimit:4;stroke-dasharray:none;stroke-opacity:0.510152"
       d="m 170.88005,32.108799 c 4.41402,-1.265942 8.49769,-1.679249 12.09502,-1.584051 0.82762,3.492072 0.91606,4.704203 1.3159,8.691751 -3.94049,0.346852 -7.53087,0.970948 -11.95735,1.792624 -1.00541,-3.214648 -0.97188,-4.74779 -1.45357,-8.900324 z"
       id="path62974"
       sodipodi:nodetypes="ccccc" />
    <path
       style="fill:#4d4d4d;stroke:#000000;stroke-width:0.291132;stroke-linecap:butt;stroke-linejoin:miter;stroke-miterlimit:4;stroke-dasharray:none;stroke-opacity:0.510152"
       d="m 215.23391,27.123761 c 3.43138,-0.277134 5.93182,-0.282858 8.78158,0.228483 0.003,3.379633 -0.0488,4.158546 -0.33469,7.268378 -3.17619,-0.200703 -5.30727,-0.192957 -8.92742,-0.07471 -0.17411,-3.509766 0.25472,-6.37415 0.48053,-7.422149 z"
       id="path67384"
       sodipodi:nodetypes="ccccc" />
    <g
       id="g6875"
       transform="matrix(0.22422617,0,0,0.22422617,344.01642,19.493583)">
      <path
         style="fill:#784421;stroke:#000000;stroke-width:1px;stroke-linecap:butt;stroke-linejoin:miter;stroke-opacity:1"
         d="m 386.43206,275.94849 c 21.70041,76.23785 0.1857,216.84177 1.33144,261.41642 0.6356,4.52131 5.04157,9.86716 7.44643,10.10201 1.44078,0.21097 17.31853,3.72871 30.38905,2.65236 13.79275,-1.13584 22.99134,-5.87842 24.13096,-6.28192 1.64618,-0.58287 3.48362,-3.86763 3.62207,-6.76028 1.88978,-39.48413 -6.11765,-192.73409 5.48927,-264.26912 19.79923,-31.9577 33.48315,-62.39254 44.65288,-95.95982 11.22904,-33.7455 14.7497,-64.44239 18.18768,-91.841733 3.38879,-30.273439 3.52418,-64.614496 3.78587,-78.0360404 L 488.41843,6.6061078 c 0,0 -1.84583,52.8499462 -6.17576,78.8587082 -4.97752,29.898694 -15.12068,68.239284 -22.65326,88.063614 -7.29935,19.21051 -16.46732,42.40982 -35.04541,43.44946"
         id="path6873"
         sodipodi:nodetypes="cccssscccccasc" />
    </g>
    <path
       d="m 439.21031,68.145701 c -5.30192,1.398304 -13.07787,-12.381705 -15.22277,-18.769754 -1.92719,-5.296652 -3.73683,-25.003326 -3.73683,-25.003326 l -11.43934,0.116676 c -0.22214,11.283294 3.75939,26.903313 7.8506,37.233189 6.89658,13.140214 10.43383,11.062874 14.00264,19.645928"
       style="fill:#784421;stroke:#000000;stroke-width:0.224272;stroke-linecap:butt;stroke-linejoin:miter;stroke-miterlimit:4;stroke-dasharray:none;stroke-opacity:1"
       id="path6877"
       sodipodi:nodetypes="cccccc" />
    <path
       style="fill:#552200;fill-opacity:1;stroke:#000000;stroke-width:0.163;stroke-miterlimit:4;stroke-dasharray:none;stroke-opacity:1"
       id="path6879"
       sodipodi:type="arc"
       sodipodi:cx="414.58786"
       sodipodi:cy="24.398689"
       sodipodi:rx="5.6636229"
       sodipodi:ry="1.5852971"
       sodipodi:start="0"
       sodipodi:end="6.2667443"
       sodipodi:open="true"
       sodipodi:arc-type="arc"
       d="m 420.25148,24.398689 a 5.6636229,1.5852971 0 0 1 -5.64034,1.585284 5.6636229,1.5852971 0 0 1 -5.68671,-1.572252 5.6636229,1.5852971 0 0 1 5.5936,-1.598208 5.6636229,1.5852971 0 0 1 5.73269,1.559114" />
    <path
       style="fill:#552200;fill-opacity:1;stroke:#000000;stroke-width:0.163;stroke-miterlimit:4;stroke-dasharray:none;stroke-opacity:1"
       id="path6881"
       sodipodi:type="arc"
       sodipodi:cx="457.66565"
       sodipodi:cy="21.074402"
       sodipodi:rx="4.1749783"
       sodipodi:ry="1.0868711"
       sodipodi:start="0"
       sodipodi:end="6.2667443"
       sodipodi:open="true"
       sodipodi:arc-type="arc"
       d="m 461.84063,21.074402 a 4.1749783,1.0868711 0 0 1 -4.15782,1.086862 4.1749783,1.0868711 0 0 1 -4.192,-1.077928 4.1749783,1.0868711 0 0 1 4.12336,-1.095723 4.1749783,1.0868711 0 0 1 4.22589,1.06892" />
    <path
       style="fill:#4d4d4d;stroke:#000000;stroke-width:0.361863;stroke-linecap:butt;stroke-linejoin:miter;stroke-miterlimit:4;stroke-dasharray:none;stroke-opacity:0.510152"
       d="m 408.74327,32.09019 c 4.41402,-1.265942 8.49769,-1.679249 12.09502,-1.584051 0.82762,3.492072 0.91606,4.704202 1.3159,8.691751 -3.94049,0.346852 -7.53087,0.970948 -11.95735,1.792624 -1.00541,-3.214648 -0.97188,-4.747791 -1.45357,-8.900324 z"
       id="path6883"
       sodipodi:nodetypes="ccccc" />
    <path
       style="fill:#4d4d4d;stroke:#000000;stroke-width:0.291132;stroke-linecap:butt;stroke-linejoin:miter;stroke-miterlimit:4;stroke-dasharray:none;stroke-opacity:0.510152"
       d="m 453.09711,27.105152 c 3.43139,-0.277134 5.93183,-0.282858 8.78159,0.228483 0.003,3.379633 -0.0488,4.158546 -0.33469,7.268378 -3.17619,-0.200703 -5.30728,-0.192957 -8.92743,-0.07471 -0.17411,-3.509766 0.25472,-6.37415 0.48053,-7.422149 z"
       id="path6885"
       sodipodi:nodetypes="ccccc" />
    <path
       style="fill:none;stroke:#000000;stroke-width:2.75182;stroke-linecap:round;stroke-linejoin:miter;stroke-miterlimit:4;stroke-dasharray:none;stroke-opacity:1"
       d="m 46.95386,265.35221 c 48.96617,-84.00019 68.08738,8.55383 90.63176,-48.71522"
       id="path13981"
       sodipodi:nodetypes="cc" />
    <rect
       style="fill:#241c1c;fill-opacity:1;stroke:#000000;stroke-width:0.158825;stroke-opacity:0.510152"
       id="rect13983"
       width="32.257923"
       height="31.976196"
       x="29.992599"
       y="245.21254"
       ry="9.2970438" />
    <path
       style="fill:none;stroke:#000000;stroke-width:2.75182;stroke-linecap:round;stroke-linejoin:miter;stroke-miterlimit:4;stroke-dasharray:none;stroke-opacity:1"
       d="m 42.77806,262.1694 c 27.52402,-58.69709 28.60408,26.29408 55.02976,-43.68194"
       id="path13985"
       sodipodi:nodetypes="cc" />
    <g
       id="g13989"
       transform="matrix(0.22422617,0,0,0.22422617,24.32882,205.34254)">
      <path
         style="fill:#784421;stroke:#000000;stroke-width:1px;stroke-linecap:butt;stroke-linejoin:miter;stroke-opacity:1"
         d="m 386.43206,275.94849 c 21.70041,76.23785 0.1857,216.84177 1.33144,261.41642 0.6356,4.52131 5.04157,9.86716 7.44643,10.10201 1.44078,0.21097 17.31853,3.72871 30.38905,2.65236 13.79275,-1.13584 22.99134,-5.87842 24.13096,-6.28192 1.64618,-0.58287 3.48362,-3.86763 3.62207,-6.76028 1.88978,-39.48413 -6.11765,-192.73409 5.48927,-264.26912 19.79923,-31.9577 33.48315,-62.39254 44.65288,-95.95982 11.22904,-33.7455 14.7497,-64.44239 18.18768,-91.841733 3.38879,-30.273439 3.52418,-64.614496 3.78587,-78.0360404 L 488.41843,6.6061078 c 0,0 -1.84583,52.8499462 -6.17576,78.8587082 -4.97752,29.898694 -15.12068,68.239284 -22.65326,88.063614 -7.29935,19.21051 -16.46732,42.40982 -35.04541,43.44946"
         id="path13987"
         sodipodi:nodetypes="cccssscccccasc" />
    </g>
    <path
       d="m 119.52271,253.99465 c -5.30192,1.39831 -13.07787,-12.3817 -15.22276,-18.76975 -1.92719,-5.29665 -3.73684,-25.00332 -3.73684,-25.00332 l -11.43933,0.11667 c -0.22214,11.2833 3.75938,26.90331 7.85059,37.23319 6.89658,13.14021 10.43384,11.06287 14.00264,19.64593"
       style="fill:#784421;stroke:#000000;stroke-width:0.224272;stroke-linecap:butt;stroke-linejoin:miter;stroke-miterlimit:4;stroke-dasharray:none;stroke-opacity:1"
       id="path13991"
       sodipodi:nodetypes="cccccc" />
    <path
       style="fill:#552200;fill-opacity:1;stroke:#000000;stroke-width:0.163;stroke-miterlimit:4;stroke-dasharray:none;stroke-opacity:1"
       id="path13993"
       sodipodi:type="arc"
       sodipodi:cx="94.900208"
       sodipodi:cy="210.24765"
       sodipodi:rx="5.6636229"
       sodipodi:ry="1.5852971"
       sodipodi:start="0"
       sodipodi:end="6.2667443"
       sodipodi:open="true"
       sodipodi:arc-type="arc"
       d="m 100.56383,210.24765 a 5.6636229,1.5852971 0 0 1 -5.640344,1.58528 5.6636229,1.5852971 0 0 1 -5.68671,-1.57225 5.6636229,1.5852971 0 0 1 5.593597,-1.59821 5.6636229,1.5852971 0 0 1 5.732687,1.55912" />
    <path
       style="fill:#552200;fill-opacity:1;stroke:#000000;stroke-width:0.163;stroke-miterlimit:4;stroke-dasharray:none;stroke-opacity:1"
       id="path13995"
       sodipodi:type="arc"
       sodipodi:cx="137.978"
       sodipodi:cy="206.92337"
       sodipodi:rx="4.1749783"
       sodipodi:ry="1.0868711"
       sodipodi:start="0"
       sodipodi:end="6.2667443"
       sodipodi:open="true"
       sodipodi:arc-type="arc"
       d="m 142.15298,206.92337 a 4.1749783,1.0868711 0 0 1 -4.15782,1.08686 4.1749783,1.0868711 0 0 1 -4.192,-1.07793 4.1749783,1.0868711 0 0 1 4.12336,-1.09572 4.1749783,1.0868711 0 0 1 4.22589,1.06892" />
    <path
       style="fill:#4d4d4d;stroke:#000000;stroke-width:0.361863;stroke-linecap:butt;stroke-linejoin:miter;stroke-miterlimit:4;stroke-dasharray:none;stroke-opacity:0.510152"
       d="m 89.05567,217.93914 c 4.41403,-1.26594 8.49769,-1.67924 12.09502,-1.58405 0.82762,3.49208 0.91607,4.70421 1.3159,8.69175 -3.94049,0.34686 -7.53087,0.97095 -11.95734,1.79263 -1.00542,-3.21465 -0.97189,-4.74779 -1.45358,-8.90033 z"
       id="path13997"
       sodipodi:nodetypes="ccccc" />
    <path
       style="fill:#4d4d4d;stroke:#000000;stroke-width:0.291132;stroke-linecap:butt;stroke-linejoin:miter;stroke-miterlimit:4;stroke-dasharray:none;stroke-opacity:0.510152"
       d="m 133.40952,212.95411 c 3.43138,-0.27714 5.93182,-0.28286 8.78158,0.22848 0.003,3.37963 -0.0488,4.15855 -0.33469,7.26838 -3.17619,-0.20071 -5.30727,-0.19296 -8.92742,-0.0747 -0.17411,-3.50977 0.25472,-6.37415 0.48053,-7.42215 z"
       id="path13999"
       sodipodi:nodetypes="ccccc" />
    <path
       style="fill:none;stroke:#000000;stroke-width:2.75182;stroke-linecap:round;stroke-linejoin:miter;stroke-miterlimit:4;stroke-dasharray:none;stroke-opacity:1"
       d="m 229.96717,237.31004 c 8.87832,-53.01631 25.3783,20.9942 38.84204,-19.11055"
       id="path14218"
       sodipodi:nodetypes="cc" />
    <rect
       style="fill:#241c1c;fill-opacity:1;stroke:#000000;stroke-width:0.158825;stroke-opacity:0.510152"
       id="rect14220"
       width="32.257923"
       height="31.976196"
       x="208.10248"
       y="217.50221"
       ry="9.2970438" />
    <path
       style="fill:none;stroke:#000000;stroke-width:2.75182;stroke-linecap:round;stroke-linejoin:miter;stroke-miterlimit:4;stroke-dasharray:none;stroke-opacity:1"
       d="m 220.47577,235.85296 c -1.49462,-34.12879 14.49927,30.54819 8.55564,-15.803"
       id="path14222"
       sodipodi:nodetypes="cc" />
    <g
       id="g14226"
       transform="matrix(0.22422617,0,0,0.22422617,155.55242,206.90504)">
      <path
         style="fill:#784421;stroke:#000000;stroke-width:1px;stroke-linecap:butt;stroke-linejoin:miter;stroke-opacity:1"
         d="m 386.43206,275.94849 c 21.70041,76.23785 0.1857,216.84177 1.33144,261.41642 0.6356,4.52131 5.04157,9.86716 7.44643,10.10201 1.44078,0.21097 17.31853,3.72871 30.38905,2.65236 13.79275,-1.13584 22.99134,-5.87842 24.13096,-6.28192 1.64618,-0.58287 3.48362,-3.86763 3.62207,-6.76028 1.88978,-39.48413 -6.11765,-192.73409 5.48927,-264.26912 19.79923,-31.9577 33.48315,-62.39254 44.65288,-95.95982 11.22904,-33.7455 14.7497,-64.44239 18.18768,-91.841733 3.38879,-30.273439 3.52418,-64.614496 3.78587,-78.0360404 L 488.41843,6.6061078 c 0,0 -1.84583,52.8499462 -6.17576,78.8587082 -4.97752,29.898694 -15.12068,68.239284 -22.65326,88.063614 -7.29935,19.21051 -16.46732,42.40982 -35.04541,43.44946"
         id="path14224"
         sodipodi:nodetypes="cccssscccccasc" />
    </g>
    <path
       d="m 250.7463,255.55715 c -5.30193,1.39831 -13.07788,-12.3817 -15.22277,-18.76975 -1.92719,-5.29665 -3.73683,-25.00332 -3.73683,-25.00332 l -11.43934,0.11667 c -0.22214,11.2833 3.75938,26.90331 7.85059,37.23319 6.89658,13.14021 10.43384,11.06287 14.00265,19.64593"
       style="fill:#784421;stroke:#000000;stroke-width:0.224272;stroke-linecap:butt;stroke-linejoin:miter;stroke-miterlimit:4;stroke-dasharray:none;stroke-opacity:1"
       id="path14228"
       sodipodi:nodetypes="cccccc" />
    <path
       style="fill:#552200;fill-opacity:1;stroke:#000000;stroke-width:0.163;stroke-miterlimit:4;stroke-dasharray:none;stroke-opacity:1"
       id="path14230"
       sodipodi:type="arc"
       sodipodi:cx="226.12381"
       sodipodi:cy="211.8101"
       sodipodi:rx="5.6636229"
       sodipodi:ry="1.5852971"
       sodipodi:start="0"
       sodipodi:end="6.2667443"
       sodipodi:open="true"
       sodipodi:arc-type="arc"
       d="m 231.78743,211.8101 a 5.6636229,1.5852971 0 0 1 -5.64034,1.58529 5.6636229,1.5852971 0 0 1 -5.68671,-1.57225 5.6636229,1.5852971 0 0 1 5.59359,-1.59821 5.6636229,1.5852971 0 0 1 5.7327,1.55911" />
    <path
       style="fill:#552200;fill-opacity:1;stroke:#000000;stroke-width:0.163;stroke-miterlimit:4;stroke-dasharray:none;stroke-opacity:1"
       id="path14232"
       sodipodi:type="arc"
       sodipodi:cx="269.2016"
       sodipodi:cy="208.48587"
       sodipodi:rx="4.1749783"
       sodipodi:ry="1.0868711"
       sodipodi:start="0"
       sodipodi:end="6.2667443"
       sodipodi:open="true"
       sodipodi:arc-type="arc"
       d="m 273.37658,208.48587 a 4.1749783,1.0868711 0 0 1 -4.15782,1.08686 4.1749783,1.0868711 0 0 1 -4.192,-1.07793 4.1749783,1.0868711 0 0 1 4.12336,-1.09572 4.1749783,1.0868711 0 0 1 4.22589,1.06892" />
    <path
       style="fill:#4d4d4d;stroke:#000000;stroke-width:0.361863;stroke-linecap:butt;stroke-linejoin:miter;stroke-miterlimit:4;stroke-dasharray:none;stroke-opacity:0.510152"
       d="m 220.27925,219.50164 c 4.41403,-1.26594 8.4977,-1.67924 12.09503,-1.58405 0.82762,3.49208 0.91606,4.70421 1.3159,8.69175 -3.9405,0.34686 -7.53088,0.97095 -11.95735,1.79263 -1.00542,-3.21465 -0.97189,-4.74779 -1.45358,-8.90033 z"
       id="path14234"
       sodipodi:nodetypes="ccccc" />
    <path
       style="fill:#4d4d4d;stroke:#000000;stroke-width:0.291132;stroke-linecap:butt;stroke-linejoin:miter;stroke-miterlimit:4;stroke-dasharray:none;stroke-opacity:0.510152"
       d="m 264.6331,214.51661 c 3.43138,-0.27714 5.93183,-0.28286 8.78159,0.22848 0.003,3.37963 -0.0489,4.15855 -0.33469,7.26838 -3.17619,-0.20071 -5.30728,-0.19296 -8.92743,-0.0747 -0.17411,-3.50977 0.25472,-6.37415 0.48053,-7.42215 z"
       id="path14236"
       sodipodi:nodetypes="ccccc" />
    <rect
       style="fill:#241c1c;fill-opacity:1;stroke:#000000;stroke-width:0.158825;stroke-opacity:0.510152"
       id="rect14491"
       width="32.257923"
       height="31.976196"
       x="353.19006"
       y="197.31006"
       ry="9.2970438" />
    <path
       style="fill:none;stroke:#000000;stroke-width:2.75182;stroke-linecap:round;stroke-linejoin:miter;stroke-miterlimit:4;stroke-dasharray:none;stroke-opacity:1"
       d="m 369.9074,213.01251 c -7.81566,-3.95948 -72.17514,24.4024 -22.91473,4.21467"
       id="path14493"
       sodipodi:nodetypes="cc" />
    <path
       d="m 368.70756,252.73438 c -5.30192,1.3983 -13.07787,-12.38171 -15.22277,-18.76976 -1.92718,-5.29665 -3.73683,-25.00332 -3.73683,-25.00332 l -11.43933,0.11667 c -0.22214,11.2833 3.75938,26.90332 7.85059,37.23319 6.89658,13.14022 10.43384,11.06288 14.00264,19.64593"
       style="fill:#784421;stroke:#000000;stroke-width:0.224272;stroke-linecap:butt;stroke-linejoin:miter;stroke-miterlimit:4;stroke-dasharray:none;stroke-opacity:1"
       id="path14499"
       sodipodi:nodetypes="cccccc" />
    <path
       style="fill:#552200;fill-opacity:1;stroke:#000000;stroke-width:0.163;stroke-miterlimit:4;stroke-dasharray:none;stroke-opacity:1"
       id="path14501"
       sodipodi:type="arc"
       sodipodi:cx="344.08508"
       sodipodi:cy="208.9874"
       sodipodi:rx="5.6636229"
       sodipodi:ry="1.5852971"
       sodipodi:start="0"
       sodipodi:end="6.2667443"
       sodipodi:open="true"
       sodipodi:arc-type="arc"
       d="m 349.74871,208.9874 a 5.6636229,1.5852971 0 0 1 -5.64035,1.58528 5.6636229,1.5852971 0 0 1 -5.68671,-1.57225 5.6636229,1.5852971 0 0 1 5.5936,-1.59821 5.6636229,1.5852971 0 0 1 5.73269,1.55911" />
    <path
       style="fill:#552200;fill-opacity:1;stroke:#000000;stroke-width:0.163;stroke-miterlimit:4;stroke-dasharray:none;stroke-opacity:1"
       id="path14503"
       sodipodi:type="arc"
       sodipodi:cx="387.1629"
       sodipodi:cy="205.66309"
       sodipodi:rx="4.1749783"
       sodipodi:ry="1.0868711"
       sodipodi:start="0"
       sodipodi:end="6.2667443"
       sodipodi:open="true"
       sodipodi:arc-type="arc"
       d="m 391.33788,205.66309 a 4.1749783,1.0868711 0 0 1 -4.15782,1.08686 4.1749783,1.0868711 0 0 1 -4.19199,-1.07793 4.1749783,1.0868711 0 0 1 4.12335,-1.09572 4.1749783,1.0868711 0 0 1 4.2259,1.06892" />
    <path
       style="fill:#4d4d4d;stroke:#000000;stroke-width:0.361863;stroke-linecap:butt;stroke-linejoin:miter;stroke-miterlimit:4;stroke-dasharray:none;stroke-opacity:0.510152"
       d="m 338.24052,216.67887 c 4.41403,-1.26594 8.49769,-1.67925 12.09502,-1.58405 0.82762,3.49207 0.91607,4.7042 1.3159,8.69175 -3.94049,0.34685 -7.53087,0.97095 -11.95734,1.79262 -1.00542,-3.21465 -0.97189,-4.74779 -1.45358,-8.90032 z"
       id="path14505"
       sodipodi:nodetypes="ccccc" />
    <path
       style="fill:none;stroke:#000000;stroke-width:2.75182;stroke-linecap:round;stroke-linejoin:miter;stroke-miterlimit:4;stroke-dasharray:none;stroke-opacity:1"
       d="m 542.58338,211.85732 -22.72163,11.37625"
       id="path15064"
       sodipodi:nodetypes="cc" />
    <g
       id="g15068"
       transform="matrix(0.22422617,0,0,0.22422617,406.60496,211.93912)">
      <path
         style="fill:#784421;stroke:#000000;stroke-width:1px;stroke-linecap:butt;stroke-linejoin:miter;stroke-opacity:1"
         d="m 386.43206,275.94849 c 21.70041,76.23785 0.1857,216.84177 1.33144,261.41642 0.6356,4.52131 5.04157,9.86716 7.44643,10.10201 1.44078,0.21097 17.31853,3.72871 30.38905,2.65236 13.79275,-1.13584 22.99134,-5.87842 24.13096,-6.28192 1.64618,-0.58287 3.48362,-3.86763 3.62207,-6.76028 1.88978,-39.48413 -6.11765,-192.73409 5.48927,-264.26912 19.79923,-31.9577 33.48315,-62.39254 44.65288,-95.95982 11.22904,-33.7455 14.7497,-64.44239 18.18768,-91.841733 3.38879,-30.273439 3.52418,-64.614496 3.78587,-78.0360404 L 488.41843,6.6061078 c 0,0 -1.84583,52.8499462 -6.17576,78.8587082 -4.97752,29.898694 -15.12068,68.239284 -22.65326,88.063614 -7.29935,19.21051 -16.46732,42.40982 -35.04541,43.44946"
         id="path15066"
         sodipodi:nodetypes="cccssscccccasc" />
    </g>
    <path
       style="fill:#552200;fill-opacity:1;stroke:#000000;stroke-width:0.163;stroke-miterlimit:4;stroke-dasharray:none;stroke-opacity:1"
       id="path15080"
       sodipodi:type="arc"
       sodipodi:cx="520.25415"
       sodipodi:cy="213.51994"
       sodipodi:rx="4.1749783"
       sodipodi:ry="1.0868711"
       sodipodi:start="0"
       sodipodi:end="6.2667443"
       sodipodi:open="true"
       sodipodi:arc-type="arc"
       d="m 524.42913,213.51994 a 4.1749783,1.0868711 0 0 1 -4.15782,1.08687 4.1749783,1.0868711 0 0 1 -4.192,-1.07793 4.1749783,1.0868711 0 0 1 4.12336,-1.09573 4.1749783,1.0868711 0 0 1 4.22589,1.06892" />
    <path
       style="fill:#4d4d4d;stroke:#000000;stroke-width:0.291132;stroke-linecap:butt;stroke-linejoin:miter;stroke-miterlimit:4;stroke-dasharray:none;stroke-opacity:0.510152"
       d="m 515.68565,219.55069 c 3.43138,-0.27714 5.93183,-0.28286 8.78158,0.22848 0.003,3.37964 -0.0488,4.15855 -0.33468,7.26838 -3.1762,-0.2007 -5.30728,-0.19296 -8.92743,-0.0747 -0.17411,-3.50977 0.25472,-6.37415 0.48053,-7.42215 z"
       id="path15070"
       sodipodi:nodetypes="ccccc" />
    <rect
       style="fill:#241c1c;fill-opacity:1;stroke:#000000;stroke-width:0.158825;stroke-opacity:0.510152"
       id="rect15072"
       width="32.257923"
       height="31.976196"
       x="524.13257"
       y="195.07137"
       ry="9.2970438" />
    <path
       style="fill:none;stroke:#000000;stroke-width:2.75182;stroke-linecap:round;stroke-linejoin:miter;stroke-miterlimit:4;stroke-dasharray:none;stroke-opacity:1"
       d="m 542.73791,213.86157 c -24.60076,-16.58178 -29.85332,34.74286 -62.65395,11.22247"
       id="path15074"
       sodipodi:nodetypes="cc" />
    <path
       d="m 501.79884,260.59124 c -5.30192,1.3983 -13.07787,-12.38171 -15.22276,-18.76976 -1.92719,-5.29665 -3.73684,-25.00332 -3.73684,-25.00332 l -11.43933,0.11667 c -0.22214,11.2833 3.75938,26.90332 7.85059,37.23319 6.89658,13.14022 10.43384,11.06288 14.00265,19.64593"
       style="fill:#784421;stroke:#000000;stroke-width:0.224272;stroke-linecap:butt;stroke-linejoin:miter;stroke-miterlimit:4;stroke-dasharray:none;stroke-opacity:1"
       id="path15076"
       sodipodi:nodetypes="cccccc" />
    <path
       style="fill:#552200;fill-opacity:1;stroke:#000000;stroke-width:0.163;stroke-miterlimit:4;stroke-dasharray:none;stroke-opacity:1"
       id="path15078"
       sodipodi:type="arc"
       sodipodi:cx="477.17639"
       sodipodi:cy="216.84425"
       sodipodi:rx="5.6636229"
       sodipodi:ry="1.5852971"
       sodipodi:start="0"
       sodipodi:end="6.2667443"
       sodipodi:open="true"
       sodipodi:arc-type="arc"
       d="m 482.84001,216.84425 a 5.6636229,1.5852971 0 0 1 -5.64034,1.58529 5.6636229,1.5852971 0 0 1 -5.68671,-1.57225 5.6636229,1.5852971 0 0 1 5.5936,-1.59821 5.6636229,1.5852971 0 0 1 5.73269,1.55911" />
    <path
       style="fill:#4d4d4d;stroke:#000000;stroke-width:0.361863;stroke-linecap:butt;stroke-linejoin:miter;stroke-miterlimit:4;stroke-dasharray:none;stroke-opacity:0.510152"
       d="m 471.3318,224.53573 c 4.41403,-1.26594 8.4977,-1.67925 12.09502,-1.58405 0.82762,3.49207 0.91607,4.7042 1.3159,8.69175 -3.94049,0.34685 -7.53087,0.97095 -11.95734,1.79262 -1.00542,-3.21465 -0.97189,-4.74779 -1.45358,-8.90032 z"
       id="path15082"
       sodipodi:nodetypes="ccccc" />
    <path
       style="fill:none;stroke:#000000;stroke-width:2.75182;stroke-linecap:round;stroke-linejoin:miter;stroke-miterlimit:4;stroke-dasharray:none;stroke-opacity:1"
       d="m 154.51434,421.02274 c -10.56795,-1.62453 -9.80625,-8.11589 -47.08952,-12.17364"
       id="path15682"
       sodipodi:nodetypes="cc" />
    <g
       id="g15686"
       transform="matrix(0.22422617,0,0,0.22422617,-5.8319807,397.55465)">
      <path
         style="fill:#784421;stroke:#000000;stroke-width:1px;stroke-linecap:butt;stroke-linejoin:miter;stroke-opacity:1"
         d="m 386.43206,275.94849 c 21.70041,76.23785 0.1857,216.84177 1.33144,261.41642 0.6356,4.52131 5.04157,9.86716 7.44643,10.10201 1.44078,0.21097 17.31853,3.72871 30.38905,2.65236 13.79275,-1.13584 22.99134,-5.87842 24.13096,-6.28192 1.64618,-0.58287 3.48362,-3.86763 3.62207,-6.76028 1.88978,-39.48413 -6.11765,-192.73409 5.48927,-264.26912 19.79923,-31.9577 33.48315,-62.39254 44.65288,-95.95982 11.22904,-33.7455 14.7497,-64.44239 18.18768,-91.841733 3.38879,-30.273439 3.52418,-64.614496 3.78587,-78.0360404 L 488.41843,6.6061078 c 0,0 -1.84583,52.8499462 -6.17576,78.8587082 -4.97752,29.898694 -15.12068,68.239284 -22.65326,88.063614 -7.29935,19.21051 -16.46732,42.40982 -35.04541,43.44946"
         id="path15684"
         sodipodi:nodetypes="cccssscccccasc" />
    </g>
    <path
       style="fill:#4d4d4d;stroke:#000000;stroke-width:0.291132;stroke-linecap:butt;stroke-linejoin:miter;stroke-miterlimit:4;stroke-dasharray:none;stroke-opacity:0.510152"
       d="m 103.24872,405.16622 c 3.43138,-0.27714 5.93182,-0.28286 8.78158,0.22848 0.003,3.37964 -0.0488,4.15855 -0.33469,7.26838 -3.17619,-0.2007 -5.30727,-0.19296 -8.92743,-0.0747 -0.1741,-3.50977 0.25473,-6.37415 0.48054,-7.42215 z"
       id="path15688"
       sodipodi:nodetypes="ccccc" />
    <rect
       style="fill:#241c1c;fill-opacity:1;stroke:#000000;stroke-width:0.158825;stroke-opacity:0.510152"
       id="rect15690"
       width="32.257923"
       height="31.976196"
       x="133.71222"
       y="407.34122"
       ry="9.2970438" />
    <path
       style="fill:none;stroke:#000000;stroke-width:2.75182;stroke-linecap:round;stroke-linejoin:miter;stroke-miterlimit:4;stroke-dasharray:none;stroke-opacity:1"
       d="m 153.07894,423.43191 c -37.01886,3.47929 -47.11828,-9.15093 -85.431921,-12.73234"
       id="path15692"
       sodipodi:nodetypes="cc" />
    <path
       d="m 89.361909,446.20677 c -5.30192,1.3983 -13.07787,-12.38171 -15.22277,-18.76976 -1.92718,-5.29665 -3.73683,-25.00332 -3.73683,-25.00332 l -11.43933,0.11667 c -0.22214,11.2833 3.75938,26.90332 7.85059,37.23319 6.89658,13.14022 10.43384,11.06288 14.00264,19.64593"
       style="fill:#784421;stroke:#000000;stroke-width:0.224272;stroke-linecap:butt;stroke-linejoin:miter;stroke-miterlimit:4;stroke-dasharray:none;stroke-opacity:1"
       id="path15694"
       sodipodi:nodetypes="cccccc" />
    <path
       style="fill:#552200;fill-opacity:1;stroke:#000000;stroke-width:0.163;stroke-miterlimit:4;stroke-dasharray:none;stroke-opacity:1"
       id="path15696"
       sodipodi:type="arc"
       sodipodi:cx="64.739433"
       sodipodi:cy="402.45978"
       sodipodi:rx="5.6636229"
       sodipodi:ry="1.5852971"
       sodipodi:start="0"
       sodipodi:end="6.2667443"
       sodipodi:open="true"
       sodipodi:arc-type="arc"
       d="m 70.403056,402.45978 a 5.6636229,1.5852971 0 0 1 -5.640344,1.58528 5.6636229,1.5852971 0 0 1 -5.68671,-1.57225 5.6636229,1.5852971 0 0 1 5.593596,-1.59821 5.6636229,1.5852971 0 0 1 5.732693,1.55912" />
    <path
       style="fill:#552200;fill-opacity:1;stroke:#000000;stroke-width:0.163;stroke-miterlimit:4;stroke-dasharray:none;stroke-opacity:1"
       id="path15698"
       sodipodi:type="arc"
       sodipodi:cx="107.81719"
       sodipodi:cy="399.13547"
       sodipodi:rx="4.1749783"
       sodipodi:ry="1.0868711"
       sodipodi:start="0"
       sodipodi:end="6.2667443"
       sodipodi:open="true"
       sodipodi:arc-type="arc"
       d="m 111.99217,399.13547 a 4.1749783,1.0868711 0 0 1 -4.15782,1.08686 4.1749783,1.0868711 0 0 1 -4.192,-1.07793 4.1749783,1.0868711 0 0 1 4.12336,-1.09572 4.1749783,1.0868711 0 0 1 4.2259,1.06892" />
    <path
       style="fill:#4d4d4d;stroke:#000000;stroke-width:0.361863;stroke-linecap:butt;stroke-linejoin:miter;stroke-miterlimit:4;stroke-dasharray:none;stroke-opacity:0.510152"
       d="m 58.894869,410.15126 c 4.41402,-1.26594 8.49769,-1.67925 12.09502,-1.58405 0.82762,3.49207 0.91607,4.7042 1.3159,8.69175 -3.94049,0.34685 -7.53087,0.97095 -11.95735,1.79262 -1.00541,-3.21465 -0.97188,-4.74779 -1.45357,-8.90032 z"
       id="path15700"
       sodipodi:nodetypes="ccccc" />
    <path
       style="fill:none;stroke:#000000;stroke-width:2.75182;stroke-linecap:round;stroke-linejoin:miter;stroke-miterlimit:4;stroke-dasharray:none;stroke-opacity:1"
       d="M 305.30912,453.04613 C 276.38921,427.16961 282.88767,420.60466 252.16074,404.98211"
       id="path20469"
       sodipodi:nodetypes="cc" />
    <g
       id="g20473"
       transform="matrix(0.22422617,0,0,0.22422617,138.90394,393.68766)">
      <path
         style="fill:#784421;stroke:#000000;stroke-width:1px;stroke-linecap:butt;stroke-linejoin:miter;stroke-opacity:1"
         d="m 386.43206,275.94849 c 21.70041,76.23785 0.1857,216.84177 1.33144,261.41642 0.6356,4.52131 5.04157,9.86716 7.44643,10.10201 1.44078,0.21097 17.31853,3.72871 30.38905,2.65236 13.79275,-1.13584 22.99134,-5.87842 24.13096,-6.28192 1.64618,-0.58287 3.48362,-3.86763 3.62207,-6.76028 1.88978,-39.48413 -6.11765,-192.73409 5.48927,-264.26912 19.79923,-31.9577 33.48315,-62.39254 44.65288,-95.95982 11.22904,-33.7455 14.7497,-64.44239 18.18768,-91.841733 3.38879,-30.273439 3.52418,-64.614496 3.78587,-78.0360404 L 488.41843,6.6061078 c 0,0 -1.84583,52.8499462 -6.17576,78.8587082 -4.97752,29.898694 -15.12068,68.239284 -22.65326,88.063614 -7.29935,19.21051 -16.46732,42.40982 -35.04541,43.44946"
         id="path20471"
         sodipodi:nodetypes="cccssscccccasc" />
    </g>
    <path
       style="fill:#4d4d4d;stroke:#000000;stroke-width:0.291132;stroke-linecap:butt;stroke-linejoin:miter;stroke-miterlimit:4;stroke-dasharray:none;stroke-opacity:0.510152"
       d="m 247.98464,401.29923 c 3.43138,-0.27714 5.93182,-0.28286 8.78158,0.22848 0.003,3.37964 -0.0488,4.15855 -0.33469,7.26838 -3.17619,-0.2007 -5.30727,-0.19296 -8.92743,-0.0747 -0.1741,-3.50977 0.25473,-6.37415 0.48054,-7.42215 z"
       id="path20475"
       sodipodi:nodetypes="ccccc" />
    <rect
       style="fill:#241c1c;fill-opacity:1;stroke:#000000;stroke-width:0.158825;stroke-opacity:0.510152"
       id="rect20477"
       width="32.257923"
       height="31.976196"
       x="284.15414"
       y="440.12482"
       ry="9.2970438" />
    <path
       style="fill:none;stroke:#000000;stroke-width:2.75182;stroke-linecap:round;stroke-linejoin:miter;stroke-miterlimit:4;stroke-dasharray:none;stroke-opacity:1"
       d="m 301.14361,457.01581 c -11.32023,-0.31817 -33.99703,-33.96017 -88.76067,-50.18323"
       id="path20479"
       sodipodi:nodetypes="cc" />
    <path
       d="m 234.09783,442.33978 c -5.30192,1.3983 -13.07787,-12.38171 -15.22277,-18.76976 -1.92718,-5.29665 -3.73683,-25.00332 -3.73683,-25.00332 l -11.43933,0.11667 c -0.22214,11.2833 3.75938,26.90332 7.85059,37.23319 6.89658,13.14022 10.43384,11.06288 14.00264,19.64593"
       style="fill:#784421;stroke:#000000;stroke-width:0.224272;stroke-linecap:butt;stroke-linejoin:miter;stroke-miterlimit:4;stroke-dasharray:none;stroke-opacity:1"
       id="path20481"
       sodipodi:nodetypes="cccccc" />
    <path
       style="fill:#552200;fill-opacity:1;stroke:#000000;stroke-width:0.163;stroke-miterlimit:4;stroke-dasharray:none;stroke-opacity:1"
       id="path20483"
       sodipodi:type="arc"
       sodipodi:cx="209.47536"
       sodipodi:cy="398.59277"
       sodipodi:rx="5.6636229"
       sodipodi:ry="1.5852971"
       sodipodi:start="0"
       sodipodi:end="6.2667443"
       sodipodi:open="true"
       sodipodi:arc-type="arc"
       d="m 215.13898,398.59277 a 5.6636229,1.5852971 0 0 1 -5.64034,1.58529 5.6636229,1.5852971 0 0 1 -5.68671,-1.57225 5.6636229,1.5852971 0 0 1 5.59359,-1.59821 5.6636229,1.5852971 0 0 1 5.73269,1.55911" />
    <path
       style="fill:#552200;fill-opacity:1;stroke:#000000;stroke-width:0.163;stroke-miterlimit:4;stroke-dasharray:none;stroke-opacity:1"
       id="path20485"
       sodipodi:type="arc"
       sodipodi:cx="252.55312"
       sodipodi:cy="395.26846"
       sodipodi:rx="4.1749783"
       sodipodi:ry="1.0868711"
       sodipodi:start="0"
       sodipodi:end="6.2667443"
       sodipodi:open="true"
       sodipodi:arc-type="arc"
       d="m 256.72809,395.26846 a 4.1749783,1.0868711 0 0 1 -4.15781,1.08687 4.1749783,1.0868711 0 0 1 -4.192,-1.07793 4.1749783,1.0868711 0 0 1 4.12336,-1.09573 4.1749783,1.0868711 0 0 1 4.22589,1.06892" />
    <path
       style="fill:#4d4d4d;stroke:#000000;stroke-width:0.361863;stroke-linecap:butt;stroke-linejoin:miter;stroke-miterlimit:4;stroke-dasharray:none;stroke-opacity:0.510152"
       d="m 203.63079,406.28427 c 4.41402,-1.26594 8.49769,-1.67925 12.09502,-1.58405 0.82762,3.49207 0.91607,4.7042 1.3159,8.69175 -3.94049,0.34685 -7.53087,0.97095 -11.95735,1.79262 -1.00541,-3.21465 -0.97188,-4.74779 -1.45357,-8.90032 z"
       id="path20487"
       sodipodi:nodetypes="ccccc" />
    <path
       style="fill:none;stroke:#000000;stroke-width:2.75182;stroke-linecap:round;stroke-linejoin:miter;stroke-miterlimit:4;stroke-dasharray:none;stroke-opacity:1"
       d="m 426.07631,484.61105 c -11.05574,-34.8686 -8.53516,-57.86159 -34.07182,-80.41019"
       id="path20850"
       sodipodi:nodetypes="cc" />
    <g
       id="g20854"
       transform="matrix(0.22422617,0,0,0.22422617,278.74769,392.90641)">
      <path
         style="fill:#784421;stroke:#000000;stroke-width:1px;stroke-linecap:butt;stroke-linejoin:miter;stroke-opacity:1"
         d="m 386.43206,275.94849 c 21.70041,76.23785 0.1857,216.84177 1.33144,261.41642 0.6356,4.52131 5.04157,9.86716 7.44643,10.10201 1.44078,0.21097 17.31853,3.72871 30.38905,2.65236 13.79275,-1.13584 22.99134,-5.87842 24.13096,-6.28192 1.64618,-0.58287 3.48362,-3.86763 3.62207,-6.76028 1.88978,-39.48413 -6.11765,-192.73409 5.48927,-264.26912 19.79923,-31.9577 33.48315,-62.39254 44.65288,-95.95982 11.22904,-33.7455 14.7497,-64.44239 18.18768,-91.841733 3.38879,-30.273439 3.52418,-64.614496 3.78587,-78.0360404 L 488.41843,6.6061078 c 0,0 -1.84583,52.8499462 -6.17576,78.8587082 -4.97752,29.898694 -15.12068,68.239284 -22.65326,88.063614 -7.29935,19.21051 -16.46732,42.40982 -35.04541,43.44946"
         id="path20852"
         sodipodi:nodetypes="cccssscccccasc" />
    </g>
    <path
       style="fill:#4d4d4d;stroke:#000000;stroke-width:0.291132;stroke-linecap:butt;stroke-linejoin:miter;stroke-miterlimit:4;stroke-dasharray:none;stroke-opacity:0.510152"
       d="m 387.82839,400.51798 c 3.43138,-0.27714 5.93182,-0.28286 8.78158,0.22848 0.003,3.37964 -0.0488,4.15855 -0.33469,7.26838 -3.17619,-0.2007 -5.30727,-0.19296 -8.92743,-0.0747 -0.1741,-3.50977 0.25473,-6.37415 0.48054,-7.42215 z"
       id="path20856"
       sodipodi:nodetypes="ccccc" />
    <rect
       style="fill:#241c1c;fill-opacity:1;stroke:#000000;stroke-width:0.158825;stroke-opacity:0.510152"
       id="rect20858"
       width="32.257923"
       height="31.976196"
       x="406.98279"
       y="469.80908"
       ry="9.2970438" />
    <path
       style="fill:none;stroke:#000000;stroke-width:2.75182;stroke-linecap:round;stroke-linejoin:miter;stroke-miterlimit:4;stroke-dasharray:none;stroke-opacity:1"
       d="m 423.59039,487.37318 c -9.50972,-6.86219 -34.38585,-60.59578 -71.3637,-81.32185"
       id="path20860"
       sodipodi:nodetypes="cc" />
    <path
       d="m 373.94158,441.55853 c -5.30192,1.3983 -13.07787,-12.38171 -15.22277,-18.76976 -1.92718,-5.29665 -3.73683,-25.00332 -3.73683,-25.00332 l -11.43933,0.11667 c -0.22214,11.2833 3.75938,26.90332 7.85059,37.23319 6.89658,13.14022 10.43384,11.06288 14.00264,19.64593"
       style="fill:#784421;stroke:#000000;stroke-width:0.224272;stroke-linecap:butt;stroke-linejoin:miter;stroke-miterlimit:4;stroke-dasharray:none;stroke-opacity:1"
       id="path20862"
       sodipodi:nodetypes="cccccc" />
    <path
       style="fill:#552200;fill-opacity:1;stroke:#000000;stroke-width:0.163;stroke-miterlimit:4;stroke-dasharray:none;stroke-opacity:1"
       id="path20864"
       sodipodi:type="arc"
       sodipodi:cx="349.31912"
       sodipodi:cy="397.81152"
       sodipodi:rx="5.6636229"
       sodipodi:ry="1.5852971"
       sodipodi:start="0"
       sodipodi:end="6.2667443"
       sodipodi:open="true"
       sodipodi:arc-type="arc"
       d="m 354.98275,397.81152 a 5.6636229,1.5852971 0 0 1 -5.64035,1.58529 5.6636229,1.5852971 0 0 1 -5.68671,-1.57225 5.6636229,1.5852971 0 0 1 5.5936,-1.59821 5.6636229,1.5852971 0 0 1 5.73269,1.55911" />
    <path
       style="fill:#552200;fill-opacity:1;stroke:#000000;stroke-width:0.163;stroke-miterlimit:4;stroke-dasharray:none;stroke-opacity:1"
       id="path20866"
       sodipodi:type="arc"
       sodipodi:cx="392.39688"
       sodipodi:cy="394.48721"
       sodipodi:rx="4.1749783"
       sodipodi:ry="1.0868711"
       sodipodi:start="0"
       sodipodi:end="6.2667443"
       sodipodi:open="true"
       sodipodi:arc-type="arc"
       d="m 396.57186,394.48721 a 4.1749783,1.0868711 0 0 1 -4.15782,1.08687 4.1749783,1.0868711 0 0 1 -4.192,-1.07793 4.1749783,1.0868711 0 0 1 4.12336,-1.09573 4.1749783,1.0868711 0 0 1 4.2259,1.06892" />
    <path
       style="fill:#4d4d4d;stroke:#000000;stroke-width:0.361863;stroke-linecap:butt;stroke-linejoin:miter;stroke-miterlimit:4;stroke-dasharray:none;stroke-opacity:0.510152"
       d="m 343.47454,405.50302 c 4.41402,-1.26594 8.49769,-1.67925 12.09502,-1.58405 0.82762,3.49207 0.91607,4.7042 1.3159,8.69175 -3.94049,0.34685 -7.53087,0.97095 -11.95735,1.79262 -1.00541,-3.21465 -0.97188,-4.74779 -1.45357,-8.90032 z"
       id="path20868"
       sodipodi:nodetypes="ccccc" />
  </g>
</svg>
